<svg width="32" height="33" viewBox="0 0 32 33" fill="none" xmlns="http://www.w3.org/2000/svg">
<g clip-path="url(#clip0_3308_5192)"> <path d="M11.9984 7.25415H9.33171C8.62446 7.25415 7.94618 7.53245 7.44609 8.02783C6.94599 8.52321 6.66504 9.19509 6.66504 9.89566V25.7447C6.66504 26.4453 6.94599 27.1172 7.44609 27.6125C7.94618 28.1079 8.62446 28.3862 9.33171 28.3862H22.665C23.3723 28.3862 24.0506 28.1079 24.5507 27.6125C25.0508 27.1172 25.3317 26.4453 25.3317 25.7447V9.89566C25.3317 9.19509 25.0508 8.52321 24.5507 8.02783C24.0506 7.53245 23.3723 7.25415 22.665 7.25415H19.9984" stroke="#003657" stroke-width="2" stroke-linecap="round" stroke-linejoin="round"/> <path d="M12 7.25455C12 6.55397 12.281 5.8821 12.781 5.38672C13.2811 4.89134 13.9594 4.61304 14.6667 4.61304H17.3333C18.0406 4.61304 18.7189 4.89134 19.219 5.38672C19.719 5.8821 20 6.55397 20 7.25455C20 7.95512 19.719 8.627 19.219 9.12238C18.7189 9.61776 18.0406 9.89606 17.3333 9.89606H14.6667C13.9594 9.89606 13.2811 9.61776 12.781 9.12238C12.281 8.627 12 7.95512 12 7.25455Z" stroke="#003657" stroke-width="2" stroke-linecap="round" stroke-linejoin="round"/> <path d="M13.3359 15.1785H18.6693" stroke="#003657" stroke-width="2" stroke-linecap="round" stroke-linejoin="round"/> <path d="M11.5 21.4529L20.5 21.4529" stroke="#003657" stroke-width="2" stroke-linecap="round" stroke-linejoin="round"/> <path d="M11.5 24.4246L20.5 24.4246" stroke="#003657" stroke-width="2" stroke-linecap="round" stroke-linejoin="round"/> <path d="M16 12.5376V17.8206" stroke="#003657" stroke-width="2" stroke-linecap="round" stroke-linejoin="round"/> </g> <defs> <clipPath id="clip0_3308_5192"> <rect width="32" height="31.6981" fill="white" transform="translate(0 0.650879)"/> </clipPath> </defs> </svg>