<svg width="32" height="32" viewBox="0 0 32 32" fill="none" xmlns="http://www.w3.org/2000/svg">
<g id="Activity"> <path id="Vector" d="M22 7.33333C22.7072 7.33333 23.3855 7.05238 23.8856 6.55228C24.3857 6.05219 24.6667 5.37391 24.6667 4.66667C24.6667 3.95942 24.3857 3.28115 23.8856 2.78105C23.3855 2.28095 22.7072 2 22 2C21.2927 2 20.6145 2.28095 20.1144 2.78105C19.6143 3.28115 19.3333 3.95942 19.3333 4.66667C19.3333 5.37391 19.6143 6.05219 20.1144 6.55228C20.6145 7.05238 21.2927 7.33333 22 7.33333ZM17.2 25.8667L18.5333 20L21.3333 22.6667V30.6667H24V20.6667L21.2 18L22 14C23.8533 16.12 26.52 17.3333 29.3333 17.3333V14.6667C26.9867 14.7067 24.8 13.48 23.6 11.4667L22.2667 9.33333C21.7867 8.53333 20.9333 8 20 8C19.6 8 19.3333 8.13333 18.9333 8.13333L12 11.0667V17.3333H14.6667V12.8L17.0667 11.8667L14.9333 22.6667L8.39999 21.3333L7.86666 24L17.2 25.8667ZM5.33332 12C4.9797 12 4.64056 11.8595 4.39051 11.6095C4.14047 11.3594 3.99999 11.0203 3.99999 10.6667C3.99999 10.313 4.14047 9.97391 4.39051 9.72386C4.64056 9.47381 4.9797 9.33333 5.33332 9.33333H9.33332V12H5.33332ZM6.66666 6.66667C6.31303 6.66667 5.9739 6.52619 5.72385 6.27614C5.4738 6.02609 5.33332 5.68696 5.33332 5.33333C5.33332 4.97971 5.4738 4.64057 5.72385 4.39052C5.9739 4.14048 6.31303 4 6.66666 4H13.3333V6.66667H6.66666ZM3.99999 17.3333C3.64637 17.3333 3.30723 17.1929 3.05718 16.9428C2.80713 16.6928 2.66666 16.3536 2.66666 16C2.66666 15.6464 2.80713 15.3072 3.05718 15.0572C3.30723 14.8071 3.64637 14.6667 3.99999 14.6667H9.33332V17.3333H3.99999Z" fill="#003657"/> </g> </svg>