<svg width="32" height="32" viewBox="0 0 32 32" fill="none" xmlns="http://www.w3.org/2000/svg"><g id="Food"><path id="Vector" d="M10.8 17.7867L5.21332 12.2133C3.13332 10.12 3.13332 6.74668 5.21332 4.66668L14.5733 14L10.8 17.7867ZM17.88 17.3333L27.0533 26.5067L25.1733 28.3867L16 19.2133L6.82665 28.3867L4.94665 26.5067L17.8133 13.6267L17.5467 13.3333C16.5067 12.3067 16.5067 10.6267 17.5467 9.58668L23.3333 3.76001L24.5733 4.98668L20.2533 9.33334L21.5333 10.5867L25.8533 6.25334L27.08 7.48001L22.7467 11.8L24 13.08L28.3467 8.74668L29.5733 10L23.7467 15.7867C22.7067 16.8267 21.0267 16.8267 20 15.7867L19.7067 15.52L17.88 17.3333Z" fill="#003657"/></g></svg>