<svg width="32" height="33" viewBox="0 0 32 33" fill="none" xmlns="http://www.w3.org/2000/svg"> <path d="M28 16.5001C28 18.8511 27.2962 21.1492 25.9776 23.104C24.6591 25.0588 22.7849 26.5824 20.5922 27.482C18.3995 28.3817 15.9867 28.6171 13.6589 28.1585C11.3312 27.6998 9.19295 26.5677 7.51472 24.9053C5.83649 23.2429 4.6936 21.1249 4.23058 18.8191C3.76756 16.5133 4.0052 14.1232 4.91345 11.9512C5.8217 9.77917 7.35977 7.9227 9.33316 6.61657C11.3066 5.31043 13.6266 4.61328 16 4.61328" stroke="#003657" stroke-width="2" stroke-linecap="round" stroke-linejoin="round"/> <path d="M21.3307 16.5008C21.3307 17.5457 21.0179 18.5671 20.4319 19.4359C19.8459 20.3047 19.0129 20.9818 18.0384 21.3817C17.0638 21.7815 15.9915 21.8861 14.9569 21.6823C13.9224 21.4785 12.972 20.9753 12.2262 20.2365C11.4803 19.4976 10.9723 18.5563 10.7665 17.5315C10.5608 16.5067 10.6664 15.4444 11.07 14.4791C11.4737 13.5137 12.1573 12.6886 13.0344 12.1081C13.9114 11.5276 14.9426 11.2178 15.9974 11.2178" stroke="#003657" stroke-width="2" stroke-linecap="round" stroke-linejoin="round"/> <path d="M16 16.5001L21.3333 11.2171M21.3333 11.2171V7.25479L24 4.61328L25.3333 7.25479L28 8.57555L25.3333 11.2171H21.3333Z" stroke="#003657" stroke-width="2" stroke-linecap="round" stroke-linejoin="round"/> </svg>