<svg width="281" height="276" viewBox="0 0 281 276" fill="none" xmlns="http://www.w3.org/2000/svg">
<path d="M140.451 275.997C218.02 275.997 280.902 239.7 280.902 194.924C280.902 150.149 218.02 113.852 140.451 113.852C62.8821 113.852 0 150.149 0 194.924C0 239.7 62.8821 275.997 140.451 275.997Z" fill="#DFEAFB"/>
<path d="M210.581 249.952C233.938 249.952 252.873 239.021 252.873 225.538C252.873 212.055 233.938 201.125 210.581 201.125C187.224 201.125 168.289 212.055 168.289 225.538C168.289 239.021 187.224 249.952 210.581 249.952Z" fill="#CEE1FF"/>
<path d="M49.0025 228.161L117.823 188.43C117.988 188.375 118.131 188.269 118.233 188.128C118.335 187.987 118.389 187.817 118.389 187.643C118.389 187.469 118.335 187.3 118.233 187.159C118.131 187.018 117.988 186.912 117.823 186.857L112.879 184.004C112.456 183.793 111.99 183.683 111.517 183.683C111.044 183.683 110.578 183.793 110.155 184.004L82.218 200.133C81.7976 200.35 81.3315 200.463 80.8586 200.463C80.3857 200.463 79.9197 200.35 79.4993 200.133L28.5636 170.728C28.1405 170.516 27.6741 170.406 27.2012 170.406C26.7283 170.406 26.2618 170.516 25.8388 170.728L23.4493 172.105C23.2843 172.16 23.1408 172.266 23.0392 172.407C22.9375 172.548 22.8828 172.718 22.8828 172.892C22.8828 173.066 22.9375 173.235 23.0392 173.376C23.1408 173.517 23.2843 173.623 23.4493 173.678L74.4338 203.114C74.5987 203.169 74.7422 203.275 74.8439 203.416C74.9455 203.557 75.0002 203.727 75.0002 203.901C75.0002 204.074 74.9455 204.244 74.8439 204.385C74.7422 204.526 74.5987 204.632 74.4338 204.687L41.3341 223.742C41.1713 223.798 41.0301 223.904 40.9302 224.045C40.8303 224.185 40.7766 224.353 40.7766 224.525C40.7766 224.698 40.8303 224.866 40.9302 225.006C41.0301 225.146 41.1713 225.252 41.3341 225.309L46.2777 228.161C46.6993 228.378 47.1663 228.49 47.6401 228.49C48.1139 228.49 48.5809 228.378 49.0025 228.161Z" fill="#CEE1FF"/>
<path d="M94.786 175.648V173.855L62.875 192.313L64.3928 193.209L94.786 175.648Z" fill="#37474F"/>
<path d="M54.9946 54.141C55.0731 54.1855 55.1354 54.2537 55.1726 54.3359C55.2098 54.418 55.2201 54.5098 55.2019 54.5981L28.7587 171.971L28.0089 175.299C27.6433 175.325 27.2773 175.254 26.9483 175.092L25.1805 174.05C25.1021 174.004 25.0402 173.934 25.0041 173.851C24.9679 173.768 24.9592 173.675 24.9794 173.586L52.1236 53.1047C52.1386 53.0419 52.1677 52.9833 52.2087 52.9333C52.2497 52.8834 52.3015 52.8434 52.3602 52.8164C52.4189 52.7894 52.483 52.7761 52.5476 52.7774C52.6122 52.7788 52.6756 52.7948 52.7331 52.8243L54.9946 54.141Z" fill="#37474F"/>
<path d="M58.3096 52.5391L31.0374 173.594C31.0157 173.69 30.9741 173.78 30.9153 173.859C30.8565 173.937 30.7818 174.003 30.696 174.051L28.9222 175.075C28.643 175.231 28.3273 175.308 28.0078 175.3L28.7576 171.972L55.2678 54.3251L58.3096 52.5391Z" fill="#455A64"/>
<path d="M61.3594 215.68V219.178C61.0193 219.186 60.6825 219.111 60.378 218.959L58.7322 218.008C58.622 217.957 58.5273 217.878 58.4577 217.778C58.3882 217.678 58.3461 217.562 58.3359 217.441V112.309L61.3838 114.064L61.3594 215.68Z" fill="#37474F"/>
<path d="M64.3967 112.312V217.457C64.3805 217.573 64.335 217.682 64.2646 217.775C64.1942 217.868 64.1012 217.941 63.9944 217.988L62.3608 218.939C62.0566 219.105 61.7136 219.187 61.3672 219.176V114.062L64.3967 112.312Z" fill="#455A64"/>
<path d="M100.806 196.404C100.471 196.391 100.145 196.297 99.8549 196.129L98.1603 195.148C98.0503 195.083 97.9561 194.995 97.8844 194.89C97.8127 194.784 97.7654 194.664 97.7458 194.538L79.6172 100L82.665 101.756L100.154 193.002L100.806 196.404Z" fill="#37474F"/>
<path d="M103.839 194.628C103.826 194.752 103.78 194.87 103.706 194.971C103.632 195.071 103.533 195.151 103.418 195.201L101.87 196.103L101.797 196.145C101.491 196.307 101.149 196.389 100.803 196.383L100.151 193L82.6562 101.753L85.7041 100.004L103.802 194.487L103.839 194.628Z" fill="#455A64"/>
<path d="M63.3516 197.312L97.8228 177.41V173.898L63.3516 193.801V197.312Z" fill="#455A64"/>
<path d="M99.3137 9.69694L99.2528 9.66037L99.0882 9.56893C98.2043 9.06908 94.5469 7.00873 86.6529 2.47963C80.3561 -1.14122 72.5414 -0.921779 64.0988 3.96698C43.2271 16.006 26.3298 51.7756 26.3359 83.8695C26.3359 102.919 32.2975 116.396 41.496 121.663C47.0309 124.839 52.7121 128.057 54.0043 128.795C54.0531 128.818 54.0999 128.844 54.1445 128.874L54.2787 128.947C60.5328 132.428 68.2622 132.16 76.6255 127.332C97.4667 115.293 114.364 79.5232 114.364 47.4294C114.37 28.4595 108.457 15.0185 99.3137 9.69694Z" fill="#003557"/>
<path opacity="0.1" d="M99.3137 9.69694L99.2528 9.66037L99.0882 9.56893C98.2043 9.06908 94.5469 7.00873 86.6529 2.47963C80.3561 -1.14122 72.5414 -0.921779 64.0988 3.96698C43.2271 16.006 26.3298 51.7756 26.3359 83.8695C26.3359 102.919 32.2975 116.396 41.496 121.663C47.0309 124.839 52.7121 128.057 54.0043 128.795C54.0531 128.818 54.0999 128.844 54.1445 128.874L54.2787 128.947C60.5328 132.428 68.2622 132.16 76.6255 127.332C97.4667 115.293 114.364 79.5232 114.364 47.4294C114.37 28.4595 108.457 15.0185 99.3137 9.69694Z" fill="black"/>
<path opacity="0.1" d="M106.312 87.9815L33.4131 45.8906C28.9571 58.0028 26.3359 71.2183 26.3359 83.8669C26.3359 102.916 32.2975 116.394 41.496 121.66C47.0309 124.836 52.7121 128.055 54.0043 128.792C54.053 128.815 54.0999 128.841 54.1445 128.871L54.2786 128.945C60.5328 132.425 68.2622 132.157 76.6255 127.329C88.6767 120.386 99.4052 105.501 106.312 87.9815Z" fill="black"/>
<path opacity="0.1" d="M26.3906 87.4805C27.1038 104.628 32.8704 116.74 41.4775 121.677C47.0124 124.853 52.6936 128.072 53.9859 128.809C54.0346 128.832 54.0815 128.859 54.1261 128.889L54.2602 128.962C60.5144 132.442 68.2437 132.174 76.6071 127.346C79.5576 125.607 82.3107 123.553 84.818 121.22L26.3906 87.4805Z" fill="black"/>
<path d="M76.623 11.1321C55.7818 23.165 38.8906 58.9346 38.8906 91.0285C38.8906 123.122 55.7879 139.38 76.6291 127.347C97.4703 115.314 114.368 79.5137 114.368 47.4442C114.368 15.3747 97.4703 -0.906913 76.623 11.1321Z" fill="#003557"/>
<path d="M76.6236 22.6708C59.9214 32.3142 46.3828 60.9823 46.3828 86.6757C46.3828 112.369 59.9275 125.426 76.6297 115.783C93.3319 106.139 106.858 77.4895 106.858 51.7717C106.858 26.0539 93.3319 13.0213 76.6236 22.6708Z" fill="#FAFAFA"/>
<path d="M76.632 34.2091C64.0626 41.463 53.8828 63.0296 53.8828 82.3652C53.8828 101.701 64.0687 111.515 76.632 104.261C89.1952 97.0071 99.3812 75.4405 99.3812 56.1049C99.3812 36.7693 89.183 26.9491 76.632 34.2091Z" fill="#003557"/>
<path d="M76.6299 45.7471C68.1995 50.6237 61.3906 65.0705 61.3906 78.0543C61.3906 91.0382 68.2239 97.6033 76.6299 92.7389C85.0359 87.8745 91.8692 73.4094 91.8692 60.4317C91.8692 47.4539 85.0542 40.8766 76.6299 45.7471Z" fill="#FAFAFA"/>
<path d="M76.6348 57.2795C72.3679 59.7604 68.8689 67.1179 68.875 73.7379C68.8811 80.3578 72.3496 83.686 76.6348 81.2112C80.9201 78.7363 84.3947 71.3788 84.3947 64.7528C84.3947 58.1268 80.9201 54.8046 76.6348 57.2795Z" fill="#455A64"/>
<path d="M218.64 212.941C218.482 214.087 217.958 215.026 219.457 217.69C220.621 219.75 222.304 220.61 223.389 221.347C224.605 222.215 225.702 223.24 226.65 224.395C227.602 225.682 228.759 226.802 230.076 227.711C231.1 228.388 233.733 228.126 234.885 227.443C236.037 226.76 236.409 225.657 236.074 223.67C235.739 221.683 229.594 221.774 229.594 221.774L218.64 212.941Z" fill="#37474F"/>
<path d="M235.051 200.816L234.746 219.457C234.746 220.554 228.729 221.926 227.431 219.42C227.265 217.496 226.963 215.585 226.529 213.703C226.059 211.831 225.261 208.576 225.261 208.576C224.578 204.693 224.273 201.828 224.273 201.828L235.051 200.816Z" fill="#FFA8A7"/>
<path d="M207.346 209.399C207.346 209.399 204.511 226.65 204.426 227.601C204.34 228.551 201.664 229.167 199.683 229.106C197.702 229.045 196.532 228.125 196.55 227.698L196.062 209.289L207.346 209.399Z" fill="#FFA8A7"/>
<path d="M209.873 186.424C209.873 186.424 210.117 183.102 212.079 173.075C213.445 166.125 214.579 158.664 214.579 158.664C214.579 158.664 217.017 167.662 218.449 174.751C219.474 179.908 220.504 184.766 222.491 194.592C223.316 198.913 224.375 203.187 225.661 207.393C229.483 209.423 235.072 207.095 235.072 207.095C235.072 207.095 235.304 201.103 235.225 193.684C235.127 184.077 233.024 180.316 233.024 180.316C233.024 180.316 232.214 167.363 231.805 157.799C231.257 144.236 231.677 131.587 228.483 121.029C227.989 120.895 198.004 107.796 197.224 125.735C197.035 130.167 196.706 141.962 196.389 151.429C195.847 167.473 195.999 179.408 195.981 184.87C195.871 190.13 195.822 195.062 195.92 204.876C195.968 209.143 196.218 212.8 196.218 212.8C199.815 215.239 207.502 212.264 207.502 212.264C207.502 212.264 207.843 208.046 208.904 202.084C210.793 191.673 209.873 186.424 209.873 186.424Z" fill="#37474F"/>
<g opacity="0.2">
<path d="M209.789 146.633C208.101 146.145 204.705 144.152 204.077 142.884C203.352 141.427 203.194 133.777 203.188 133.454V133.155L215.531 132.277L215.568 132.546C215.963 135.338 216.205 138.151 216.293 140.97V141.366C216.342 142.585 211.484 146.328 210.99 146.627C210.868 146.699 210.729 146.737 210.588 146.736C210.318 146.74 210.049 146.706 209.789 146.633ZM203.773 133.716C203.828 136.075 204.065 141.555 204.602 142.628C205.138 143.701 208.259 145.596 209.954 146.078C210.563 146.249 210.697 146.163 210.703 146.163C211.764 145.511 215.757 142.104 215.732 141.409V141.006C215.653 138.298 215.425 135.595 215.05 132.911L203.773 133.716Z" fill="black"/>
</g>
<g opacity="0.2">
<path d="M231.391 143.33L231.507 142.72C229.416 141.715 226.374 140.038 226.142 139.471C225.856 138.777 225.319 133.894 225.106 131.767C225.716 131.608 227.624 131.157 230.483 130.547L230.367 129.98C226.795 130.736 224.74 131.279 224.722 131.285L224.484 131.346V131.59C224.558 132.321 225.204 138.764 225.582 139.703C225.96 140.642 230.519 142.909 231.391 143.33Z" fill="black"/>
</g>
<path d="M196.013 207.918L196.067 209.29C196.067 209.29 197.171 210.728 201.901 210.826C206.631 210.923 207.863 209.692 207.863 209.692L208.015 208.546C208.771 208.723 208.625 209.619 208.125 211.856C207.625 214.093 207.21 216.025 206.723 216.489C206.235 216.952 203.675 217.744 200.901 217.616C198.128 217.488 196.305 216.336 195.818 215.666C195.33 214.995 195.165 212.313 195.031 210.868C194.897 209.424 195.19 207.973 196.013 207.918Z" fill="#003557"/>
<path d="M223.82 200.595L224.156 201.967C224.156 201.967 225.235 203.186 229.953 202.784C234.671 202.381 235.219 201.059 235.219 201.059V199.949C236.225 200.102 236.487 200.894 236.231 203.168C235.975 205.441 235.75 207.435 235.317 207.922C234.884 208.41 232.434 209.477 229.642 209.641C226.85 209.806 225.533 208.94 224.985 208.325C224.436 207.709 223.936 204.777 223.656 203.351C223.375 201.924 223.016 200.742 223.82 200.595Z" fill="#003557"/>
<path opacity="0.2" d="M214.586 158.665L216.738 148.022C218.116 147.362 219.329 146.402 220.29 145.214C221.25 144.026 221.934 142.638 222.291 141.152C222.291 141.152 222.651 146.029 218.402 148.467L215.756 158.61L216.811 167.352L214.586 158.665Z" fill="black"/>
<path d="M179.539 234.001C179.113 233.958 179.162 235.22 179.308 235.793C179.454 236.366 181.216 238.189 184.349 238.841C187.482 239.493 191.804 238.908 193.663 238.841C195.522 238.774 198.723 239.67 200.57 239.938C202.417 240.206 205.751 239.585 206.854 238.542C207.034 238.334 207.167 238.09 207.245 237.826C207.322 237.562 207.343 237.285 207.305 237.012C207.269 235.793 207.159 235.531 207.013 235.543L179.539 234.001Z" fill="#37474F"/>
<path d="M206.412 225.6C206.603 224.937 206.733 224.257 206.802 223.57C206.853 222.999 206.771 222.423 206.565 221.888C206.444 221.679 206.283 221.497 206.09 221.352C205.897 221.208 205.677 221.104 205.443 221.047L205.175 222.76C204.815 223.107 203.803 223.266 203.389 223.534C202.456 224.143 202.273 225.405 202.029 226.49C201.991 226.746 201.896 226.99 201.749 227.204C200.908 228.246 200.664 226.423 200.621 225.936C200.56 225.229 200.499 224.442 199.975 223.961C199.439 223.582 198.803 223.37 198.146 223.351C197.506 223.296 196.744 223.321 196.397 222.741L196.354 221.663C195.812 221.602 195.038 221.705 194.812 222.272C194.729 222.555 194.712 222.853 194.763 223.144C194.849 223.955 194.965 224.765 195.123 225.582C195.276 226.181 195.368 226.793 195.397 227.411C195.404 227.524 195.404 227.638 195.397 227.752C195.251 228.017 195.042 228.241 194.788 228.404C193.788 228.876 192.699 229.129 191.594 229.148C189.984 229.252 188.619 229.008 186.808 228.983C185.145 228.889 183.486 229.227 181.993 229.965C181.202 230.345 180.545 230.957 180.109 231.719C179.674 232.481 179.48 233.357 179.555 234.232C180.196 235.391 181.203 236.304 182.42 236.829C183.937 237.417 185.537 237.763 187.162 237.853C189.07 238.048 191.709 237.713 193.623 237.603C195.232 237.562 196.838 237.732 198.402 238.109C200.841 238.596 202.499 238.718 204.699 238.06C205.534 237.804 206.571 237.31 206.955 236.39C207.078 235.126 207.002 233.851 206.729 232.61C206.687 232.361 206.638 232.117 206.583 231.873C206.528 231.629 206.437 231.263 206.357 230.971C206.235 230.514 206.229 230.014 206.15 229.544C206.12 229.374 206.028 228.935 205.912 228.38C205.963 227.845 206.045 227.314 206.156 226.789C206.211 226.417 206.315 225.99 206.412 225.6Z" fill="#455A64"/>
<path d="M194.285 228.598C193.194 229.523 192.502 230.833 192.352 232.255C192.389 233.182 190.755 233.243 190.719 232.322C190.958 231.143 191.462 230.034 192.194 229.079C192.806 228.662 193.552 228.49 194.285 228.598Z" fill="#FAFAFA"/>
<path d="M190.73 229.145C189.82 229.967 189.194 231.058 188.944 232.26C188.914 232.942 187.493 232.869 187.524 232.187C187.524 232.187 187.743 229.998 189.316 229.09C189.755 228.779 190.584 228.858 190.73 229.145Z" fill="#FAFAFA"/>
<path d="M187.925 228.997C187.176 228.997 185.603 229.997 184.829 232.289C184.365 233.975 184.245 235.737 184.475 237.47C182.917 237.274 181.464 236.582 180.33 235.495C179.901 235.129 179.549 234.682 179.294 234.179C179.183 233.573 179.195 232.95 179.33 232.349C179.465 231.748 179.72 231.18 180.08 230.68C181.171 229.388 182.854 228.54 185.499 228.406C188.468 228.254 188.724 229.046 188.724 229.046L187.925 228.997Z" fill="#FAFAFA"/>
<path d="M220.269 210.505C221.738 209.645 225.98 211.584 225.98 211.584L226.23 212.577C226.23 212.577 226.407 213.285 226.498 213.632C226.718 214.418 227.718 214.674 228.449 214.778C230.361 214.948 232.284 214.614 234.027 213.809C234.801 213.382 234.85 212.913 234.85 212.913C234.85 212.632 234.85 211.87 234.85 211.87C235.325 211.87 235.868 212.09 235.788 213.09C235.648 214.882 235.49 218.009 235.788 219.636C235.922 220.441 236.148 221.386 236.264 222.184C236.349 222.727 236.325 224.324 235.612 224.964C235.412 225.208 235.171 225.415 234.898 225.574C233.35 226.537 230.631 226.378 229.363 225.122C227.754 223.562 226.62 222.142 224.365 220.246C223.03 219.136 221.744 218.606 220.659 217.241C220.065 216.458 219.609 215.58 219.312 214.644C218.501 212.401 218.757 211.389 220.269 210.505Z" fill="#455A64"/>
<path d="M224.535 216.311C224.906 215.257 225.599 214.347 226.516 213.708C226.425 213.336 226.321 212.958 226.23 212.574C225.549 212.891 224.939 213.341 224.437 213.898C223.934 214.455 223.549 215.108 223.304 215.817C223.09 216.5 224.06 216.884 224.535 216.311Z" fill="#FAFAFA"/>
<path d="M226.732 217.273C226.846 216.948 226.993 216.635 227.171 216.34C227.043 215.834 226.909 215.292 226.763 214.719C226.198 215.305 225.769 216.009 225.507 216.779C225.293 217.431 226.263 217.815 226.732 217.273Z" fill="#FAFAFA"/>
<path d="M220.65 217.322C220.65 217.145 220.394 212.957 225.984 211.586C225.984 211.555 225.887 211.19 225.844 211.037C225.128 210.387 224.235 209.963 223.278 209.818C221.236 209.538 219.748 210.245 218.883 211.714C218.017 213.183 219.517 216.597 220.65 217.322Z" fill="#FAFAFA"/>
<path d="M188.05 95.7878C185.691 95.2331 181.461 93.9591 176.755 92.3377C171.579 90.509 166.191 88.918 165.283 88.7534C163.551 88.4425 161.07 88.6071 159.534 88.1926C157.706 87.6928 155.846 87.5465 154.243 86.3639C154 86.2192 153.792 86.024 153.631 85.7916C153.47 85.5592 153.361 85.2949 153.311 85.0167C153.311 84.7302 153.378 84.4437 153.365 84.1572C153.365 83.7062 153.067 83.2916 153.116 82.8467C153.177 82.2371 153.823 81.786 153.847 81.1703C153.826 80.8999 153.776 80.6323 153.701 80.3718C153.628 79.8842 154.109 79.2319 154.377 78.8357C154.524 78.6284 154.932 78.2627 154.7 77.9884C153.912 77.1034 153.05 76.2876 152.122 75.5501C150.427 74.1298 149.501 72.8314 150.208 72.0207C151.183 70.893 152.975 72.3499 155.243 73.9347C156.505 74.8186 157.742 75.7635 159.022 76.6047C159.522 76.9399 161.546 78.5919 162.07 77.7628C162.208 77.4899 162.253 77.1797 162.198 76.879C162.143 76.2694 162.034 75.6172 162.021 74.9832C161.983 74.3523 162.109 73.7222 162.387 73.1545C162.49 72.9369 162.65 72.7514 162.85 72.6181C162.951 72.5535 163.068 72.5166 163.188 72.5113C163.308 72.5059 163.427 72.5322 163.533 72.5876C163.735 72.7367 163.878 72.9527 163.935 73.1972C164.228 73.9591 164.515 74.7211 164.801 75.4831C165.191 76.7713 165.731 78.0092 166.41 79.171C166.954 80.0407 167.698 80.768 168.58 81.2923C169.19 81.5788 173.25 82.5602 174.579 82.8832C176.871 83.4318 189.897 86.1201 190.153 86.181L225.216 82.3651L224.728 93.7885C224.728 93.7885 192.671 96.879 188.05 95.7878Z" fill="#FFA8A7"/>
<path d="M223.516 81.2353C225.899 80.9183 229.496 80.9427 231.538 83.6187C233.58 86.2947 233.555 88.416 233.531 91.8296C233.506 95.2432 231.836 101.327 231.836 101.327L223.516 81.2353Z" fill="#003557"/>
<path d="M159.738 81.6328C159.751 81.7198 159.744 81.8085 159.719 81.8926C159.693 81.9768 159.65 82.0545 159.592 82.1204C159.528 82.1806 159.452 82.2273 159.369 82.2577C159.287 82.288 159.199 82.3015 159.111 82.2972C158.936 82.2935 158.762 82.271 158.592 82.2302C158.452 82.2302 158.263 82.2302 158.227 82.3521C158.223 82.3946 158.228 82.4375 158.243 82.4776C158.258 82.5176 158.281 82.5539 158.312 82.5837C158.553 82.8205 158.812 83.0386 159.086 83.236C159.421 83.5286 159.824 84.0833 159.452 84.4551C159.346 84.5754 159.212 84.6678 159.063 84.7241C158.913 84.7805 158.751 84.799 158.592 84.7782C158.355 84.7782 158.117 84.6867 157.873 84.6746C157.83 84.6746 157.776 84.6746 157.782 84.7355C157.788 84.752 157.799 84.7666 157.812 84.7782C158.153 85.0001 158.454 85.2783 158.702 85.6011C158.782 85.7042 158.838 85.8243 158.864 85.9522C158.891 86.08 158.887 86.2123 158.855 86.3387C158.733 86.6313 158.245 86.7776 157.977 86.7959H157.837C157.837 86.7959 157.837 86.7959 157.837 86.8263H157.879C157.967 86.8571 158.056 86.8816 158.147 86.8995C158.374 86.9273 158.603 86.8714 158.792 86.7423C158.98 86.6133 159.115 86.4199 159.172 86.1985C159.231 86.005 159.232 85.7983 159.174 85.6043C159.117 85.4102 159.004 85.2374 158.848 85.1073C159.055 85.1354 159.266 85.1097 159.461 85.0329C159.655 84.956 159.826 84.8305 159.958 84.6685C160.567 83.9918 160.171 83.4188 159.635 82.9068C159.821 82.8731 159.996 82.7911 160.141 82.6691C160.23 83.8972 160.64 85.0805 161.329 86.1009C160.859 84.8022 160.63 83.4285 160.653 82.0473C160.652 81.7116 160.684 81.3767 160.75 81.0476C160.792 80.7482 160.849 80.4512 160.921 80.1576C161.017 79.6771 161.166 79.2089 161.366 78.7617C161.053 78.952 160.783 79.2052 160.574 79.5054C160.391 79.7675 160.403 80.1637 160.001 80.2064C159.77 80.2105 159.544 80.1423 159.354 80.0113C159.169 79.8813 158.963 79.7844 158.745 79.7248C158.721 79.7185 158.695 79.718 158.671 79.7233C158.647 79.7286 158.624 79.7396 158.605 79.7553C158.562 79.8102 158.605 79.8894 158.653 79.9443C159.112 80.3381 159.476 80.8297 159.72 81.3829C159.742 81.4642 159.749 81.5491 159.738 81.6328Z" fill="#F28F8F"/>
<path d="M208.266 77.0749L209.43 88.2544L220.591 88.864L219.701 75.8984L208.266 77.0749Z" fill="#FFA8A7"/>
<path d="M201.753 63.6914C201.753 63.6914 198.924 67.5256 199.198 67.9584C199.473 68.3912 201.387 68.8179 201.387 68.8179L201.753 63.6914Z" fill="#F28F8F"/>
<path d="M209.611 53.0935C204.253 53.9286 202.595 56.1413 201.65 64.5656C200.657 73.3373 201.413 76.1474 202.504 77.397C203.241 78.2383 207.569 78.6162 209.788 78.1224C212.568 77.5129 218.865 75.6537 221.98 71.3806C225.668 66.3577 226.942 59.3477 223.443 56.2632C218.548 51.917 211.794 52.7521 209.611 53.0935Z" fill="#FFA8A7"/>
<path d="M201.038 55.8964C201.421 56.3268 201.855 56.7095 202.33 57.0363C203.016 57.5336 203.735 57.9836 204.482 58.3834C205.212 58.6964 205.913 59.0716 206.579 59.505C207.505 60.2426 207.578 61.157 207.542 62.2664C207.542 62.9918 207.475 63.8879 207.432 64.8571C207.371 66.32 208.243 67.4782 208.804 65.5459C208.804 65.5459 209.815 62.3396 212.534 62.8943C215.253 63.449 215.326 66.5517 213.893 68.9046C213.016 70.3371 210.907 69.8373 210.907 69.8373C210.759 71.1955 210.902 72.5697 211.328 73.8679C211.754 75.1661 212.452 76.3585 213.375 77.3655C213.375 77.3655 215.491 78.6151 219.849 77.9263C223.019 74.0189 224.982 72.1475 226.743 68.7218C230.474 61.4861 229.114 56.7437 226.64 54.6468C226.31 51.2027 223.701 49.5264 220.672 48.6547C216.137 47.3563 211.705 49.8738 207.219 48.5937C206.48 48.3999 205.751 48.1679 205.036 47.8988C204.764 47.7505 204.446 47.7113 204.146 47.7891C203.978 47.8884 203.842 48.0348 203.755 48.2102C203.669 48.3856 203.635 48.5824 203.659 48.7766C203.668 49.2181 203.784 49.6508 203.996 50.0381C204.209 50.4254 204.511 50.7559 204.878 51.0015C204.786 50.9406 204.335 51.0381 204.213 51.0381C203.957 51.0381 203.708 51.0381 203.452 51.0381C202.947 51.0069 202.444 50.9478 201.946 50.8613C201.605 50.7974 201.256 50.7974 200.916 50.8613C200.534 50.9876 200.204 51.234 199.974 51.5636C199.745 51.8933 199.628 52.2885 199.642 52.69C199.677 53.4878 199.919 54.2628 200.343 54.9394C200.49 55.2242 200.659 55.4972 200.849 55.7562C200.909 55.8059 200.972 55.8527 201.038 55.8964Z" fill="#37474F"/>
<path d="M202.492 77.3946C203.102 78.0713 206.034 78.4492 208.314 78.309H208.472L208.314 77.0898C208.314 77.0898 204.668 77.9311 202.492 77.3946Z" fill="#F28F8F"/>
<path d="M230.924 87.1138C229.553 83.8099 226.578 80.6829 222.75 81.3168C221.86 81.4631 221.013 81.5363 220.171 81.6886C219.72 83.56 213.753 83.7368 208.852 82.603L203.103 83.2918C199.586 84.4744 196.758 91.2589 196.258 101.579C195.758 111.899 196.313 127.79 196.514 134.977C203.569 137.873 211.31 138.667 218.806 137.263C229.345 135.166 231.064 130.643 231.064 130.643L230.254 112.198C230.254 108.187 231.717 102.749 232.027 100.171C232.966 92.2403 231.753 89.1193 230.924 87.1138Z" fill="#455A64"/>
<path d="M126.644 94.5625C126.414 94.7372 126.228 94.9631 126.1 95.2223C125.972 95.4815 125.906 95.7669 125.907 96.0559C125.902 96.1596 125.926 96.2625 125.975 96.3538C126.025 96.445 126.098 96.5212 126.187 96.5741L146.175 106.492L147.217 104.389L127.23 94.471C127.132 94.4353 127.028 94.4249 126.925 94.4409C126.823 94.4569 126.726 94.4987 126.644 94.5625Z" fill="#455A64"/>
<path d="M126.185 96.5805C123.747 95.3614 118.742 91.582 118.742 91.582C118.742 91.582 126.008 93.8557 127.227 94.4775L126.185 96.5805Z" fill="#455A64"/>
<path opacity="0.2" d="M146.63 104.485L126.965 94.7867L118.742 91.5742L126.679 95.573L146.557 105.497L146.63 104.485Z" fill="white"/>
<path d="M146.628 104.504C146.397 104.676 146.209 104.901 146.081 105.159C145.953 105.418 145.888 105.703 145.891 105.991C145.927 106.522 146.311 106.711 146.75 106.418C146.983 106.245 147.171 106.02 147.299 105.76C147.427 105.501 147.492 105.214 147.488 104.925C147.451 104.382 147.079 104.187 146.628 104.504Z" fill="#37474F"/>
<path d="M145.92 105.017C148.705 99.8904 162.421 93.0754 173.771 98.6895C185.121 104.304 206.151 126.053 211.692 137.422C198.379 139.708 171.168 137.617 160.214 132.204C149.26 126.791 143.555 116.952 145.92 105.017Z" fill="#003557"/>
<path opacity="0.7" d="M145.92 105.017C148.705 99.8904 162.421 93.0754 173.771 98.6895C185.121 104.304 206.151 126.053 211.692 137.422C198.379 139.708 171.168 137.617 160.214 132.204C149.26 126.791 143.555 116.952 145.92 105.017Z" fill="white"/>
<path d="M155.615 122.967C155.054 114.305 159.675 103.894 165.935 99.7245C168.58 97.9568 171.092 97.591 173.158 98.4139C161.93 93.324 148.647 99.9805 145.91 105.016C143.545 116.951 149.275 126.777 160.223 132.19C157.7 130.904 155.932 127.667 155.615 122.967Z" fill="#003557"/>
<path opacity="0.15" d="M160.243 132.19C171.215 137.603 198.402 139.694 211.721 137.408C200.079 137.64 178.762 133.897 166.674 127.521C156.689 122.254 147.912 113.038 145.949 105.016C143.565 116.951 149.295 126.777 160.243 132.19Z" fill="black"/>
<path opacity="0.5" d="M145.922 105.016C156.632 100.701 167.787 103.011 175.34 107.058C182.892 111.106 205.91 128.954 211.695 137.421C211.695 137.421 195.169 114.532 177.223 103.895C159.278 93.2577 145.922 105.016 145.922 105.016Z" fill="white"/>
<path d="M235.36 159.225C233.568 161.749 227.095 158.524 220.066 152.8L216.36 144.876L217.658 150.758C213.289 146.933 209.306 142.688 205.766 138.085C207.808 137.945 209.801 137.725 211.715 137.402L221.541 142.151C221.541 142.151 238.365 155.001 235.36 159.225Z" fill="#003557"/>
<path opacity="0.15" d="M235.36 159.225C233.568 161.749 227.095 158.524 220.066 152.8L216.36 144.876L217.658 150.758C213.289 146.933 209.306 142.688 205.766 138.085C207.808 137.945 209.801 137.725 211.715 137.402L221.541 142.151C221.541 142.151 238.365 155.001 235.36 159.225Z" fill="black"/>
<g opacity="0.15">
<path d="M205.773 138.092C207.487 140.351 209.319 142.518 211.26 144.584C209.872 142.97 208.73 141.161 207.87 139.214L211.772 138.537L221.525 142.158L211.705 137.422C209.809 137.733 207.815 137.952 205.773 138.092Z" fill="black"/>
</g>
<path d="M221.545 142.157L211.701 137.42C209.086 135.177 208.525 134.08 205.922 132.075C210.34 131.65 214.779 131.489 219.217 131.593L216.912 134.885L223.008 131.837C228.397 132.355 231.853 133.574 233.81 135.244C239.686 140.243 232.286 144.406 221.545 142.157Z" fill="#003557"/>
<path opacity="0.5" d="M216.928 134.873L219.232 131.581C214.795 131.478 210.356 131.638 205.938 132.063C205.938 132.063 216.123 131.959 217.733 132.233L216.928 134.873Z" fill="white"/>
<path opacity="0.5" d="M226.934 142.779C234.505 142.882 238.626 139.347 233.81 135.22C231.854 133.55 228.397 132.331 223.009 131.812L219.961 133.343L223.356 132.404C223.356 132.404 230.293 133.105 233.396 136.531C235.304 138.64 233.146 142.724 226.934 142.779Z" fill="white"/>
<path d="M201.499 98.7205C195.074 110.869 191.404 119.056 189.387 121.104C187.369 123.152 172.136 135.124 166.632 135.673C161.127 136.221 156.202 134.539 155.72 131.735C155.563 130.951 155.552 130.145 155.69 129.357C155.69 129.357 157.013 130.284 157.08 130.308C158.756 130.881 161.298 130.692 162.511 129.766C164.303 128.394 160.255 127.328 159.311 126.182C158.091 124.749 158.622 123.201 161.664 124.53C164.309 125.694 166.662 126.614 168.546 126.56C170.429 126.505 181.249 115.167 181.249 115.167C181.249 115.167 187.052 102.908 189.753 96.3614C194.83 84.0664 199.798 84.1274 202.493 84.0664L201.499 98.7205Z" fill="#FFA8A7"/>
<path d="M203.099 83.293C200.459 83.5551 198.491 83.6709 196.284 84.8352C193.608 86.2433 192.663 88.7608 191.45 91.5405C189.14 96.8071 186.945 101.586 186.945 101.586C187.817 103.964 192.724 109.669 197.168 108.011C197.168 108.011 200.911 101.55 202.861 97.3801C204.684 93.4728 205.043 86.4993 203.099 83.293Z" fill="#003557"/>
</svg>
