<svg width="32" height="32" viewBox="0 0 32 32" fill="none" xmlns="http://www.w3.org/2000/svg"> <g id="Healthcare"><path id="Vector" fill-rule="evenodd" clip-rule="evenodd" d="M18.7 9.054C18.346 9.622 17.718 10 17 10C15.896 10 15 9.104 15 8C15 6.896 15.896 6 17 6C17.759 6 18.42 6.424 18.759 7.047C21.349 7.342 23.145 8.833 22.992 11.286C22.807 14.145 19.698 18.905 16.991 20.976C16.894 22.049 16.282 23.208 15.197 23.884C16.19 25.493 17.733 26.169 19.415 25.971C21.044 25.78 22.559 24.605 23.375 23.278C22.539 22.637 22 21.631 22 20.5C22 18.568 23.568 16.999 25.5 16.999C27.431 16.999 29 18.568 29 20.5C29 22.436 27.403 24.101 25.272 23.991C24.117 26.123 21.671 28 18.92 28C16.207 28 14.129 26.503 13 23.999C11.947 23.368 11.171 22.062 11.015 20.97C8.24 18.832 5 13.799 5 11.007C5 8.625 6.875 7.325 9.24 7.05C9.578 6.425 10.24 6 11 6C12.104 6 13 6.896 13 8C13 9.104 12.104 10 11 10C10.285 10 9.657 9.624 9.304 9.059C7.254 9.358 6.752 10.346 7.114 11.791C7.747 14.358 10.719 18.659 13.022 19.912C13.779 20.328 14.215 20.333 14.982 19.914C17.708 18.431 20.963 13.217 21 11.056C21.022 9.768 19.971 9.235 18.7 9.054ZM25.5 22C24.672 22 24 21.326 24 20.5C24 19.672 24.672 19 25.5 19C26.328 19 27 19.672 27 20.5C27 21.326 26.328 22 25.5 22Z" fill="#003657"/></g> </svg>