<svg width="32" height="32" viewBox="0 0 32 32" fill="none" xmlns="http://www.w3.org/2000/svg"> <g id="Law"> <path id="Vector" fill-rule="evenodd" clip-rule="evenodd" d="M5 27H17V29H5V27ZM16 26H6C6 24.895 6.895 24 8 24H14C15.105 24 16 24.895 16 26ZM22.369 13.161L20.123 15.358C20.123 15.358 26.414 20.899 28.295 22.502C28.77 22.907 29 23.431 29 23.948C29 24.963 28.112 25.834 27.05 25.767C26.53 25.735 26.069 25.464 25.729 25.07C24.11 23.195 18.659 16.821 18.659 16.821L16.414 19.017L10.557 13.161L16.514 7.304L22.369 13.161ZM10.07 14.087C9.875 13.894 9.612 13.785 9.337 13.785C9.063 13.785 8.8 13.894 8.605 14.087C8.412 14.282 8.302 14.545 8.302 14.82C8.302 15.094 8.412 15.357 8.605 15.552L14.118 21.063C14.312 21.258 14.575 21.367 14.85 21.367C15.125 21.367 15.388 21.258 15.582 21.063C15.776 20.87 15.885 20.606 15.885 20.331C15.885 20.057 15.776 19.794 15.582 19.6L10.07 14.087ZM18.854 5.303C18.659 5.109 18.396 5 18.122 5C17.546 5 17.087 5.467 17.087 6.035C17.087 6.31 17.195 6.574 17.39 6.767L22.903 12.28C23.097 12.473 23.359 12.583 23.634 12.583C24.206 12.583 24.67 12.119 24.67 11.548C24.67 11.273 24.561 11.009 24.366 10.816L18.854 5.303Z" fill="#003657"/> </g> </svg>