<svg width="32" height="32" viewBox="0 0 32 32" fill="none" xmlns="http://www.w3.org/2000/svg"> <path d="M16 4C9.373 4 4 9.373 4 16C4 22.627 9.373 28 16 28C22.627 28 28 22.627 28 16C28 9.373 22.627 4 16 4ZM17 20.947V22H16V21.002C14.965 20.984 13.894 20.737 13 20.275L13.455 18.631C14.411 19.002 15.684 19.396 16.68 19.171C17.829 18.911 18.064 17.729 16.794 17.16C15.863 16.726 13.016 16.355 13.016 13.917C13.016 12.554 14.055 11.334 16 11.067V10H17V11.018C17.724 11.037 18.536 11.163 19.442 11.438L19.08 13.085C18.312 12.815 17.463 12.57 16.637 12.62C15.148 12.707 15.017 13.996 16.056 14.536C17.768 15.341 20 15.938 20 18.083C20.002 19.801 18.657 20.715 17 20.947Z" fill="#003657"/> </svg>