<svg width="104" height="104" viewBox="0 0 104 104" fill="none" xmlns="http://www.w3.org/2000/svg">
<g filter="url(#filter0_dd_2755_42979)">
<circle cx="48" cy="44" r="32" fill="white"/>
</g>
<g clip-path="url(#clip0_2755_42979)">
<path d="M46.0125 34.6234L46 32.6484" stroke="black" stroke-opacity="0.761" stroke-width="2"/>
<path d="M46.0031 32.6487C45.7187 30.4144 48.5406 29.3675 49.7187 31.1987C50.2469 32.0206 50.0344 33.4581 50.0437 34.4706C50.0446 34.5273 50.0676 34.5813 50.108 34.6211C50.1483 34.6608 50.2027 34.6831 50.2594 34.6831L51.8406 34.6769C51.8978 34.6769 51.9527 34.6541 51.9931 34.6137C52.0335 34.5733 52.0562 34.5184 52.0562 34.4612L52.0531 28.7737C52.0531 28.7255 52.0414 28.6782 52.019 28.6357C51.9967 28.5932 51.9644 28.5569 51.925 28.53L48.1656 25.9737C48.1204 25.9425 48.0667 25.9258 48.0115 25.9258C47.9563 25.9258 47.9021 25.9425 47.8562 25.9737L44.0844 28.5425C43.9969 28.6008 43.9531 28.6821 43.9531 28.7862V34.4831C43.9531 34.5935 44.0083 34.6487 44.1187 34.6487L46.0156 34.6237" stroke="#006779" stroke-width="2"/>
<path d="M46 32.6484L46.0125 34.6234" stroke="#00889F" stroke-opacity="0.761" stroke-width="2"/>
<path d="M47.186 34.6781H48.811C48.8494 34.6781 48.8863 34.6631 48.9137 34.6362C48.9412 34.6093 48.957 34.5728 48.9578 34.5344L48.961 32.5C48.9614 32.3547 48.938 32.2108 48.8923 32.0764C48.8465 31.942 48.7791 31.8198 48.6941 31.7168C48.6091 31.6138 48.508 31.532 48.3967 31.476C48.2854 31.42 48.166 31.391 48.0453 31.3906H47.9641C47.7204 31.3898 47.4864 31.5056 47.3136 31.7125C47.1407 31.9193 47.0431 32.2004 47.0422 32.4938L47.0391 34.5281C47.0387 34.5477 47.0422 34.5671 47.0494 34.5853C47.0566 34.6035 47.0673 34.62 47.081 34.634C47.0947 34.648 47.111 34.6591 47.129 34.6667C47.1471 34.6742 47.1664 34.6781 47.186 34.6781Z" stroke="#006779" stroke-width="2"/>
<path d="M30.0344 35.3203C29.8323 35.7641 29.8323 36.238 30.0344 36.7422" stroke="black" stroke-opacity="0.761" stroke-width="2"/>
<path d="M30.0312 36.7441C30.8531 40.6003 35.525 42.1503 38.1562 38.9472C40.0437 36.6535 39.3281 33.3222 36.7344 31.9347C33.8969 30.416 30.725 32.2753 30.0312 35.3222" stroke="#7F5419" stroke-width="2"/>
<path d="M30.0312 36.7422V35.3203" stroke="#A76F21" stroke-opacity="0.761" stroke-width="2"/>
<path d="M65.9219 37.0273C66.176 36.4419 66.1896 35.8742 65.9625 35.3242" stroke="black" stroke-opacity="0.761" stroke-width="2"/>
<path d="M65.9641 35.3256C65.5225 33.5506 64.5495 32.3673 63.0454 31.7756C59.4985 30.3788 55.961 33.6444 56.9047 37.2163C57.4266 39.1788 59.1079 40.5194 61.1579 40.61C63.4662 40.7142 65.0547 39.5204 65.9235 37.0288" stroke="#7E5F40" stroke-width="2"/>
<path d="M65.9625 35.3242L65.9219 37.0273" stroke="#A57D54" stroke-opacity="0.761" stroke-width="2"/>
<path d="M32.9457 34.2188C32.8019 34.6313 32.8102 35.0625 32.9707 35.5125" stroke="#A76F21" stroke-opacity="0.761" stroke-width="2"/>
<path d="M32.9713 35.5117C33.3275 36.2201 33.9588 36.5982 34.865 36.6461C34.9567 36.6523 35.0338 36.6898 35.0963 36.7586C35.3733 37.069 35.39 37.4023 35.1463 37.7586C35.098 37.8309 35.0231 37.8823 34.9369 37.9023C34.4306 38.0294 34.0817 37.8503 33.89 37.3648C33.8504 37.2607 33.7765 37.1982 33.6681 37.1773C33.314 37.1086 33.0702 37.2253 32.9369 37.5273C32.889 37.6336 32.8858 37.7398 32.9275 37.8461C33.1358 38.3982 33.5421 38.7982 34.1463 39.0461" stroke="#7F5419" stroke-width="2"/>
<path d="M34.145 39.0469C34.0429 39.3885 34.0731 39.6552 34.2356 39.8469" stroke="#A76F21" stroke-opacity="0.761" stroke-width="2"/>
<path d="M34.2359 39.844C34.4609 40.0253 34.6766 40.0607 34.8828 39.9503C35.1766 39.7909 35.1734 39.4628 35.1859 39.1628C35.1922 39.0545 35.2443 38.9763 35.3422 38.9284C37.0953 38.069 36.5484 35.4253 34.5891 35.5003C34.4875 35.5042 34.3865 35.4834 34.2947 35.4399C34.2028 35.3964 34.1227 35.3313 34.0611 35.2501C33.9996 35.1689 33.9583 35.0741 33.9409 34.9735C33.9235 34.8729 33.9303 34.7696 33.9609 34.6722C34.2266 33.8409 35.0453 34.044 35.3859 34.6878C35.4431 34.7933 35.5354 34.8812 35.6472 34.9364C35.7589 34.9916 35.883 35.0106 35.9983 34.9903C36.1135 34.97 36.2128 34.9116 36.2789 34.825C36.3451 34.7385 36.3741 34.6292 36.3609 34.5159C36.2818 33.8826 35.9422 33.4336 35.3422 33.169C35.2589 33.1336 35.2109 33.0711 35.1984 32.9815L35.1234 32.419C35.1094 32.2905 35.047 32.1721 34.9489 32.0878C34.8508 32.0035 34.7243 31.9598 34.5951 31.9653C34.4659 31.9709 34.3437 32.0254 34.2532 32.1178C34.1627 32.2102 34.1107 32.3335 34.1078 32.4628L34.0859 32.919C34.084 32.9636 34.0705 33.0068 34.0469 33.0441C34.0233 33.0815 33.9904 33.1116 33.9516 33.1315C33.4495 33.392 33.1141 33.7534 32.9453 34.2159" stroke="#7F5419" stroke-width="2"/>
<path d="M34.2313 39.8469C34.2521 39.5552 34.2219 39.2885 34.1406 39.0469" stroke="black" stroke-opacity="0.761" stroke-width="2"/>
<path d="M32.9703 35.5125L32.9453 34.2188" stroke="black" stroke-opacity="0.761" stroke-width="2"/>
<path d="M64.3091 36.2169C64.6653 35.9294 64.8403 35.4523 64.8341 34.7856C64.8216 33.5294 64.4122 33.095 63.1247 33.0856C61.8331 33.0731 60.5424 33.0763 59.2528 33.095C58.707 33.1054 58.3331 33.294 58.131 33.6606C57.6206 34.5981 57.7237 35.4544 58.4403 36.2294C58.5091 36.3044 58.5445 36.3919 58.5466 36.4919C58.5653 37.22 58.3028 38.9919 59.406 39.0138C60.606 39.0388 61.907 39.0408 63.3091 39.02C63.5406 39.0159 63.7613 38.9208 63.9233 38.7553C64.0852 38.5898 64.1756 38.3672 64.1747 38.1356L64.1716 36.5044C64.1716 36.3856 64.2174 36.2898 64.3091 36.2169Z" stroke="#7E5F40" stroke-width="2"/>
<path d="M63.2462 35.3289L63.5399 35.1664C63.6442 35.1093 63.7265 35.0191 63.7738 34.9099C63.821 34.8008 63.8305 34.679 63.8007 34.5639C63.771 34.4487 63.7036 34.3468 63.6094 34.2743C63.5152 34.2017 63.3995 34.1627 63.2805 34.1633L59.4274 34.1602C59.2944 34.16 59.1658 34.2096 59.0669 34.2991C58.968 34.3886 58.9061 34.5117 58.8931 34.644C58.8802 34.7764 58.9173 34.9085 58.9971 35.0144C59.0769 35.1203 59.1936 35.1924 59.3243 35.2164C59.6639 35.2831 59.7837 35.5799 59.6837 36.107C59.6274 36.4112 59.6347 36.9612 59.7055 37.757C59.716 37.8591 59.7722 37.9102 59.8743 37.9102H62.918C62.9595 37.9102 62.9992 37.8934 63.0285 37.8635C63.0578 37.8336 63.0743 37.7931 63.0743 37.7508V35.6195C63.0742 35.5598 63.0902 35.5013 63.1204 35.4502C63.1507 35.399 63.1941 35.3571 63.2462 35.3289Z" stroke="#65482C" stroke-width="2"/>
<path d="M51.9781 45.3641C51.9781 44.3082 51.5587 43.2955 50.812 42.5489C50.0654 41.8023 49.0528 41.3828 47.9969 41.3828C46.941 41.3828 45.9283 41.8023 45.1817 42.5489C44.4351 43.2955 44.0156 44.3082 44.0156 45.3641C44.0156 46.42 44.4351 47.4326 45.1817 48.1792C45.9283 48.9259 46.941 49.3453 47.9969 49.3453C49.0528 49.3453 50.0654 48.9259 50.812 48.1792C51.5587 47.4326 51.9781 46.42 51.9781 45.3641Z" stroke="#7E5F40" stroke-width="2"/>
<path d="M38.3156 49.0953C38.3156 47.8745 37.8307 46.7037 36.9674 45.8404C36.1041 44.9772 34.9333 44.4922 33.7125 44.4922C32.4917 44.4922 31.3209 44.9772 30.4576 45.8404C29.5943 46.7037 29.1094 47.8745 29.1094 49.0953C29.1094 50.3161 29.5943 51.487 30.4576 52.3502C31.3209 53.2135 32.4917 53.6984 33.7125 53.6984C34.9333 53.6984 36.1041 53.2135 36.9674 52.3502C37.8307 51.487 38.3156 50.3161 38.3156 49.0953Z" stroke="#376E5E" stroke-width="2"/>
<path d="M66.8906 49.6656C67.0865 49.2177 67.0885 48.8656 66.8969 48.6094" stroke="black" stroke-opacity="0.761" stroke-width="2"/>
<path d="M66.9001 48.6097C66.3626 45.3753 63.2064 43.5503 60.1814 44.9909C59.1334 45.4909 58.4043 46.2784 57.9939 47.3534C56.4282 51.4503 60.7407 55.1878 64.5314 53.1097C65.7793 52.4263 66.5668 51.2784 66.8939 49.6659" stroke="#804D66" stroke-width="2"/>
<path d="M66.8969 48.6094L66.8906 49.6656" stroke="#A86586" stroke-opacity="0.761" stroke-width="2"/>
<path d="M35.1817 50.3989C35.7442 50.4082 36.2942 50.4645 36.7348 50.0864C38.016 48.9895 36.7348 47.5239 35.2473 47.8551C35.222 47.8606 35.1959 47.8607 35.1706 47.8554C35.1454 47.8501 35.1216 47.8396 35.1009 47.8245C35.0801 47.8094 35.063 47.7901 35.0505 47.7679C35.038 47.7457 35.0305 47.7211 35.0285 47.6957C34.9942 47.3145 35.0629 46.8864 34.9723 46.5739C34.6067 45.3114 32.5785 45.352 32.491 46.4989C32.4619 46.8718 32.4473 47.2603 32.4473 47.6645C32.4452 47.7749 32.389 47.8291 32.2785 47.827C31.7254 47.8145 31.1504 47.727 30.7098 48.1114C29.9254 48.7926 30.1379 49.9989 31.1535 50.3082C31.4973 50.4124 31.8629 50.4364 32.2504 50.3801C32.2757 50.3765 32.3015 50.3783 32.326 50.3855C32.3504 50.3927 32.373 50.405 32.3921 50.4217C32.4111 50.4384 32.4262 50.459 32.4363 50.482C32.4464 50.5051 32.4512 50.53 32.4504 50.5551C32.4348 51.1645 32.3473 51.7489 32.8067 52.202C33.2421 52.6312 33.74 52.7072 34.3004 52.4301C35.0442 52.0645 35.0785 51.3239 34.9973 50.5957C34.9827 50.4603 35.0442 50.3947 35.1817 50.3989Z" stroke="#376E5E" stroke-width="2"/>
<path d="M58.8641 47.4844C58.7537 47.9573 58.7651 48.3802 58.8985 48.7531" stroke="#A86586" stroke-opacity="0.761" stroke-width="2"/>
<path d="M58.8938 48.7539C59.225 49.6977 60.9656 51.1445 61.7406 51.8945C61.8844 52.0328 62.0758 52.1105 62.2753 52.1117C62.4748 52.1128 62.6671 52.0373 62.8125 51.9008C63.6781 51.0914 65.5094 49.5633 65.775 48.4414C66.2 46.6289 63.9687 45.4039 62.4562 46.5914C62.3771 46.6539 62.2958 46.6591 62.2125 46.607C60.7354 45.6904 59.6177 45.9831 58.8594 47.4852" stroke="#804D66" stroke-width="2"/>
<path d="M58.8938 48.7531L58.8594 47.4844" stroke="black" stroke-opacity="0.761" stroke-width="2"/>
<path d="M34.0563 48.8477C34.0313 48.8455 34.0078 48.8346 33.9901 48.8169C33.9724 48.7992 33.9615 48.7758 33.9594 48.7508L33.8281 46.8914C33.8281 46.8632 33.8169 46.8362 33.797 46.8163C33.7771 46.7963 33.7501 46.7852 33.7219 46.7852C33.6937 46.7852 33.6667 46.7963 33.6467 46.8163C33.6268 46.8362 33.6156 46.8632 33.6156 46.8914L33.4844 48.7508C33.4823 48.7758 33.4714 48.7992 33.4536 48.8169C33.4359 48.8346 33.4125 48.8455 33.3875 48.8477L31.5281 48.9789C31.4999 48.9789 31.4729 48.9901 31.453 49.01C31.4331 49.03 31.4219 49.057 31.4219 49.0852C31.4219 49.1133 31.4331 49.1404 31.453 49.1603C31.4729 49.1802 31.4999 49.1914 31.5281 49.1914L33.3875 49.3227C33.4125 49.3248 33.4359 49.3357 33.4536 49.3534C33.4714 49.3711 33.4823 49.3945 33.4844 49.4195L33.6156 51.2789C33.6156 51.3071 33.6268 51.3341 33.6467 51.354C33.6667 51.374 33.6937 51.3852 33.7219 51.3852C33.7501 51.3852 33.7771 51.374 33.797 51.354C33.8169 51.3341 33.8281 51.3071 33.8281 51.2789L33.9594 49.4195C33.9615 49.3945 33.9724 49.3711 33.9901 49.3534C34.0078 49.3357 34.0313 49.3248 34.0563 49.3227L35.9156 49.1914C35.9438 49.1914 35.9708 49.1802 35.9908 49.1603C36.0107 49.1404 36.0219 49.1133 36.0219 49.0852C36.0219 49.057 36.0107 49.03 35.9908 49.01C35.9708 48.9901 35.9438 48.9789 35.9156 48.9789L34.0563 48.8477Z" stroke="#376E5E" stroke-width="2"/>
<path d="M62.676 47.8876C62.1822 48.0459 61.7926 47.9241 61.5072 47.522C61.4661 47.4643 61.4128 47.4163 61.351 47.3814C60.2228 46.7501 59.4041 47.9251 60.3322 48.8845C60.9364 49.5053 61.5551 50.1272 62.1885 50.7501C62.2032 50.7645 62.2206 50.7759 62.2398 50.7836C62.2589 50.7913 62.2794 50.7951 62.3 50.7948C62.3207 50.7945 62.341 50.7901 62.36 50.7819C62.3789 50.7737 62.396 50.7618 62.4103 50.747L64.5353 48.5939C64.6147 48.5134 64.6748 48.416 64.7112 48.3091C64.7476 48.2022 64.7594 48.0884 64.7455 47.9765C64.7317 47.8646 64.6926 47.7574 64.6313 47.663C64.57 47.5685 64.488 47.4893 64.3916 47.4314C63.7791 47.0605 63.2687 47.1668 62.8603 47.7501C62.8159 47.8149 62.751 47.8632 62.676 47.8876Z" stroke="#6F2E4E" stroke-width="2"/>
<path d="M51.9727 57.1606C52.1873 56.9168 52.4362 56.8866 52.7196 57.07C52.7847 57.1111 52.8383 57.1679 52.8755 57.2351C52.9127 57.3023 52.9321 57.3778 52.9321 57.4543V61.9731C52.9321 62.1231 53.0071 62.1981 53.1571 62.1981H55.4102C55.4824 62.1981 55.5517 62.1701 55.6036 62.12C55.6555 62.0698 55.6859 62.0015 55.6883 61.9293C55.8008 58.5293 56.3883 54.5168 52.4821 52.8387C51.73 52.5158 50.5383 52.3252 48.9071 52.2668C45.4821 52.1418 42.3039 52.295 40.7414 55.5168C40.4685 56.0814 40.3258 56.8075 40.3133 57.695C40.2925 59.072 40.2914 60.4804 40.3102 61.92C40.311 61.994 40.3407 62.0647 40.3928 62.1168C40.4448 62.1689 40.5151 62.1981 40.5883 62.1981L42.9164 62.2012C43.0164 62.2012 43.0664 62.1512 43.0664 62.0512L43.0602 57.3012C43.0601 57.2427 43.0808 57.1861 43.1186 57.1415C43.1564 57.0969 43.2088 57.0671 43.2664 57.0575L43.7196 56.9825C43.7699 56.9738 43.8216 56.9764 43.8709 56.99C43.9202 57.0036 43.966 57.0279 44.005 57.0613C44.044 57.0947 44.0753 57.1362 44.0967 57.1831C44.1182 57.2299 44.1292 57.2809 44.1289 57.3325L44.1196 61.9825C44.1196 62.1262 44.1925 62.1981 44.3383 62.1981L51.6727 62.2012C51.7233 62.2012 51.7717 62.1808 51.8075 62.1445C51.8432 62.1081 51.8633 62.0588 51.8633 62.0075V57.4512C51.8633 57.3408 51.8998 57.2439 51.9727 57.1606Z" stroke="#004965" stroke-width="2"/>
<path d="M42.6931 29.5066C42.2588 29.7004 41.5119 30.5504 41.0713 29.9597C41.0263 29.8997 40.994 29.8311 40.9764 29.7582C40.9588 29.6853 40.9562 29.6095 40.9688 29.5356C40.9813 29.4616 41.0088 29.391 41.0495 29.328C41.0903 29.265 41.1434 29.2109 41.2056 29.1691L47.5275 24.8566C47.6668 24.7617 47.8316 24.7109 48.0004 24.7109C48.1693 24.7109 48.3344 24.7617 48.4744 24.8566C50.5348 26.2504 52.6181 27.6545 54.7244 29.0691C55.0098 29.2608 55.1036 29.5264 55.0056 29.866C54.9848 29.9375 54.9474 30.003 54.8965 30.0574C54.8456 30.1118 54.7826 30.1534 54.7126 30.179C54.6427 30.2045 54.5677 30.2133 54.4937 30.2045C54.4198 30.1957 54.3489 30.1697 54.2869 30.1285L53.2994 29.4754C53.1994 29.4108 53.1494 29.4379 53.1494 29.5566V34.7972C53.1494 35.0484 53.05 35.2892 52.873 35.4668C52.696 35.6443 52.4559 35.7441 52.2056 35.7441H43.84C43.5789 35.7441 43.3286 35.6404 43.144 35.4558C42.9593 35.2712 42.8556 35.0208 42.8556 34.7597L42.8525 29.6129C42.8525 29.4941 42.7994 29.4587 42.6931 29.5066ZM46.015 34.6222L46.0025 32.6472C45.7181 30.4129 48.54 29.366 49.7181 31.1972C50.2463 32.0191 50.0338 33.4566 50.0431 34.4691C50.044 34.5258 50.067 34.5798 50.1074 34.6196C50.1477 34.6593 50.2021 34.6816 50.2588 34.6816L51.84 34.6754C51.8972 34.6754 51.952 34.6526 51.9925 34.6122C52.0329 34.5718 52.0556 34.5169 52.0556 34.4597L52.0525 28.7722C52.0525 28.724 52.0408 28.6767 52.0184 28.6342C51.9961 28.5917 51.9638 28.5554 51.9244 28.5285L48.165 25.9722C48.1198 25.941 48.0661 25.9243 48.0109 25.9243C47.9557 25.9243 47.9015 25.941 47.8556 25.9722L44.0838 28.541C43.9963 28.5993 43.9525 28.6806 43.9525 28.7847V34.4816C43.9525 34.592 44.0077 34.6472 44.1181 34.6472L46.015 34.6222ZM47.1869 34.6785H48.8119C48.8503 34.6785 48.8872 34.6634 48.9147 34.6366C48.9421 34.6097 48.9579 34.5731 48.9588 34.5347L48.9619 32.5004C48.9623 32.3551 48.939 32.2111 48.8932 32.0768C48.8474 31.9424 48.7801 31.8202 48.695 31.7172C48.61 31.6142 48.5089 31.5323 48.3976 31.4764C48.2863 31.4204 48.1669 31.3914 48.0463 31.391H47.965C47.7214 31.3902 47.4873 31.5059 47.3145 31.7128C47.1416 31.9197 47.044 32.2007 47.0431 32.4941L47.04 34.5285C47.0396 34.548 47.0431 34.5675 47.0503 34.5856C47.0575 34.6038 47.0682 34.6204 47.0819 34.6344C47.0956 34.6483 47.1119 34.6594 47.1299 34.667C47.148 34.6746 47.1673 34.6785 47.1869 34.6785Z" fill="black"/>
<path d="M46.0031 32.6487L46.0156 34.6237L44.1187 34.6487C44.0083 34.6487 43.9531 34.5935 43.9531 34.4831V28.7862C43.9531 28.6821 43.9969 28.6008 44.0844 28.5425L47.8562 25.9737C47.9021 25.9425 47.9563 25.9258 48.0115 25.9258C48.0667 25.9258 48.1204 25.9425 48.1656 25.9737L51.925 28.53C51.9644 28.5569 51.9967 28.5932 52.019 28.6357C52.0414 28.6782 52.0531 28.7255 52.0531 28.7737L52.0562 34.4612C52.0562 34.5184 52.0335 34.5733 51.9931 34.6137C51.9527 34.6541 51.8978 34.6769 51.8406 34.6769L50.2594 34.6831C50.2027 34.6831 50.1483 34.6608 50.108 34.6211C50.0676 34.5813 50.0446 34.5273 50.0437 34.4706C50.0344 33.4581 50.2469 32.0206 49.7187 31.1987C48.5406 29.3675 45.7187 30.4144 46.0031 32.6487Z" fill="#00CEF2"/>
<path d="M40.3406 36.0414C40.3406 37.5556 39.7391 39.0078 38.6684 40.0785C37.5977 41.1493 36.1455 41.7508 34.6312 41.7508C33.117 41.7508 31.6648 41.1493 30.5941 40.0785C29.5234 39.0078 28.9219 37.5556 28.9219 36.0414C28.9219 34.5272 29.5234 33.075 30.5941 32.0043C31.6648 30.9336 33.117 30.332 34.6312 30.332C36.1455 30.332 37.5977 30.9336 38.6684 32.0043C39.7391 33.075 40.3406 34.5272 40.3406 36.0414ZM30.0375 35.3195C29.8354 35.7633 29.8354 36.2372 30.0375 36.7414C30.8594 40.5977 35.5312 42.1477 38.1625 38.9445C40.05 36.6508 39.3344 33.3195 36.7406 31.932C33.9031 30.4133 30.7313 32.2727 30.0375 35.3195Z" fill="black"/>
<path d="M67.0766 36.0422C67.0766 37.5556 66.4754 39.007 65.4052 40.0771C64.3351 41.1472 62.8837 41.7484 61.3703 41.7484C59.8569 41.7484 58.4055 41.1472 57.3354 40.0771C56.2653 39.007 55.6641 37.5556 55.6641 36.0422C55.6641 34.5288 56.2653 33.0774 57.3354 32.0073C58.4055 30.9371 59.8569 30.3359 61.3703 30.3359C62.8837 30.3359 64.3351 30.9371 65.4052 32.0073C66.4754 33.0774 67.0766 34.5288 67.0766 36.0422ZM65.9266 37.0266C66.1807 36.4411 66.1943 35.8734 65.9672 35.3234C65.5255 33.5484 64.5526 32.3651 63.0484 31.7734C59.5016 30.3766 55.9641 33.6422 56.9078 37.2141C57.4297 39.1766 59.1109 40.5172 61.1609 40.6078C63.4693 40.712 65.0578 39.5182 65.9266 37.0266Z" fill="black"/>
<path d="M47.186 34.6781C47.1664 34.6781 47.1471 34.6742 47.129 34.6667C47.111 34.6591 47.0947 34.648 47.081 34.634C47.0673 34.62 47.0566 34.6035 47.0494 34.5853C47.0422 34.5671 47.0387 34.5477 47.0391 34.5281L47.0422 32.4938C47.0431 32.2004 47.1407 31.9193 47.3136 31.7125C47.4864 31.5056 47.7204 31.3898 47.9641 31.3906H48.0453C48.166 31.391 48.2854 31.42 48.3967 31.476C48.508 31.532 48.6091 31.6138 48.6941 31.7168C48.7791 31.8198 48.8465 31.942 48.8923 32.0764C48.938 32.2108 48.9614 32.3547 48.961 32.5L48.9578 34.5344C48.957 34.5728 48.9412 34.6093 48.9137 34.6362C48.8863 34.6631 48.8494 34.6781 48.811 34.6781H47.186Z" fill="#00CEF2"/>
<path d="M30.0312 36.7402V35.3183C30.725 32.2714 33.8969 30.4121 36.7344 31.9308C39.3281 33.3183 40.0437 36.6496 38.1562 38.9433C35.525 42.1464 30.8531 40.5964 30.0312 36.7402ZM32.9406 34.2152C32.7969 34.6277 32.8052 35.0589 32.9656 35.5089C33.3219 36.2173 33.9531 36.5954 34.8594 36.6433C34.951 36.6496 35.0281 36.6871 35.0906 36.7558C35.3677 37.0662 35.3844 37.3996 35.1406 37.7558C35.0923 37.8281 35.0175 37.8795 34.9313 37.8996C34.425 38.0266 34.076 37.8475 33.8844 37.3621C33.8448 37.2579 33.7708 37.1954 33.6625 37.1746C33.3083 37.1058 33.0646 37.2225 32.9312 37.5246C32.8833 37.6308 32.8802 37.7371 32.9219 37.8433C33.1302 38.3954 33.5365 38.7954 34.1406 39.0433C34.0385 39.385 34.0688 39.6516 34.2313 39.8433C34.4563 40.0246 34.6719 40.06 34.8781 39.9496C35.1719 39.7902 35.1687 39.4621 35.1812 39.1621C35.1875 39.0537 35.2396 38.9756 35.3375 38.9277C37.0906 38.0683 36.5437 35.4246 34.5844 35.4996C34.4828 35.5034 34.3818 35.4827 34.29 35.4392C34.1981 35.3956 34.118 35.3305 34.0565 35.2494C33.9949 35.1682 33.9537 35.0733 33.9362 34.9728C33.9188 34.8722 33.9257 34.7689 33.9562 34.6714C34.2219 33.8402 35.0406 34.0433 35.3812 34.6871C35.4384 34.7926 35.5308 34.8804 35.6425 34.9356C35.7542 34.9908 35.8783 35.0099 35.9936 34.9896C36.1088 34.9693 36.2081 34.9108 36.2742 34.8243C36.3404 34.7377 36.3694 34.6284 36.3562 34.5152C36.2771 33.8819 35.9375 33.4329 35.3375 33.1683C35.2542 33.1329 35.2063 33.0704 35.1938 32.9808L35.1188 32.4183C35.1047 32.2897 35.0424 32.1713 34.9442 32.0871C34.8461 32.0028 34.7197 31.959 34.5904 31.9646C34.4612 31.9701 34.339 32.0247 34.2485 32.117C34.158 32.2094 34.106 32.3328 34.1031 32.4621L34.0812 32.9183C34.0793 32.9629 34.0659 33.0061 34.0423 33.0434C34.0187 33.0807 33.9857 33.1109 33.9469 33.1308C33.4448 33.3912 33.1094 33.7527 32.9406 34.2152Z" fill="#FEA832"/>
<path d="M65.9641 35.3217L65.9235 37.0248C65.0547 39.5165 63.4662 40.7103 61.1579 40.6061C59.1079 40.5155 57.4266 39.1748 56.9047 37.2123C55.961 33.6405 59.4985 30.3748 63.0454 31.7717C64.5495 32.3634 65.5225 33.5467 65.9641 35.3217ZM64.3047 36.2155C64.661 35.928 64.836 35.4509 64.8297 34.7842C64.8172 33.528 64.4079 33.0936 63.1204 33.0842C61.8287 33.0717 60.5381 33.0748 59.2485 33.0936C58.7027 33.104 58.3287 33.2926 58.1266 33.6592C57.6162 34.5967 57.7193 35.453 58.436 36.228C58.5047 36.303 58.5402 36.3905 58.5422 36.4905C58.561 37.2186 58.2985 38.9905 59.4016 39.0123C60.6016 39.0373 61.9027 39.0394 63.3047 39.0186C63.5363 39.0145 63.7569 38.9194 63.9189 38.7539C64.0809 38.5884 64.1712 38.3658 64.1704 38.1342L64.1672 36.503C64.1672 36.3842 64.2131 36.2884 64.3047 36.2155Z" fill="#FBBD80"/>
<path d="M34.2369 39.844C34.2577 39.5524 34.2275 39.2857 34.1463 39.044C33.5421 38.7961 33.1358 38.3961 32.9275 37.844C32.8858 37.7378 32.889 37.6315 32.9369 37.5253C33.0702 37.2232 33.314 37.1065 33.6681 37.1753C33.7765 37.1961 33.8504 37.2586 33.89 37.3628C34.0817 37.8482 34.4306 38.0274 34.9369 37.9003C35.0231 37.8802 35.098 37.8288 35.1463 37.7565C35.39 37.4003 35.3733 37.067 35.0963 36.7565C35.0338 36.6878 34.9567 36.6503 34.865 36.644C33.9588 36.5961 33.3275 36.218 32.9713 35.5097L32.9463 34.2159C33.115 33.7534 33.4504 33.392 33.9525 33.1315C33.9914 33.1116 34.0243 33.0815 34.0479 33.0441C34.0715 33.0068 34.0849 32.9636 34.0869 32.919L34.1088 32.4628C34.1117 32.3335 34.1636 32.2102 34.2541 32.1178C34.3446 32.0254 34.4669 31.9709 34.5961 31.9653C34.7253 31.9598 34.8518 32.0035 34.9499 32.0878C35.048 32.1721 35.1104 32.2905 35.1244 32.419L35.1994 32.9815C35.2119 33.0711 35.2598 33.1336 35.3431 33.169C35.9431 33.4336 36.2827 33.8826 36.3619 34.5159C36.375 34.6292 36.346 34.7385 36.2799 34.825C36.2137 34.9116 36.1145 34.97 35.9992 34.9903C35.884 35.0106 35.7598 34.9916 35.6481 34.9364C35.5364 34.8812 35.444 34.7933 35.3869 34.6878C35.0463 34.044 34.2275 33.8409 33.9619 34.6722C33.9313 34.7696 33.9244 34.8729 33.9419 34.9735C33.9593 35.0741 34.0005 35.1689 34.0621 35.2501C34.1236 35.3313 34.2037 35.3964 34.2956 35.4399C34.3875 35.4834 34.4884 35.5042 34.59 35.5003C36.5494 35.4253 37.0963 38.069 35.3431 38.9284C35.2452 38.9763 35.1931 39.0545 35.1869 39.1628C35.1744 39.4628 35.1775 39.7909 34.8838 39.9503C34.6775 40.0607 34.4619 40.0253 34.2369 39.844Z" fill="black"/>
<path d="M64.1716 36.5044L64.1747 38.1356C64.1756 38.3672 64.0852 38.5898 63.9233 38.7553C63.7613 38.9208 63.5406 39.0159 63.3091 39.02C61.907 39.0408 60.606 39.0388 59.406 39.0138C58.3028 38.9919 58.5653 37.22 58.5466 36.4919C58.5445 36.3919 58.5091 36.3044 58.4403 36.2294C57.7237 35.4544 57.6206 34.5981 58.131 33.6606C58.3331 33.294 58.707 33.1054 59.2528 33.095C60.5424 33.0763 61.8331 33.0731 63.1247 33.0856C64.4122 33.095 64.8216 33.5294 64.8341 34.7856C64.8403 35.4523 64.6653 35.9294 64.3091 36.2169C64.2174 36.2898 64.1716 36.3856 64.1716 36.5044ZM63.2528 35.3294L63.5466 35.1669C63.6509 35.1098 63.7332 35.0195 63.7804 34.9104C63.8277 34.8013 63.8372 34.6795 63.8074 34.5643C63.7776 34.4492 63.7103 34.3473 63.6161 34.2747C63.5219 34.2022 63.4061 34.1631 63.2872 34.1638L59.4341 34.1606C59.301 34.1605 59.1724 34.21 59.0736 34.2996C58.9747 34.3891 58.9127 34.5121 58.8998 34.6445C58.8869 34.7768 58.924 34.9089 59.0037 35.0149C59.0835 35.1208 59.2002 35.1928 59.331 35.2169C59.6706 35.2835 59.7903 35.5804 59.6903 36.1075C59.6341 36.4117 59.6414 36.9617 59.7122 37.7575C59.7226 37.8596 59.7789 37.9106 59.881 37.9106H62.9247C62.9662 37.9106 63.0059 37.8938 63.0352 37.8639C63.0645 37.8341 63.081 37.7935 63.081 37.7513V35.62C63.0809 35.5603 63.0968 35.5018 63.1271 35.4506C63.1574 35.3995 63.2008 35.3576 63.2528 35.3294Z" fill="black"/>
<path d="M63.0743 35.6195V37.7508C63.0743 37.7931 63.0578 37.8336 63.0285 37.8635C62.9992 37.8934 62.9595 37.9102 62.918 37.9102H59.8743C59.7722 37.9102 59.716 37.8591 59.7055 37.757C59.6347 36.9612 59.6274 36.4112 59.6837 36.107C59.7837 35.5799 59.6639 35.2831 59.3243 35.2164C59.1936 35.1924 59.0769 35.1203 58.9971 35.0144C58.9173 34.9085 58.8802 34.7764 58.8931 34.644C58.9061 34.5117 58.968 34.3886 59.0669 34.2991C59.1658 34.2096 59.2944 34.16 59.4274 34.1602L63.2805 34.1633C63.3995 34.1627 63.5152 34.2017 63.6094 34.2743C63.7036 34.3468 63.771 34.4487 63.8007 34.5639C63.8305 34.679 63.821 34.8008 63.7738 34.9099C63.7265 35.0191 63.6442 35.1093 63.5399 35.1664L63.2462 35.3289C63.1941 35.3571 63.1507 35.399 63.1204 35.4502C63.0902 35.5013 63.0742 35.5598 63.0743 35.6195Z" fill="#C99057"/>
<path d="M32.9457 34.2148L32.9707 35.5086C32.8102 35.0586 32.8019 34.6273 32.9457 34.2148Z" fill="black" fill-opacity="0.518"/>
<path d="M30.0344 35.3203V36.7422C29.8323 36.238 29.8323 35.7641 30.0344 35.3203Z" fill="black" fill-opacity="0.518"/>
<path d="M65.9625 35.3203C66.1896 35.8703 66.176 36.438 65.9219 37.0234L65.9625 35.3203Z" fill="black" fill-opacity="0.518"/>
<path d="M48.0188 36.5117H47.975C47.6868 36.5117 47.4531 36.7454 47.4531 37.0336V38.9211C47.4531 39.2093 47.6868 39.443 47.975 39.443H48.0188C48.307 39.443 48.5406 39.2093 48.5406 38.9211V37.0336C48.5406 36.7454 48.307 36.5117 48.0188 36.5117Z" fill="black"/>
<path d="M43.2373 40.4466L40.9169 39.0907C40.6651 38.9435 40.3416 39.0284 40.1945 39.2802L40.1756 39.3126C40.0284 39.5644 40.1133 39.8879 40.3651 40.035L42.6855 41.3909C42.9373 41.5381 43.2607 41.4532 43.4079 41.2014L43.4268 41.169C43.574 40.9172 43.4891 40.5937 43.2373 40.4466Z" fill="black"/>
<path d="M55.0761 39.0934L52.7533 40.4453C52.5012 40.592 52.4158 40.9153 52.5625 41.1674L52.5814 41.1998C52.7281 41.4519 53.0514 41.5373 53.3035 41.3906L55.6262 40.0387C55.8783 39.892 55.9637 39.5687 55.817 39.3166L55.7982 39.2842C55.6514 39.0321 55.3281 38.9467 55.0761 39.0934Z" fill="black"/>
<path d="M34.145 39.043C34.2263 39.2846 34.2565 39.5513 34.2356 39.843C34.0731 39.6513 34.0429 39.3846 34.145 39.043Z" fill="black" fill-opacity="0.518"/>
<path d="M53.0891 45.3609C53.0891 46.7102 52.5531 48.0043 51.599 48.9583C50.6449 49.9124 49.3509 50.4484 48.0016 50.4484C46.6523 50.4484 45.3582 49.9124 44.4042 48.9583C43.4501 48.0043 42.9141 46.7102 42.9141 45.3609C42.9141 44.0116 43.4501 42.7176 44.4042 41.7635C45.3582 40.8094 46.6523 40.2734 48.0016 40.2734C49.3509 40.2734 50.6449 40.8094 51.599 41.7635C52.5531 42.7176 53.0891 44.0116 53.0891 45.3609ZM51.9828 45.3609C51.9828 44.305 51.5634 43.2924 50.8167 42.5458C50.0701 41.7991 49.0575 41.3797 48.0016 41.3797C46.9457 41.3797 45.933 41.7991 45.1864 42.5458C44.4398 43.2924 44.0203 44.305 44.0203 45.3609C44.0203 46.4168 44.4398 47.4295 45.1864 48.1761C45.933 48.9227 46.9457 49.3422 48.0016 49.3422C49.0575 49.3422 50.0701 48.9227 50.8167 48.1761C51.5634 47.4295 51.9828 46.4168 51.9828 45.3609Z" fill="black"/>
<path d="M47.9969 49.3453C50.1957 49.3453 51.9781 47.5628 51.9781 45.3641C51.9781 43.1653 50.1957 41.3828 47.9969 41.3828C45.7981 41.3828 44.0156 43.1653 44.0156 45.3641C44.0156 47.5628 45.7981 49.3453 47.9969 49.3453Z" fill="#FBBD80"/>
<path d="M28 49.664V48.4578C28.2771 46.7557 29.0156 45.4619 30.2156 44.5765C34.3313 41.5359 40.1875 44.8297 39.3688 49.9672C38.3188 56.5547 28.9906 56.2828 28 49.664ZM38.3156 49.0953C38.3156 47.8745 37.8307 46.7036 36.9674 45.8404C36.1041 44.9771 34.9333 44.4922 33.7125 44.4922C32.4917 44.4922 31.3209 44.9771 30.4576 45.8404C29.5943 46.7036 29.1094 47.8745 29.1094 49.0953C29.1094 50.3161 29.5943 51.4869 30.4576 52.3502C31.3209 53.2134 32.4917 53.6984 33.7125 53.6984C34.9333 53.6984 36.1041 53.2134 36.9674 52.3502C37.8307 51.4869 38.3156 50.3161 38.3156 49.0953Z" fill="black"/>
<path d="M67.9999 48.4917V49.6355C67.427 52.573 65.826 54.2584 63.1968 54.6917C60.978 55.0542 58.6843 54.1261 57.503 52.2292C54.403 47.2449 59.5874 41.4449 64.8812 43.998C66.6187 44.8355 67.6582 46.3334 67.9999 48.4917ZM66.8937 49.6667C67.0895 49.2188 67.0916 48.8667 66.8999 48.6105C66.3624 45.3761 63.2062 43.5511 60.1812 44.9917C59.1332 45.4917 58.4041 46.2792 57.9937 47.3542C56.428 51.4511 60.7405 55.1886 64.5312 53.1105C65.7791 52.4271 66.5666 51.2792 66.8937 49.6667Z" fill="black"/>
<path d="M38.3156 49.0953C38.3156 50.3161 37.8307 51.487 36.9674 52.3502C36.1041 53.2135 34.9333 53.6984 33.7125 53.6984C32.4917 53.6984 31.3209 53.2135 30.4576 52.3502C29.5943 51.487 29.1094 50.3161 29.1094 49.0953C29.1094 47.8745 29.5943 46.7037 30.4576 45.8404C31.3209 44.9772 32.4917 44.4922 33.7125 44.4922C34.9333 44.4922 36.1041 44.9772 36.9674 45.8404C37.8307 46.7037 38.3156 47.8745 38.3156 49.0953ZM35.1781 50.3984C35.7406 50.4078 36.2906 50.4641 36.7312 50.0859C38.0125 48.9891 36.7312 47.5234 35.2437 47.8547C35.2185 47.8602 35.1923 47.8603 35.1671 47.855C35.1418 47.8497 35.118 47.8391 35.0973 47.824C35.0766 47.8089 35.0594 47.7896 35.047 47.7674C35.0345 47.7452 35.027 47.7206 35.025 47.6953C34.9906 47.3141 35.0594 46.8859 34.9687 46.5734C34.6031 45.3109 32.575 45.3516 32.4875 46.4984C32.4583 46.8714 32.4437 47.2599 32.4437 47.6641C32.4417 47.7745 32.3854 47.8286 32.275 47.8266C31.7219 47.8141 31.1469 47.7266 30.7062 48.1109C29.9219 48.7922 30.1344 49.9984 31.15 50.3078C31.4937 50.412 31.8594 50.4359 32.2469 50.3797C32.2722 50.376 32.298 50.3779 32.3224 50.385C32.3469 50.3922 32.3695 50.4046 32.3885 50.4213C32.4076 50.438 32.4227 50.4586 32.4328 50.4816C32.4429 50.5046 32.4477 50.5296 32.4469 50.5547C32.4312 51.1641 32.3437 51.7484 32.8031 52.2016C33.2385 52.6307 33.7365 52.7068 34.2969 52.4297C35.0406 52.0641 35.075 51.3234 34.9937 50.5953C34.9792 50.4599 35.0406 50.3943 35.1781 50.3984Z" fill="#6EDBBB"/>
<path d="M66.9001 48.6097L66.8939 49.6659C66.5668 51.2784 65.7793 52.4263 64.5314 53.1097C60.7407 55.1878 56.4282 51.4503 57.9939 47.3534C58.4043 46.2784 59.1334 45.4909 60.1814 44.9909C63.2064 43.5503 66.3626 45.3753 66.9001 48.6097ZM58.8626 47.4847C58.7522 47.9576 58.7637 48.3805 58.897 48.7534C59.2282 49.6972 60.9689 51.144 61.7439 51.894C61.8877 52.0323 62.0791 52.11 62.2786 52.1111C62.478 52.1123 62.6703 52.0368 62.8157 51.9003C63.6814 51.0909 65.5126 49.5628 65.7782 48.4409C66.2032 46.6284 63.972 45.4034 62.4595 46.5909C62.3803 46.6534 62.2991 46.6586 62.2157 46.6065C60.7387 45.6899 59.6209 45.9826 58.8626 47.4847Z" fill="#FF99CC"/>
<path d="M34.9973 50.5918C35.0785 51.32 35.0442 52.0606 34.3004 52.4262C33.74 52.7033 33.2421 52.6273 32.8067 52.1981C32.3473 51.745 32.4348 51.1606 32.4504 50.5512C32.4512 50.5261 32.4464 50.5012 32.4363 50.4781C32.4262 50.4551 32.4111 50.4345 32.3921 50.4178C32.373 50.4011 32.3504 50.3888 32.326 50.3816C32.3015 50.3744 32.2757 50.3726 32.2504 50.3762C31.8629 50.4325 31.4973 50.4085 31.1535 50.3043C30.1379 49.995 29.9254 48.7887 30.7098 48.1075C31.1504 47.7231 31.7254 47.8106 32.2785 47.8231C32.389 47.8252 32.4452 47.771 32.4473 47.6606C32.4473 47.2564 32.4619 46.8679 32.491 46.495C32.5785 45.3481 34.6067 45.3075 34.9723 46.57C35.0629 46.8825 34.9942 47.3106 35.0285 47.6918C35.0305 47.7172 35.038 47.7418 35.0505 47.764C35.063 47.7862 35.0801 47.8055 35.1009 47.8206C35.1216 47.8357 35.1454 47.8462 35.1706 47.8515C35.1959 47.8568 35.222 47.8567 35.2473 47.8512C36.7348 47.52 38.016 48.9856 36.7348 50.0825C36.2942 50.4606 35.7442 50.4043 35.1817 50.395C35.0442 50.3908 34.9827 50.4564 34.9973 50.5918ZM34.0598 48.845C34.0348 48.8428 34.0114 48.832 33.9936 48.8142C33.9759 48.7965 33.965 48.7731 33.9629 48.7481L33.8317 46.8887C33.8317 46.8605 33.8205 46.8335 33.8005 46.8136C33.7806 46.7937 33.7536 46.7825 33.7254 46.7825C33.6972 46.7825 33.6702 46.7937 33.6503 46.8136C33.6304 46.8335 33.6192 46.8605 33.6192 46.8887L33.4879 48.7481C33.4858 48.7731 33.4749 48.7965 33.4572 48.8142C33.4394 48.832 33.416 48.8428 33.391 48.845L31.5317 48.9762C31.5035 48.9762 31.4765 48.9874 31.4565 49.0073C31.4366 49.0273 31.4254 49.0543 31.4254 49.0825C31.4254 49.1106 31.4366 49.1377 31.4565 49.1576C31.4765 49.1775 31.5035 49.1887 31.5317 49.1887L33.391 49.32C33.416 49.3221 33.4394 49.333 33.4572 49.3507C33.4749 49.3684 33.4858 49.3919 33.4879 49.4168L33.6192 51.2762C33.6192 51.3044 33.6304 51.3314 33.6503 51.3513C33.6702 51.3713 33.6972 51.3825 33.7254 51.3825C33.7536 51.3825 33.7806 51.3713 33.8005 51.3513C33.8205 51.3314 33.8317 51.3044 33.8317 51.2762L33.9629 49.4168C33.965 49.3919 33.9759 49.3684 33.9936 49.3507C34.0114 49.333 34.0348 49.3221 34.0598 49.32L35.9192 49.1887C35.9473 49.1887 35.9744 49.1775 35.9943 49.1576C36.0142 49.1377 36.0254 49.1106 36.0254 49.0825C36.0254 49.0543 36.0142 49.0273 35.9943 49.0073C35.9744 48.9874 35.9473 48.9762 35.9192 48.9762L34.0598 48.845Z" fill="black"/>
<path d="M58.8938 48.7539L58.8594 47.4852C59.6177 45.9831 60.7354 45.6904 62.2125 46.607C62.2958 46.6591 62.3771 46.6539 62.4562 46.5914C63.9687 45.4039 66.2 46.6289 65.775 48.4414C65.5094 49.5633 63.6781 51.0914 62.8125 51.9008C62.6671 52.0373 62.4748 52.1128 62.2753 52.1117C62.0758 52.1105 61.8844 52.0328 61.7406 51.8945C60.9656 51.1445 59.225 49.6977 58.8938 48.7539ZM62.675 47.8883C62.1812 48.0466 61.7917 47.9247 61.5063 47.5227C61.4651 47.465 61.4118 47.417 61.35 47.382C60.2219 46.7508 59.4031 47.9258 60.3312 48.8852C60.9354 49.506 61.5542 50.1279 62.1875 50.7508C62.2022 50.7652 62.2197 50.7766 62.2388 50.7843C62.258 50.7919 62.2785 50.7957 62.2991 50.7955C62.3197 50.7952 62.3401 50.7908 62.359 50.7826C62.3779 50.7744 62.3951 50.7625 62.4094 50.7477L64.5344 48.5945C64.6137 48.5141 64.6739 48.4167 64.7103 48.3098C64.7467 48.2028 64.7584 48.0891 64.7446 47.9772C64.7307 47.8653 64.6917 47.7581 64.6304 47.6636C64.5691 47.5692 64.4871 47.49 64.3906 47.432C63.7781 47.0612 63.2677 47.1675 62.8594 47.7508C62.8149 47.8155 62.7501 47.8639 62.675 47.8883Z" fill="black"/>
<path d="M34.0563 48.8477L35.9156 48.9789C35.9438 48.9789 35.9708 48.9901 35.9908 49.01C36.0107 49.03 36.0219 49.057 36.0219 49.0852C36.0219 49.1133 36.0107 49.1404 35.9908 49.1603C35.9708 49.1802 35.9438 49.1914 35.9156 49.1914L34.0563 49.3227C34.0313 49.3248 34.0078 49.3357 33.9901 49.3534C33.9724 49.3711 33.9615 49.3945 33.9594 49.4195L33.8281 51.2789C33.8281 51.3071 33.8169 51.3341 33.797 51.354C33.7771 51.374 33.7501 51.3852 33.7219 51.3852C33.6937 51.3852 33.6667 51.374 33.6467 51.354C33.6268 51.3341 33.6156 51.3071 33.6156 51.2789L33.4844 49.4195C33.4823 49.3945 33.4714 49.3711 33.4536 49.3534C33.4359 49.3357 33.4125 49.3248 33.3875 49.3227L31.5281 49.1914C31.4999 49.1914 31.4729 49.1802 31.453 49.1603C31.4331 49.1404 31.4219 49.1133 31.4219 49.0852C31.4219 49.057 31.4331 49.03 31.453 49.01C31.4729 48.9901 31.4999 48.9789 31.5281 48.9789L33.3875 48.8477C33.4125 48.8455 33.4359 48.8346 33.4536 48.8169C33.4714 48.7992 33.4823 48.7758 33.4844 48.7508L33.6156 46.8914C33.6156 46.8632 33.6268 46.8362 33.6467 46.8163C33.6667 46.7963 33.6937 46.7852 33.7219 46.7852C33.7501 46.7852 33.7771 46.7963 33.797 46.8163C33.8169 46.8362 33.8281 46.8632 33.8281 46.8914L33.9594 48.7508C33.9615 48.7758 33.9724 48.7992 33.9901 48.8169C34.0078 48.8346 34.0313 48.8455 34.0563 48.8477Z" fill="#6EDBBB"/>
<path d="M42.0768 46.7747L40.2502 47.2505C39.9696 47.3236 39.8014 47.6103 39.8745 47.8909L39.8856 47.9332C39.9586 48.2138 40.2453 48.382 40.5259 48.3089L42.3525 47.8331C42.6331 47.76 42.8013 47.4733 42.7282 47.1927L42.7172 47.1504C42.6441 46.8698 42.3574 46.7016 42.0768 46.7747Z" fill="black"/>
<path d="M55.75 47.2653L53.9285 46.7705C53.6487 46.6944 53.3602 46.8596 53.2842 47.1394L53.2728 47.1817C53.1967 47.4615 53.3619 47.7499 53.6417 47.8259L55.4632 48.3208C55.743 48.3969 56.0315 48.2317 56.1075 47.9518L56.119 47.9096C56.195 47.6298 56.0298 47.3414 55.75 47.2653Z" fill="black"/>
<path d="M62.8603 47.7501C63.2687 47.1668 63.7791 47.0605 64.3916 47.4314C64.488 47.4893 64.57 47.5685 64.6313 47.663C64.6926 47.7574 64.7317 47.8646 64.7455 47.9765C64.7594 48.0884 64.7476 48.2022 64.7112 48.3091C64.6748 48.416 64.6147 48.5134 64.5353 48.5939L62.4103 50.747C62.396 50.7618 62.3789 50.7737 62.36 50.7819C62.341 50.7901 62.3207 50.7945 62.3 50.7948C62.2794 50.7951 62.2589 50.7913 62.2398 50.7836C62.2206 50.7759 62.2032 50.7645 62.1885 50.7501C61.5551 50.1272 60.9364 49.5053 60.3322 48.8845C59.4041 47.9251 60.2228 46.7501 61.351 47.3814C61.4128 47.4163 61.4661 47.4643 61.5072 47.522C61.7926 47.9241 62.1822 48.0459 62.676 47.8876C62.751 47.8632 62.8159 47.8149 62.8603 47.7501Z" fill="#DD5B9C"/>
<path d="M58.8641 47.4844L58.8985 48.7531C58.7651 48.3802 58.7537 47.9573 58.8641 47.4844Z" fill="black" fill-opacity="0.518"/>
<path d="M66.8969 48.6094C67.0885 48.8656 67.0865 49.2177 66.8906 49.6656L66.8969 48.6094Z" fill="black" fill-opacity="0.518"/>
<path d="M40.7438 63.2992C40.3227 63.2992 39.9189 63.132 39.6212 62.8343C39.3235 62.5365 39.1562 62.1327 39.1562 61.7117V57.8461C39.1562 56.0832 39.8641 54.3926 41.1241 53.146C42.3841 51.8995 44.0931 51.1992 45.875 51.1992H50.125C51.9069 51.1992 53.6159 51.8995 54.8759 53.146C56.1359 54.3926 56.8438 56.0832 56.8438 57.8461V61.7117C56.8438 62.1327 56.6765 62.5365 56.3788 62.8343C56.0811 63.132 55.6773 63.2992 55.2563 63.2992H40.7438ZM51.9719 57.1586C52.1865 56.9148 52.4354 56.8846 52.7188 57.068C52.7839 57.1091 52.8375 57.1659 52.8747 57.2331C52.9118 57.3004 52.9313 57.3758 52.9313 57.4523V61.9711C52.9313 62.1211 53.0063 62.1961 53.1563 62.1961H55.4094C55.4815 62.1961 55.5509 62.1681 55.6028 62.118C55.6547 62.0678 55.6851 61.9995 55.6875 61.9273C55.8 58.5273 56.3875 54.5148 52.4812 52.8367C51.7292 52.5138 50.5375 52.3232 48.9063 52.2648C45.4813 52.1398 42.3031 52.293 40.7406 55.5148C40.4677 56.0794 40.325 56.8055 40.3125 57.693C40.2917 59.0701 40.2906 60.4784 40.3094 61.918C40.3102 61.992 40.3399 62.0627 40.3919 62.1148C40.444 62.1669 40.5143 62.1961 40.5875 62.1961L42.9156 62.1992C43.0156 62.1992 43.0656 62.1492 43.0656 62.0492L43.0594 57.2992C43.0593 57.2407 43.08 57.1841 43.1178 57.1395C43.1556 57.0949 43.2079 57.0651 43.2656 57.0555L43.7188 56.9805C43.7691 56.9718 43.8208 56.9744 43.8701 56.988C43.9194 57.0016 43.9652 57.0259 44.0042 57.0593C44.0432 57.0927 44.0745 57.1342 44.0959 57.1811C44.1173 57.2279 44.1283 57.2789 44.1281 57.3305L44.1188 61.9805C44.1188 62.1242 44.1917 62.1961 44.3375 62.1961L51.6719 62.1992C51.7224 62.1992 51.7709 62.1788 51.8067 62.1425C51.8424 62.1061 51.8625 62.0569 51.8625 62.0055V57.4492C51.8625 57.3388 51.899 57.2419 51.9719 57.1586Z" fill="black"/>
<path d="M51.8633 57.4512V62.0075C51.8633 62.0588 51.8432 62.1081 51.8075 62.1445C51.7717 62.1808 51.7233 62.2012 51.6727 62.2012L44.3383 62.1981C44.1925 62.1981 44.1196 62.1262 44.1196 61.9825L44.1289 57.3325C44.1292 57.2809 44.1182 57.2299 44.0967 57.1831C44.0753 57.1362 44.044 57.0947 44.005 57.0613C43.966 57.0279 43.9202 57.0036 43.8709 56.99C43.8216 56.9764 43.7699 56.9738 43.7196 56.9825L43.2664 57.0575C43.2088 57.0671 43.1564 57.0969 43.1186 57.1415C43.0808 57.1861 43.0601 57.2427 43.0602 57.3012L43.0664 62.0512C43.0664 62.1512 43.0164 62.2012 42.9164 62.2012L40.5883 62.1981C40.5151 62.1981 40.4448 62.1689 40.3928 62.1168C40.3407 62.0647 40.311 61.994 40.3102 61.92C40.2914 60.4804 40.2925 59.072 40.3133 57.695C40.3258 56.8075 40.4685 56.0814 40.7414 55.5168C42.3039 52.295 45.4821 52.1418 48.9071 52.2668C50.5383 52.3252 51.73 52.5158 52.4821 52.8387C56.3883 54.5168 55.8008 58.5293 55.6883 61.9293C55.6859 62.0015 55.6555 62.0698 55.6036 62.12C55.5517 62.1701 55.4824 62.1981 55.4102 62.1981H53.1571C53.0071 62.1981 52.9321 62.1231 52.9321 61.9731V57.4543C52.9321 57.3778 52.9127 57.3023 52.8755 57.2351C52.8383 57.1679 52.7847 57.1111 52.7196 57.07C52.4362 56.8866 52.1873 56.9168 51.9727 57.1606C51.8998 57.2439 51.8633 57.3408 51.8633 57.4512Z" fill="#0091CA"/>
</g>
<defs>
<filter id="filter0_dd_2755_42979" x="-8" y="-8" width="112" height="112" filterUnits="userSpaceOnUse" color-interpolation-filters="sRGB">
<feFlood flood-opacity="0" result="BackgroundImageFix"/>
<feColorMatrix in="SourceAlpha" type="matrix" values="0 0 0 0 0 0 0 0 0 0 0 0 0 0 0 0 0 0 127 0" result="hardAlpha"/>
<feOffset dy="4"/>
<feGaussianBlur stdDeviation="12"/>
<feComposite in2="hardAlpha" operator="out"/>
<feColorMatrix type="matrix" values="0 0 0 0 0.0862745 0 0 0 0 0.133333 0 0 0 0 0.2 0 0 0 0.04 0"/>
<feBlend mode="normal" in2="BackgroundImageFix" result="effect1_dropShadow_2755_42979"/>
<feColorMatrix in="SourceAlpha" type="matrix" values="0 0 0 0 0 0 0 0 0 0 0 0 0 0 0 0 0 0 127 0" result="hardAlpha"/>
<feOffset dy="4"/>
<feGaussianBlur stdDeviation="2"/>
<feComposite in2="hardAlpha" operator="out"/>
<feColorMatrix type="matrix" values="0 0 0 0 0.0862745 0 0 0 0 0.133333 0 0 0 0 0.2 0 0 0 0.04 0"/>
<feBlend mode="normal" in2="effect1_dropShadow_2755_42979" result="effect2_dropShadow_2755_42979"/>
<feBlend mode="normal" in="SourceGraphic" in2="effect2_dropShadow_2755_42979" result="shape"/>
</filter>
<clipPath id="clip0_2755_42979">
<rect width="40" height="40" fill="white" transform="translate(28 24)"/>
</clipPath>
</defs>
</svg>
