<svg width="32" height="32" viewBox="0 0 32 32" fill="none" xmlns="http://www.w3.org/2000/svg"> <g id="diversity_3_black_24dp 3" clip-path="url(#clip0_3310_40232)"><g id="Group"><g id="Group_2"><path id="Vector" d="M9.28727 17.6482C10.4218 17.6718 11.4736 18.2391 12.1827 19.2318C13.0455 20.4491 14.4755 21.1818 16 21.1818C17.5245 21.1818 18.9545 20.4491 19.8173 19.22C20.5264 18.2273 21.5782 17.66 22.7127 17.6363C21.8618 16.1945 18.4582 15.2727 16 15.2727C13.5536 15.2727 10.1382 16.1945 9.28727 17.6482Z" fill="#003657"/> <path id="Vector_2" d="M6.54545 17.6364C8.50727 17.6364 10.0909 16.0527 10.0909 14.0909C10.0909 12.1291 8.50727 10.5455 6.54545 10.5455C4.58364 10.5455 3 12.1291 3 14.0909C3 16.0527 4.58364 17.6364 6.54545 17.6364Z" fill="#003657"/> <path id="Vector_3" d="M25.4545 17.6364C27.4164 17.6364 29 16.0527 29 14.0909C29 12.1291 27.4164 10.5455 25.4545 10.5455C23.4927 10.5455 21.9091 12.1291 21.9091 14.0909C21.9091 16.0527 23.4927 17.6364 25.4545 17.6364Z" fill="#003657"/> <path id="Vector_4" d="M16 14.0909C17.9618 14.0909 19.5455 12.5073 19.5455 10.5455C19.5455 8.58364 17.9618 7 16 7C14.0382 7 12.4545 8.58364 12.4545 10.5455C12.4545 12.5073 14.0382 14.0909 16 14.0909Z" fill="#003657"/> <path id="Vector_5" d="M26.6364 18.8182H22.7718C21.8618 18.8182 21.1764 19.35 20.7864 19.9054C20.7391 19.9764 19.1791 22.3636 16 22.3636C14.31 22.3636 12.4191 21.6073 11.2136 19.9054C10.7527 19.2554 10.0318 18.8182 9.22818 18.8182H5.36364C4.06364 18.8182 3 19.8818 3 21.1818V25.9091H11.2727V23.2382C12.6318 24.1836 14.2745 24.7273 16 24.7273C17.7255 24.7273 19.3682 24.1836 20.7273 23.2382V25.9091H29V21.1818C29 19.8818 27.9364 18.8182 26.6364 18.8182Z" fill="#003657"/> </g></g></g><defs><clipPath id="clip0_3310_40232"><rect width="32" height="32" fill="white"/></clipPath></defs></svg>