<svg width="24" height="24" viewBox="0 0 24 24" fill="none" xmlns="http://www.w3.org/2000/svg"> <path d="M4.40239 8.38578L4.01374 9.05894L7.53171 9.98185C7.53171 9.98185 7.95365 10.0606 8.75099 10.5209C9.54832 10.9813 13.5324 12.732 18.5204 9.75943C22.9479 7.12274 23.6806 3.01226 23.6806 3.01226C23.6806 3.01226 13.6623 -1.46211 8.36849 8.77062C8.36849 8.77062 9.71678 9.05449 12.176 8.47774L14.5137 4.22236L13.0183 8.30462C13.0183 8.30462 14.2778 8.17087 16.8158 7.10842L18.4798 3.65472L17.4458 6.85853C17.4458 6.85853 19.9795 5.8669 22.7341 3.85791C22.7341 3.85791 20.6447 5.92122 17.6253 7.24608L19.6427 8.29176L16.9252 7.53795C16.9252 7.53795 15.1438 8.43278 13.2578 8.93747L15.9081 10.2203L12.1427 9.15455C12.1427 9.15455 9.05159 10.1908 4.38864 8.37785L4.40239 8.38578Z" fill="url(#paint0_linear_1912_40483)"/> <path d="M23.3351 17.774V18.1154C23.1343 19.3086 22.3879 19.5044 21.2064 20.0265C19.0643 20.9737 16.9206 21.9181 14.7751 22.8597C13.549 23.3986 12.6414 23.7043 12.0524 23.7768C9.64921 24.073 7.96399 22.7192 5.99428 21.5979C5.58371 21.3636 5.13856 21.2147 4.65882 21.1511C4.62276 21.1466 4.58623 21.1529 4.55399 21.1694C4.52174 21.1858 4.49529 21.2115 4.47808 21.2431C4.18466 21.7742 3.71999 22.0364 3.08406 22.0297C2.20937 22.0196 1.33023 22.018 0.446616 22.0247C0.271456 22.0258 0.147059 21.893 0.0734253 21.6264V13.2789C0.142597 13.0313 0.296001 12.908 0.533638 12.9091C1.33134 12.9147 2.12904 12.923 2.92675 12.9342C3.65807 12.9442 4.2053 13.0313 4.47808 13.7224C4.49072 13.7553 4.51321 13.7834 4.54253 13.8032C4.57184 13.8229 4.60658 13.8333 4.64209 13.8329C5.73433 13.8273 6.80537 13.8267 7.85521 13.8312C8.40747 13.8329 8.95135 14.037 9.48353 14.3316C10.2784 14.7734 11.465 15.6654 12.372 15.6603C13.3343 15.6553 15.0094 15.4712 15.796 15.9063C16.3984 16.2388 16.6997 16.8178 16.6997 17.6434C16.6997 17.7427 16.746 17.7756 16.8386 17.7422C17.904 17.3606 18.9968 16.9807 20.117 16.6025C20.7596 16.385 21.3319 16.1222 21.9679 16.2528C22.7365 16.4089 23.1923 16.916 23.3351 17.774ZM0.958708 13.8948L0.982137 21.0574C0.982134 21.0661 0.983876 21.0747 0.98726 21.0827C0.990644 21.0908 0.995602 21.098 1.00184 21.1041C1.00808 21.1102 1.01547 21.115 1.02359 21.1182C1.0317 21.1213 1.04037 21.1229 1.04908 21.1226L3.12255 21.1143C3.28473 21.1134 3.43994 21.0446 3.55413 20.9228C3.66833 20.8011 3.73219 20.6364 3.7317 20.465L3.71162 14.4671C3.71138 14.3819 3.69525 14.2976 3.66415 14.219C3.63306 14.1404 3.5876 14.0691 3.5304 14.0091C3.47319 13.9491 3.40535 13.9016 3.33077 13.8693C3.25619 13.8371 3.17633 13.8207 3.09577 13.8212L1.0223 13.8295C1.00528 13.83 0.989109 13.837 0.977229 13.8492C0.965348 13.8614 0.958702 13.8778 0.958708 13.8948ZM9.8199 18.8115L9.82325 18.7212C9.82627 18.6325 9.86335 18.5485 9.92669 18.4867C9.99002 18.4249 10.0747 18.3902 10.163 18.3898C11.7372 18.3798 13.2829 18.3753 14.8002 18.3764C15.8278 18.3764 16.1307 17.0661 15.3525 16.6761C15.1863 16.5925 14.8945 16.5512 14.4773 16.5523C13.607 16.5534 12.7658 16.5523 11.9536 16.549C11.6991 16.5479 11.449 16.4816 11.2273 16.3565C10.501 15.9482 9.74013 15.5203 8.94466 15.0729C8.55864 14.8565 8.18154 14.7483 7.81337 14.7483C6.76464 14.7505 5.74102 14.7499 4.7425 14.7466C4.70788 14.7466 4.67468 14.7604 4.6502 14.7848C4.62572 14.8093 4.61196 14.8425 4.61196 14.8771L4.61029 20.1018C4.61029 20.1933 4.65547 20.2446 4.74584 20.2558C7.45022 20.5838 8.85764 23.171 11.8415 22.8798C12.377 22.8274 13.1825 22.5652 14.258 22.0933C16.8285 20.9665 19.3974 19.8335 21.9645 18.6944C22.8732 18.2911 22.3277 16.795 21.3252 17.1431C19.2769 17.8537 17.2737 18.5438 15.3157 19.2132C15.1506 19.2697 14.977 19.2985 14.8019 19.2985L10.2885 19.2952C10.2255 19.2952 10.1632 19.2826 10.1052 19.2581C10.0472 19.2336 9.99482 19.1977 9.95109 19.1525C9.90735 19.1074 9.87319 19.0539 9.85065 18.9953C9.82811 18.9368 9.81765 18.8742 9.8199 18.8115Z" fill="black"/> <path d="M0.958717 13.8948C0.958712 13.8778 0.965358 13.8614 0.977238 13.8492C0.989118 13.837 1.00529 13.83 1.02231 13.8295L3.09578 13.8212C3.17634 13.8207 3.2562 13.8371 3.33078 13.8693C3.40536 13.9016 3.4732 13.9491 3.5304 14.0091C3.58761 14.0691 3.63307 14.1404 3.66416 14.219C3.69526 14.2976 3.71139 14.3819 3.71163 14.4671L3.73171 20.465C3.7322 20.6364 3.66834 20.8011 3.55414 20.9228C3.43995 21.0446 3.28474 21.1134 3.12256 21.1143L1.04909 21.1226C1.04038 21.1229 1.03171 21.1213 1.0236 21.1182C1.01548 21.115 1.00809 21.1102 1.00185 21.1041C0.995611 21.098 0.990654 21.0908 0.98727 21.0827C0.983885 21.0747 0.982143 21.0661 0.982146 21.0574L0.958717 13.8948ZM2.77949 15.1984C2.77949 15.0822 2.73329 14.9706 2.65107 14.8884C2.56884 14.8062 2.45732 14.76 2.34103 14.76C2.22474 14.76 2.11322 14.8062 2.03099 14.8884C1.94877 14.9706 1.90257 15.0822 1.90257 15.1984C1.90257 15.3147 1.94877 15.4263 2.03099 15.5085C2.11322 15.5907 2.22474 15.6369 2.34103 15.6369C2.45732 15.6369 2.56884 15.5907 2.65107 15.5085C2.73329 15.4263 2.77949 15.3147 2.77949 15.1984Z" fill="#FAECD8"/> <path d="M9.8199 18.8115C9.81765 18.8742 9.82811 18.9368 9.85065 18.9953C9.87319 19.0539 9.90735 19.1074 9.95109 19.1525C9.99482 19.1977 10.0472 19.2336 10.1052 19.2581C10.1632 19.2826 10.2255 19.2952 10.2885 19.2952L14.8019 19.2985C14.977 19.2985 15.1506 19.2697 15.3157 19.2132C17.2737 18.5438 19.2769 17.8537 21.3252 17.1431C22.3277 16.795 22.8732 18.2911 21.9645 18.6944C19.3974 19.8335 16.8285 20.9665 14.258 22.0933C13.1825 22.5652 12.377 22.8274 11.8415 22.8798C8.85764 23.171 7.45022 20.5838 4.74584 20.2558C4.65547 20.2446 4.61029 20.1933 4.61029 20.1018L4.61196 14.8771C4.61196 14.8425 4.62572 14.8093 4.6502 14.7848C4.67468 14.7604 4.70788 14.7466 4.7425 14.7466C5.74102 14.7499 6.76465 14.7505 7.81337 14.7483C8.18154 14.7483 8.55864 14.8565 8.94466 15.0729C9.74013 15.5203 10.501 15.9482 11.2273 16.3565C11.449 16.4816 11.6991 16.5479 11.9536 16.549C12.7658 16.5523 13.607 16.5534 14.4773 16.5523C14.8945 16.5512 15.1863 16.5925 15.3525 16.6761C16.1307 17.0661 15.8278 18.3764 14.8002 18.3764C13.2829 18.3753 11.7372 18.3798 10.163 18.3898C10.0747 18.3902 9.99003 18.4249 9.92669 18.4867C9.86335 18.5485 9.82628 18.6325 9.82325 18.7212L9.8199 18.8115Z" fill="#FFCEBF"/> <defs> <linearGradient id="paint0_linear_1912_40483" x1="17.5806" y1="6.14874" x2="3.78596" y2="10.3088" gradientUnits="userSpaceOnUse"> <stop stop-color="#10AEB9"/> <stop offset="1" stop-color="#FCDD56"/> </linearGradient> </defs> </svg>