<svg width="32" height="32" viewBox="0 0 32 32" fill="none" xmlns="http://www.w3.org/2000/svg"> <path d="M5.86985 11.181L5.35165 12.0786L10.0423 13.3091C10.0423 13.3091 10.6049 13.4141 11.668 14.0279C12.7311 14.6417 18.0431 16.9759 24.6938 13.0126C30.5972 9.49698 31.5741 4.01634 31.5741 4.01634C31.5741 4.01634 18.2164 -1.94948 11.158 11.6942C11.158 11.6942 12.9557 12.0727 16.2346 11.3037L19.3516 5.62981L17.3577 11.0728C17.3577 11.0728 19.037 10.8945 22.421 9.47789L24.6398 4.87296L23.261 9.1447C23.261 9.1447 26.6394 7.82253 30.3121 5.14388C30.3121 5.14388 27.5263 7.89496 23.5004 9.66143L26.1902 11.0557L22.5669 10.0506C22.5669 10.0506 20.1918 11.2437 17.677 11.9166L21.2108 13.6271L16.1902 12.2061C16.1902 12.2061 12.0688 13.5877 5.85152 11.1705L5.86985 11.181Z" fill="url(#paint0_linear_3311_40293)"/> <path d="M31.1135 23.6986V24.1538C30.8457 25.7448 29.8505 26.0058 28.2752 26.702C25.4191 27.9649 22.5608 29.2242 19.7002 30.4797C18.0654 31.1981 16.8552 31.6057 16.0698 31.7024C12.8656 32.0974 10.6186 30.2922 7.99236 28.7972C7.44494 28.4848 6.85141 28.2863 6.21176 28.2015C6.16368 28.1954 6.11497 28.2039 6.07197 28.2258C6.02898 28.2477 5.99371 28.282 5.97077 28.3242C5.57954 29.0323 4.95998 29.3818 4.11207 29.3729C2.94582 29.3595 1.77363 29.3573 0.595483 29.3662C0.361936 29.3677 0.196073 29.1907 0.0978947 28.8352V17.7053C0.190123 17.375 0.394662 17.2106 0.711512 17.2121C1.77512 17.2196 2.83872 17.2307 3.90232 17.2456C4.87742 17.259 5.60706 17.375 5.97077 18.2966C5.98762 18.3403 6.01761 18.3779 6.0567 18.4042C6.09578 18.4306 6.14211 18.4444 6.18944 18.4438C7.64576 18.4364 9.07382 18.4356 10.4736 18.4416C11.2099 18.4438 11.9351 18.7161 12.6447 19.1088C13.7046 19.6978 15.2866 20.8871 16.496 20.8804C17.779 20.8738 20.0126 20.6283 21.0613 21.2085C21.8646 21.6517 22.2662 22.4238 22.2662 23.5246C22.2662 23.657 22.328 23.7009 22.4514 23.6562C23.872 23.1475 25.3291 22.641 26.8226 22.1367C27.6794 21.8466 28.4426 21.4963 29.2905 21.6703C30.3154 21.8786 30.9231 22.5547 31.1135 23.6986ZM1.27827 18.5264L1.30951 28.0765C1.30951 28.0881 1.31183 28.0996 1.31634 28.1103C1.32085 28.121 1.32746 28.1307 1.33578 28.1388C1.3441 28.147 1.35396 28.1533 1.36478 28.1576C1.37559 28.1618 1.38715 28.1638 1.39876 28.1635L4.16339 28.1524C4.37963 28.1512 4.58658 28.0594 4.73884 27.8971C4.8911 27.7348 4.97624 27.5153 4.9756 27.2866L4.94882 19.2895C4.9485 19.1759 4.927 19.0635 4.88553 18.9587C4.84407 18.8539 4.78346 18.7588 4.70719 18.6788C4.63091 18.5988 4.54046 18.5355 4.44102 18.4925C4.34158 18.4495 4.23511 18.4276 4.12769 18.4282L1.36306 18.4394C1.34037 18.4399 1.31881 18.4494 1.30297 18.4656C1.28713 18.4819 1.27826 18.5037 1.27827 18.5264ZM13.0932 25.0821L13.0977 24.9616C13.1017 24.8434 13.1511 24.7313 13.2356 24.649C13.32 24.5666 13.4329 24.5203 13.5506 24.5198C15.6496 24.5064 17.7106 24.5004 19.7337 24.5019C21.1037 24.5019 21.5076 22.7548 20.47 22.2349C20.2483 22.1233 19.8594 22.0683 19.303 22.0698C18.1427 22.0712 17.0211 22.0697 15.9382 22.0653C15.5987 22.0638 15.2654 21.9755 14.9698 21.8087C14.0014 21.2642 12.9868 20.6938 11.9262 20.0972C11.4115 19.8087 10.9087 19.6644 10.4178 19.6644C9.01952 19.6673 7.65469 19.6666 6.32332 19.6621C6.27716 19.6621 6.23289 19.6805 6.20026 19.7131C6.16762 19.7458 6.14928 19.79 6.14928 19.8362L6.14705 26.8024C6.14705 26.9244 6.20729 26.9928 6.32779 27.0077C9.93362 27.445 11.8102 30.8947 15.7887 30.5064C16.5027 30.4365 17.5767 30.0869 19.0107 29.4577C22.438 27.9553 25.8631 26.4447 29.286 24.9259C30.4976 24.3881 29.7702 22.3933 28.4336 22.8574C25.7025 23.805 23.0316 24.725 20.4209 25.6176C20.2008 25.6929 19.9693 25.7314 19.7359 25.7314L13.718 25.7269C13.634 25.727 13.5509 25.7101 13.4736 25.6775C13.3963 25.6448 13.3264 25.5969 13.2681 25.5367C13.2098 25.4765 13.1642 25.4052 13.1342 25.3271C13.1041 25.249 13.0902 25.1657 13.0932 25.0821Z" fill="black"/> <path d="M1.27828 18.5264C1.27827 18.5037 1.28713 18.4819 1.30297 18.4656C1.31881 18.4494 1.34038 18.4399 1.36307 18.4394L4.1277 18.4282C4.23511 18.4276 4.34159 18.4495 4.44103 18.4925C4.54047 18.5355 4.63092 18.5988 4.7072 18.6788C4.78347 18.7588 4.84408 18.8539 4.88554 18.9587C4.927 19.0635 4.94851 19.1759 4.94883 19.2895L4.9756 27.2866C4.97625 27.5153 4.89111 27.7348 4.73885 27.8971C4.58658 28.0594 4.37964 28.1512 4.1634 28.1524L1.39877 28.1635C1.38716 28.1638 1.3756 28.1618 1.36478 28.1576C1.35397 28.1533 1.34411 28.147 1.33579 28.1388C1.32747 28.1307 1.32086 28.121 1.31635 28.1103C1.31184 28.0996 1.30952 28.0881 1.30952 28.0765L1.27828 18.5264ZM3.70597 20.2646C3.70597 20.1095 3.64438 19.9609 3.53475 19.8512C3.42511 19.7416 3.27641 19.68 3.12136 19.68C2.96632 19.68 2.81762 19.7416 2.70798 19.8512C2.59835 19.9609 2.53675 20.1095 2.53675 20.2646C2.53675 20.4196 2.59835 20.5683 2.70798 20.678C2.81762 20.7876 2.96632 20.8492 3.12136 20.8492C3.27641 20.8492 3.42511 20.7876 3.53475 20.678C3.64438 20.5683 3.70597 20.4196 3.70597 20.2646Z" fill="#FAECD8"/> <path d="M13.0932 25.0821C13.0902 25.1657 13.1041 25.249 13.1342 25.3271C13.1642 25.4052 13.2098 25.4765 13.2681 25.5367C13.3264 25.5969 13.3963 25.6448 13.4736 25.6775C13.5509 25.7101 13.634 25.727 13.718 25.7269L19.7359 25.7314C19.9693 25.7314 20.2008 25.6929 20.4209 25.6176C23.0316 24.725 25.7025 23.805 28.4336 22.8574C29.7702 22.3933 30.4976 24.3881 29.286 24.9259C25.8631 26.4447 22.438 27.9553 19.0107 29.4577C17.5767 30.0869 16.5027 30.4365 15.7886 30.5064C11.8102 30.8947 9.93362 27.445 6.32778 27.0077C6.20729 26.9928 6.14705 26.9244 6.14705 26.8024L6.14928 19.8362C6.14928 19.79 6.16761 19.7458 6.20025 19.7131C6.23289 19.6805 6.27716 19.6621 6.32332 19.6621C7.65468 19.6666 9.01952 19.6673 10.4178 19.6644C10.9087 19.6644 11.4115 19.8087 11.9262 20.0972C12.9868 20.6938 14.0013 21.2642 14.9697 21.8087C15.2654 21.9755 15.5987 22.0638 15.9381 22.0653C17.0211 22.0697 18.1427 22.0712 19.303 22.0697C19.8593 22.0683 20.2483 22.1233 20.47 22.2349C21.5076 22.7548 21.1037 24.5019 19.7337 24.5019C17.7106 24.5004 15.6496 24.5064 13.5506 24.5198C13.4329 24.5203 13.32 24.5666 13.2356 24.649C13.1511 24.7313 13.1017 24.8434 13.0977 24.9616L13.0932 25.0821Z" fill="#FFCEBF"/> <defs> <linearGradient id="paint0_linear_3311_40293" x1="23.4408" y1="8.19832" x2="5.04794" y2="13.7451" gradientUnits="userSpaceOnUse"> <stop stop-color="#10AEB9"/> <stop offset="1" stop-color="#FCDD56"/> </linearGradient> </defs> </svg>