<svg width="32" height="32" viewBox="0 0 32 32" fill="none" xmlns="http://www.w3.org/2000/svg"> <path d="M5.86972 11.1767L5.35166 12.074L10.0411 13.3043C10.0411 13.3043 10.6035 13.4092 11.6663 14.0229C12.7292 14.6365 18.0398 16.9701 24.6888 13.0078C30.5906 9.49311 31.5673 4.0139 31.5673 4.0139C31.5673 4.0139 18.2131 -1.95036 11.1565 11.6897C11.1565 11.6897 12.9537 12.0681 16.2318 11.2993L19.3479 5.62695L17.3546 11.0685C17.3546 11.0685 19.0334 10.8903 22.4166 9.47402L24.6347 4.87029L23.2564 9.14092C23.2564 9.14092 26.6338 7.81909 30.3056 5.14115C30.3056 5.14115 27.5205 7.8915 23.4956 9.65752L26.1848 11.0514L22.5624 10.0466C22.5624 10.0466 20.1879 11.2394 17.6738 11.9121L21.2066 13.6222L16.1874 12.2015C16.1874 12.2015 12.067 13.5828 5.8514 11.1662L5.86972 11.1767Z" fill="#003657"/> <path d="M31.7862 23.7517V24.3628C31.5891 25.2663 31.0462 25.9144 30.1575 26.307C26.7341 27.8183 23.3074 29.3255 19.8774 30.8285C18.3809 31.484 17.2334 31.8561 16.4351 31.9448C13.1308 32.3144 10.8441 30.4614 8.16567 28.8869C7.69421 28.6092 7.0897 28.4466 6.35212 28.399C6.27163 28.394 6.21413 28.4277 6.17963 28.5C5.86259 29.1784 5.40427 29.5226 4.80468 29.5324C3.594 29.5505 2.3825 29.5522 1.17018 29.5374C0.690509 29.5324 0.3825 29.3797 0.246155 29.0791V17.6507C0.405498 17.3747 0.734041 17.2343 1.23178 17.2293C2.40304 17.2211 3.57347 17.2211 4.74308 17.2293C5.40509 17.2326 5.89873 17.6022 6.22399 18.3382C6.23793 18.3704 6.26099 18.3978 6.29032 18.4171C6.31966 18.4363 6.35399 18.4466 6.38908 18.4466C8.24699 18.4679 9.54637 18.4704 10.2872 18.454C12.2831 18.4121 13.9833 19.6688 15.6983 20.6445C16.0055 20.8203 16.3324 20.9107 16.679 20.9156C18.0959 20.9353 20.2544 20.7037 21.3484 21.1645C22.3094 21.5719 22.7924 22.4096 22.7973 23.6778C22.7973 23.7616 22.8376 23.7895 22.9181 23.7616C24.5969 23.1866 26.2725 22.6117 27.9448 22.0367C29.7657 21.4133 31.3082 21.6228 31.7862 23.7517ZM4.58538 28.3127C4.74179 28.3121 4.89158 28.2497 5.00195 28.1394C5.11232 28.029 5.17429 27.8796 5.17429 27.7238V19.0996C5.17429 18.929 5.10654 18.7654 4.98593 18.6448C4.86532 18.5242 4.70174 18.4564 4.53117 18.4564H1.59893C1.58307 18.4564 1.56737 18.4595 1.55272 18.4655C1.53808 18.4714 1.52476 18.4801 1.51355 18.4911C1.50234 18.5021 1.49345 18.5151 1.48738 18.5295C1.48131 18.5438 1.47819 18.5592 1.47819 18.5747V28.1871C1.47819 28.2725 1.5209 28.3152 1.60632 28.3152L4.58538 28.3127ZM13.4634 25.2819C13.4092 24.8384 13.6047 24.6166 14.0499 24.6166H20.3234C20.6333 24.6167 20.9308 24.4951 21.152 24.2781C21.3732 24.061 21.5003 23.7659 21.5061 23.456L21.5111 23.1505C21.5158 22.904 21.4235 22.6655 21.2543 22.4866C21.0851 22.3078 20.8525 22.2028 20.6068 22.1944C19.1135 22.1402 17.7271 22.1205 16.4474 22.1353C16.0384 22.1402 15.7057 22.0696 15.4495 21.9234C14.2897 21.2647 13.1176 20.6257 11.9332 20.0063C11.5538 19.8092 11.148 19.7074 10.716 19.7008C9.33118 19.6827 7.93405 19.6803 6.5246 19.6934C6.44575 19.6934 6.40633 19.7328 6.40633 19.8117V27.0142C6.40633 27.1029 6.44986 27.153 6.53692 27.1645C8.65356 27.4404 10.3612 28.7538 12.1254 29.7862C14.0835 30.9312 16.1123 31.0544 18.2117 30.1559C22.0293 28.5197 25.9004 26.8351 29.8248 25.102C30.4688 24.8179 30.6758 24.3439 30.4458 23.6803L30.362 23.4388C30.2881 23.2266 30.1337 23.0519 29.9318 22.9523C29.73 22.8528 29.4969 22.8364 29.2827 22.9066C26.5098 23.8215 23.8996 24.7111 21.4519 25.5751C20.9657 25.746 20.4696 25.8339 19.9636 25.8388C17.976 25.8569 15.9842 25.8561 13.9883 25.8363C13.8618 25.8349 13.7402 25.7877 13.646 25.7034C13.5517 25.6191 13.4912 25.5035 13.4757 25.378L13.4634 25.2819Z" fill="#003657"/> </svg>