<svg width="24" height="24" viewBox="0 0 24 24" fill="none" xmlns="http://www.w3.org/2000/svg"> <path d="M4.40229 8.38255L4.01374 9.05553L7.5308 9.9782C7.5308 9.9782 7.95263 10.0569 8.74975 10.5172C9.54688 10.9774 13.5299 12.7276 18.5166 9.75584C22.9429 7.11983 23.6754 3.01042 23.6754 3.01042C23.6754 3.01042 13.6598 -1.46277 8.36736 8.76729C8.36736 8.76729 9.71529 9.05109 12.1739 8.47449L14.511 4.22021L13.0159 8.30141C13.0159 8.30141 14.2751 8.1677 16.8124 7.10552L18.4761 3.65272L17.4423 6.85569C17.4423 6.85569 19.9754 5.86432 22.7292 3.85586C22.7292 3.85586 20.6404 5.91863 17.6217 7.24314L19.6386 8.28855L16.9218 7.53493C16.9218 7.53493 15.1409 8.42953 13.2554 8.93409L15.905 10.2166L12.1405 9.15112C12.1405 9.15112 9.05028 10.1871 4.38855 8.37461L4.40229 8.38255Z" fill="#003657"/> <path d="M23.8397 17.8138V18.2721C23.6918 18.9497 23.2847 19.4358 22.6181 19.7302C20.0506 20.8637 17.4805 21.9941 14.908 23.1214C13.7857 23.613 12.9251 23.892 12.3263 23.9586C9.84808 24.2358 8.13309 22.846 6.12426 21.6651C5.77066 21.4569 5.31727 21.335 4.76409 21.2992C4.70372 21.2955 4.6606 21.3208 4.63473 21.375C4.39694 21.8838 4.05321 22.1419 3.60351 22.1493C2.6955 22.1629 1.78688 22.1641 0.877636 22.153C0.517881 22.1493 0.286875 22.0348 0.184616 21.8093V13.238C0.304123 13.031 0.55053 12.9257 0.923837 12.922C1.80228 12.9158 2.6801 12.9158 3.55731 12.922C4.05382 12.9245 4.42405 13.2017 4.66799 13.7536C4.67845 13.7778 4.69574 13.7984 4.71774 13.8128C4.73974 13.8273 4.76549 13.8349 4.79181 13.8349C6.18524 13.851 7.15978 13.8528 7.71543 13.8405C9.21235 13.8091 10.4875 14.7516 11.7738 15.4834C12.0041 15.6152 12.2493 15.683 12.5093 15.6867C13.5719 15.7015 15.1908 15.5278 16.0113 15.8733C16.7321 16.1789 17.0943 16.8072 17.098 17.7584C17.098 17.8212 17.1282 17.8421 17.1885 17.8212C18.4477 17.39 19.7044 16.9588 20.9586 16.5276C22.3243 16.06 23.4812 16.2171 23.8397 17.8138ZM3.43904 21.2345C3.55635 21.2341 3.66869 21.1873 3.75146 21.1045C3.83424 21.0218 3.88072 20.9097 3.88072 20.7929V14.3247C3.88072 14.1968 3.8299 14.0741 3.73945 13.9836C3.64899 13.8932 3.5263 13.8423 3.39838 13.8423H1.1992C1.1873 13.8423 1.17553 13.8446 1.16454 13.8491C1.15356 13.8535 1.14357 13.8601 1.13516 13.8683C1.12676 13.8766 1.12009 13.8863 1.11554 13.8971C1.11098 13.9079 1.10864 13.9194 1.10864 13.931V21.1403C1.10864 21.2044 1.14068 21.2364 1.20474 21.2364L3.43904 21.2345ZM10.0976 18.9614C10.0569 18.6288 10.2035 18.4625 10.5374 18.4625H15.2425C15.475 18.4625 15.6981 18.3713 15.864 18.2086C16.0299 18.0458 16.1253 17.8244 16.1296 17.592L16.1333 17.3629C16.1368 17.178 16.0677 16.9992 15.9408 16.865C15.8139 16.7308 15.6394 16.6521 15.4551 16.6458C14.3351 16.6052 13.2953 16.5904 12.3356 16.6015C12.0288 16.6052 11.7793 16.5522 11.5871 16.4425C10.7173 15.9485 9.83822 15.4692 8.94993 15.0048C8.66533 14.8569 8.36101 14.7805 8.03699 14.7756C6.99838 14.7621 5.95054 14.7602 4.89345 14.7701C4.83431 14.7701 4.80475 14.7996 4.80475 14.8588V20.2606C4.80475 20.3272 4.8374 20.3647 4.90269 20.3734C6.49017 20.5803 7.77087 21.5653 9.09407 22.3397C10.5627 23.1984 12.0842 23.2908 13.6588 22.6169C16.522 21.3898 19.4253 20.1263 22.3686 18.8265C22.8516 18.6134 23.0068 18.258 22.8343 17.7602L22.7715 17.5791C22.7161 17.4199 22.6003 17.2889 22.4489 17.2143C22.2975 17.1396 22.1227 17.1273 21.9621 17.1799C19.8824 17.8662 17.9247 18.5333 16.089 19.1814C15.7243 19.3095 15.3522 19.3754 14.9727 19.3791C13.482 19.3927 11.9881 19.392 10.4912 19.3773C10.3964 19.3762 10.3052 19.3408 10.2345 19.2775C10.1638 19.2143 10.1184 19.1276 10.1068 19.0335L10.0976 18.9614Z" fill="#003657"/> </svg>