<svg width="212" height="201" viewBox="0 0 212 201" fill="none" xmlns="http://www.w3.org/2000/svg">
<path d="M31.1775 185.672C-10.0807 165.824 -10.0807 133.649 31.1775 113.806C72.4358 93.9628 139.331 93.9584 180.585 113.806C221.839 133.653 221.843 165.824 180.585 185.672C139.327 205.519 72.4358 205.501 31.1775 185.672Z" fill="#DFEAFB"/>
<path d="M105.881 200.753C78.7951 200.753 51.7046 195.792 31.0821 185.871C11.0489 176.233 0 163.403 0 149.738C0 136.072 11.0311 123.242 31.0688 113.605C72.3137 93.7619 139.422 93.7619 180.667 113.605C200.7 123.242 211.736 136.072 211.736 149.738C211.736 163.403 200.705 176.233 180.667 185.871C160.058 195.792 132.972 200.753 105.881 200.753ZM105.881 99.1623C78.8571 99.1623 51.833 104.11 31.2726 114.005C11.3988 123.562 0.443017 136.255 0.443017 149.738C0.443017 163.221 11.3855 175.909 31.2593 185.471C72.4023 205.261 139.356 205.261 180.476 185.471C200.363 175.914 211.319 163.221 211.319 149.738C211.319 136.255 200.363 123.562 180.49 114.013C159.929 104.11 132.905 99.1623 105.881 99.1623Z" fill="#F5F5F5"/>
<path d="M157.607 180.826C172.346 180.826 184.295 173.91 184.295 165.38C184.295 156.849 172.346 149.934 157.607 149.934C142.868 149.934 130.92 156.849 130.92 165.38C130.92 173.91 142.868 180.826 157.607 180.826Z" fill="#CEE1FF"/>
<path d="M37.6969 177.752L27.2594 171.712C25.9969 170.984 25.9969 169.798 27.2594 169.047L91.2888 131.991C91.9969 131.63 92.7802 131.441 93.5747 131.441C94.3693 131.441 95.1525 131.63 95.8607 131.991L106.298 138.031C107.556 138.759 107.556 139.945 106.298 140.673L42.2645 177.752C41.5571 178.113 40.7745 178.301 39.9807 178.301C39.1869 178.301 38.4043 178.113 37.6969 177.752Z" fill="#CEE1FF"/>
<path d="M53.9325 185.373L52.8117 184.716C51.5491 183.983 51.5491 182.802 52.8117 182.051L110.94 148.432C111.648 148.071 112.431 147.883 113.226 147.883C114.021 147.883 114.804 148.071 115.512 148.432L116.637 149.09C117.895 149.818 117.895 151.004 116.637 151.754L58.4867 185.373C57.7806 185.731 57.0006 185.917 56.2096 185.917C55.4187 185.917 54.6387 185.731 53.9325 185.373Z" fill="#CEE1FF"/>
<path d="M104.033 134.95V6.93886C104.033 4.41631 102.792 1.6495 101.26 0.765716C99.7268 -0.118065 96.7143 0.179489 94.5302 1.44077L38.71 33.7499C36.5303 35.0111 34.7627 38.0799 34.7627 40.6025V168.613C34.7627 171.136 36.0076 173.903 37.5404 174.791C39.0733 175.679 42.0858 175.377 44.2654 174.111L100.086 141.807C101.32 141.151 102.345 140.16 103.043 138.947C103.741 137.734 104.084 136.349 104.033 134.95Z" fill="#37474F"/>
<path d="M100.477 136.22L43.0754 169.457V40.86L35.8941 36.7031C35.1839 37.8831 34.7859 39.2252 34.7378 40.6024V168.613C34.7378 171.136 35.9827 173.902 37.5155 174.791C39.0484 175.679 42.0609 175.377 44.2405 174.111L100.061 141.806C101.611 140.972 102.822 139.619 103.481 137.983L103.259 137.854L100.477 136.22Z" fill="#263238"/>
<path d="M99.9727 5.77109L43.993 38.1912C43.1866 38.7174 42.5153 39.4267 42.0334 40.2616C41.5516 41.0964 41.2728 42.0334 41.2197 42.9965V169.888C41.2197 172.597 43.138 173.707 45.4816 172.348L99.9727 140.816C100.885 140.218 101.645 139.414 102.191 138.467C102.737 137.52 103.053 136.459 103.114 135.367V7.58751C103.114 5.58456 101.7 4.76296 99.9727 5.77109Z" fill="#455A64"/>
<path d="M100.382 14.0075V132.141C100.326 133.179 100.027 134.189 99.509 135.09C98.991 135.99 98.2687 136.755 97.4006 137.324L46.9542 166.542C45.3106 167.501 43.9727 166.729 43.9727 164.819V45.757C44.0645 44.0396 44.8154 42.4244 46.0681 41.2493L46.3472 40.9962C46.5404 40.844 46.7431 40.7046 46.9542 40.5787L61.1307 32.3626L62.0522 31.8253C62.5661 31.5321 62.9781 31.7675 62.9781 32.3626C62.9781 32.9577 63.4211 33.1798 63.9705 32.86L80.5127 23.285C80.7965 23.1084 81.0347 22.8671 81.2079 22.5808C81.3811 22.2945 81.4845 21.9712 81.5095 21.6373C81.5268 21.3335 81.6098 21.0371 81.7529 20.7686C81.8959 20.5002 82.0956 20.2662 82.338 20.083L82.4354 20.0252L96.3107 12.0001L96.6076 11.8269C98.6853 10.6234 100.382 11.6049 100.382 14.0075Z" fill="black"/>
<path d="M93.0723 133.999C93.9393 133.429 94.6606 132.664 95.1778 131.763C95.6949 130.863 95.9935 129.853 96.0494 128.816V12.1523L82.4266 20.0353L82.3291 20.0931C82.0895 20.2762 81.8922 20.5092 81.7507 20.7759C81.6092 21.0427 81.527 21.337 81.5095 21.6386C81.4841 21.9701 81.3815 22.2911 81.2099 22.5757C81.0383 22.8603 80.8026 23.1006 80.5216 23.2773L63.9793 32.8524C63.43 33.1721 62.987 32.9456 62.987 32.355C62.987 31.7643 62.575 31.5245 62.0611 31.8176L61.1307 32.3638L46.9542 40.5799C46.7431 40.7058 46.5404 40.8452 46.3472 40.9974L46.0681 41.2505C44.8154 42.4256 44.0645 44.0408 43.9727 45.7582V162.422L93.0723 133.999Z" fill="#263238"/>
<path d="M66.4832 27.8033L74.0632 23.4155C74.5062 23.1535 74.8828 23.34 74.8828 23.833C74.8607 24.1077 74.7751 24.3735 74.6329 24.6094C74.4906 24.8452 74.2956 25.0447 74.0632 25.1919L66.4832 29.5797C66.0401 29.8418 65.6636 29.6553 65.6636 29.1623C65.6857 28.8876 65.7712 28.6217 65.9135 28.3859C66.0557 28.15 66.2507 27.9506 66.4832 27.8033Z" fill="#263238"/>
<path d="M77.9669 20.8036C78.4764 20.5061 78.8884 20.7459 78.8884 21.3366C78.8711 21.6576 78.7787 21.97 78.6186 22.2485C78.4585 22.527 78.2353 22.7638 77.9669 22.9398C77.4575 23.2329 77.041 22.9931 77.041 22.4024C77.0591 22.0817 77.1524 21.7698 77.3132 21.492C77.4741 21.2142 77.6981 20.9784 77.9669 20.8036Z" fill="#263238"/>
<path d="M39.9319 56.8594C39.9161 56.3314 39.7758 55.8147 39.5225 55.3515C39.2691 54.8884 38.91 54.4919 38.4743 54.1947C38.3306 54.0911 38.1613 54.0289 37.9849 54.0148C37.8084 54.0007 37.6314 54.0353 37.4731 54.1148C37.2915 54.2258 36.5871 54.6255 36.3789 54.741C36.2217 54.8611 36.0983 55.0199 36.0207 55.2021C35.943 55.3842 35.9138 55.5834 35.9359 55.7802V66.8208C35.9525 67.3491 36.0936 67.866 36.3477 68.3291C36.6018 68.7923 36.9616 69.1885 37.3978 69.4855C37.5361 69.5833 37.697 69.644 37.8652 69.6619C38.0335 69.6797 38.2035 69.6542 38.3592 69.5876C38.5629 69.4811 39.2984 69.0547 39.4889 68.9392C39.6467 68.8198 39.7706 68.661 39.8483 68.4787C39.926 68.2964 39.9548 68.0969 39.9319 67.9V56.8594Z" fill="#455A64"/>
<path d="M38.8482 57.4876V68.5327C38.8482 69.5231 38.197 69.9538 37.3907 69.4875C36.9545 69.1906 36.5946 68.7943 36.3405 68.3312C36.0864 67.868 35.9453 67.3512 35.9287 66.8229V55.8C35.9287 54.8052 36.5844 54.3789 37.3907 54.8452C37.8238 55.1397 38.1816 55.5324 38.4348 55.9916C38.6881 56.4507 38.8297 56.9633 38.8482 57.4876Z" fill="#37474F"/>
<path d="M39.9324 76.1902C39.9166 75.6622 39.7763 75.1454 39.523 74.6823C39.2697 74.2191 38.9105 73.8227 38.4749 73.5255C38.3316 73.4212 38.1625 73.3581 37.986 73.3433C37.8095 73.3284 37.6323 73.3622 37.4736 73.4411C37.292 73.5521 36.5876 73.9563 36.3794 74.0718C36.2216 74.1912 36.0977 74.35 36.02 74.5323C35.9422 74.7146 35.9134 74.9141 35.9364 75.111V86.1693C35.9557 86.694 36.0982 87.2067 36.3522 87.6658C36.6062 88.1249 36.9646 88.5175 37.3983 88.8118C37.5358 88.9111 37.6966 88.9731 37.865 88.9918C38.0335 89.0104 38.2039 88.9852 38.3597 88.9184C38.5635 88.8118 39.2989 88.3855 39.4894 88.27C39.6469 88.1502 39.7705 87.9914 39.8482 87.8092C39.9259 87.627 39.9549 87.4276 39.9324 87.2308V76.1902Z" fill="#455A64"/>
<path d="M38.8482 76.8155V87.8561C38.8482 88.8509 38.197 89.2772 37.3907 88.8109C36.9569 88.5167 36.5985 88.124 36.3445 87.6649C36.0905 87.2058 35.9481 86.6931 35.9287 86.1685V75.1279C35.9287 74.1331 36.5844 73.7023 37.3907 74.1686C37.8239 74.464 38.1816 74.8576 38.4349 75.3175C38.6881 75.7773 38.8297 76.2905 38.8482 76.8155Z" fill="#37474F"/>
<path d="M109.578 19.2219L55.2374 50.6338C54.8817 50.8667 54.5857 51.1802 54.3733 51.549C54.1608 51.9178 54.038 52.3315 54.0146 52.7567V172.951C54.0374 173.376 54.1605 173.79 54.3739 174.158C54.5872 174.527 54.8847 174.839 55.2418 175.069L56.0038 175.514C56.3838 175.705 56.8033 175.805 57.2287 175.805C57.6542 175.805 58.0737 175.705 58.4537 175.514L112.794 144.048C113.149 143.814 113.445 143.499 113.657 143.13C113.87 142.761 113.993 142.347 114.017 141.921V21.7755C113.993 21.3504 113.87 20.9369 113.657 20.5688C113.444 20.2006 113.146 19.8882 112.79 19.6571L112.028 19.213C111.647 19.0226 111.227 18.9243 110.802 18.9258C110.376 18.9273 109.957 19.0287 109.578 19.2219Z" fill="#E0E0E0"/>
<path d="M114.02 141.992C114.02 143.071 113.262 143.769 112.328 144.297L58.9262 175.225C57.9959 175.767 57.2339 175.332 57.2339 174.248V55.1328C57.2345 54.5405 57.3903 53.9588 57.6858 53.446C57.9812 52.9331 58.4059 52.507 58.9174 52.2105L112.328 21.2826C112.499 21.1825 112.693 21.1295 112.891 21.1289C113.09 21.1284 113.284 21.1803 113.456 21.2794C113.628 21.3786 113.771 21.5215 113.869 21.6936C113.968 21.8657 114.02 22.061 114.02 22.2597V141.992Z" fill="#FAFAFA"/>
<path d="M114.017 21.7793V22.259C114.017 22.0602 113.964 21.865 113.865 21.693C113.765 21.5211 113.622 21.3784 113.45 21.2794C113.278 21.1804 113.083 21.1285 112.885 21.1289C112.687 21.1294 112.492 21.1821 112.321 21.2819L58.9237 52.2098C58.4099 52.5029 57.9844 52.9294 57.6921 53.4445C57.6905 53.4562 57.6905 53.4682 57.6921 53.48L54.3872 51.5703C54.5958 51.1857 54.9013 50.8626 55.2732 50.6332L109.578 19.2212C109.958 19.0295 110.376 18.9297 110.801 18.9297C111.226 18.9297 111.645 19.0295 112.024 19.2212L112.79 19.6654C113.147 19.8955 113.444 20.2071 113.657 20.5745C113.87 20.942 113.994 21.3548 114.017 21.7793Z" fill="#F0F0F0"/>
<path d="M112.888 21.6041C113.062 21.6041 113.229 21.6732 113.353 21.7963C113.477 21.9195 113.547 22.0867 113.548 22.2614V141.994C113.548 142.727 113.105 143.326 112.09 143.89L58.6845 174.8C58.5293 174.901 58.3506 174.959 58.1661 174.969C57.763 174.969 57.7231 174.525 57.7231 174.232V55.1345C57.7234 54.625 57.8574 54.1244 58.1117 53.6832C58.366 53.242 58.7316 52.8756 59.1718 52.6208L112.56 21.6929C112.659 21.6333 112.772 21.6026 112.888 21.6041ZM112.888 21.1289C112.69 21.1291 112.495 21.1828 112.325 21.2843L58.9237 52.2123C58.4123 52.5088 57.9876 52.9348 57.6921 53.4477C57.3966 53.9606 57.2408 54.5423 57.2402 55.1345V174.25C57.2402 175.018 57.6212 175.458 58.175 175.458C58.4436 175.45 58.7053 175.37 58.9326 175.227L112.334 144.317C113.269 143.775 114.026 143.091 114.026 142.012V22.2614C114.026 21.961 113.907 21.673 113.695 21.4606C113.483 21.2482 113.196 21.1289 112.897 21.1289H112.888Z" fill="#E0E0E0"/>
<path d="M67.6607 52.7759C67.6539 52.7497 67.6539 52.7221 67.6607 52.6959V52.2829L67.0449 52.6382C67.0094 52.656 66.9917 52.6382 66.9917 52.5849V52.4428C66.9917 52.4117 66.9917 52.3851 66.9917 52.3628L67.0138 52.2873L67.6695 50.5109L67.7005 50.4399C67.7122 50.4246 67.7274 50.4124 67.7448 50.4043L67.829 50.3555C67.8556 50.3555 67.8733 50.3555 67.8866 50.3555C67.8964 50.3843 67.8964 50.4155 67.8866 50.4443V51.8388L68.0239 51.7589C68.0505 51.7589 68.0682 51.7589 68.0771 51.7589C68.0846 51.788 68.0846 51.8186 68.0771 51.8477V51.9409C68.0829 51.9733 68.0829 52.0063 68.0771 52.0386C68.0727 52.0514 68.0657 52.0632 68.0566 52.0731C68.0474 52.083 68.0363 52.091 68.0239 52.0964L67.8866 52.1763V52.5716C67.8945 52.6052 67.8945 52.6401 67.8866 52.6737C67.8747 52.6991 67.8543 52.7196 67.829 52.7315L67.7271 52.7936C67.6917 52.7848 67.6739 52.7892 67.6607 52.7759ZM67.6872 51.9409V50.9506L67.2442 52.1941L67.6872 51.9409Z" fill="#455A64"/>
<path d="M68.3968 52.1089C68.2504 51.868 68.1866 51.5857 68.2152 51.305C68.2073 50.9573 68.2691 50.6114 68.3968 50.288C68.4949 50.032 68.6738 49.8152 68.9063 49.6707C68.9834 49.6264 69.0672 49.5949 69.1544 49.5774C69.219 49.5622 69.2869 49.5717 69.3449 49.6041C69.3476 49.6096 69.349 49.6157 69.349 49.6218C69.349 49.628 69.3476 49.6341 69.3449 49.6396C69.3483 49.6557 69.3483 49.6724 69.3449 49.6885L69.2917 49.8927C69.2917 49.9194 69.2917 49.9327 69.2651 49.9372H69.243C69.1898 49.919 69.133 49.914 69.0775 49.9225C69.022 49.931 68.9694 49.9528 68.924 49.986C68.7617 50.0903 68.6398 50.2469 68.5784 50.4301C68.4859 50.6692 68.4422 50.9244 68.45 51.1807C68.4291 51.3914 68.4723 51.6035 68.574 51.7891C68.6538 51.8868 68.7689 51.8957 68.9107 51.8157C68.9647 51.7842 69.0152 51.7469 69.0613 51.7047C69.106 51.6649 69.1461 51.6202 69.1809 51.5715V50.9275L68.924 51.0785C68.9018 51.0785 68.8841 51.0785 68.8708 51.0785C68.8637 51.0508 68.8637 51.0218 68.8708 50.9941V50.9053C68.865 50.8715 68.865 50.837 68.8708 50.8032C68.8836 50.7799 68.9019 50.7601 68.924 50.7454L69.336 50.5056C69.367 50.5056 69.3847 50.5056 69.398 50.5056C69.4077 50.539 69.4077 50.5744 69.398 50.6078V51.5226C69.4008 51.5492 69.4008 51.576 69.398 51.6026C69.393 51.6247 69.384 51.6458 69.3714 51.6647C69.2541 51.8661 69.086 52.033 68.8841 52.1488C68.6715 52.2821 68.5164 52.2554 68.3968 52.1089Z" fill="#455A64"/>
<path d="M73.5943 48.9588C73.5969 49.1045 73.5659 49.2489 73.5037 49.3806C73.4414 49.5124 73.3496 49.6279 73.2355 49.7182C73.0361 49.8292 72.8767 49.6738 72.8767 49.3718C72.8737 49.226 72.9046 49.0815 72.9669 48.9497C73.0291 48.8179 73.1211 48.7025 73.2355 48.6124C73.4349 48.4969 73.5943 48.6524 73.5943 48.9588Z" fill="#455A64"/>
<path d="M73.2313 47.7072C72.8137 48.0118 72.5183 48.4559 72.3985 48.9596C72.3805 49.0012 72.3748 49.0471 72.3818 49.0919C72.3889 49.1367 72.4085 49.1786 72.4383 49.2127C72.5048 49.2571 72.6067 49.1683 72.6465 49.0262C72.7279 48.6689 72.9356 48.3534 73.2313 48.138C73.2808 48.103 73.3379 48.0804 73.3979 48.072C73.4578 48.0636 73.5189 48.0696 73.576 48.0896C73.6332 48.1096 73.6848 48.1429 73.7265 48.1868C73.7683 48.2308 73.799 48.2841 73.8161 48.3423C73.856 48.44 73.9579 48.4133 74.0243 48.289C74.0514 48.2449 74.069 48.1957 74.0759 48.1444C74.0827 48.0932 74.0788 48.041 74.0642 47.9914C74.0394 47.9088 73.9954 47.8333 73.9356 47.7712C73.8759 47.7091 73.8022 47.6622 73.7207 47.6344C73.6393 47.6066 73.5524 47.5987 73.4672 47.6113C73.3821 47.624 73.3012 47.6569 73.2313 47.7072Z" fill="#455A64"/>
<path d="M73.2315 46.824C72.6113 47.269 72.1612 47.913 71.9556 48.6493C71.9157 48.7648 71.9246 48.8847 71.9822 48.9247C72.0487 48.9646 72.1461 48.8847 72.1904 48.747C72.3569 48.146 72.7245 47.6207 73.2315 47.2592C73.3156 47.198 73.4123 47.1565 73.5145 47.1377C73.6167 47.1189 73.7218 47.1233 73.8221 47.1506C73.9224 47.1778 74.0153 47.2273 74.094 47.2953C74.1728 47.3633 74.2353 47.4481 74.277 47.5435C74.3213 47.6234 74.4144 47.5968 74.4808 47.4813C74.5078 47.4347 74.5246 47.3828 74.5299 47.3292C74.5353 47.2756 74.5291 47.2214 74.5118 47.1704C74.4607 47.0536 74.3841 46.9497 74.2877 46.8665C74.1912 46.7833 74.0773 46.7229 73.9545 46.6896C73.8316 46.6564 73.7029 46.6512 73.5778 46.6744C73.4526 46.6977 73.3343 46.7488 73.2315 46.824Z" fill="#455A64"/>
<path d="M82.5815 42.7225C82.5764 42.7006 82.5764 42.6778 82.5815 42.6559C82.5863 42.6281 82.5953 42.6011 82.608 42.5759L83.1219 41.6522L83.1618 41.59C83.1718 41.5711 83.1872 41.5556 83.2061 41.5456L83.3878 41.439C83.3906 41.4361 83.3941 41.4337 83.3979 41.4321C83.4017 41.4305 83.4058 41.4297 83.4099 41.4297C83.414 41.4297 83.4181 41.4305 83.4219 41.4321C83.4257 41.4337 83.4292 41.4361 83.4321 41.439C83.4396 41.4465 83.4455 41.4556 83.4493 41.4655C83.4531 41.4755 83.4548 41.4861 83.4542 41.4968V43.8417C83.4531 43.8697 83.4455 43.897 83.4321 43.9216C83.4286 43.933 83.4229 43.9436 83.4153 43.9528C83.4077 43.9619 83.3983 43.9694 83.3878 43.9749L83.1973 44.0859C83.1973 44.0859 83.1662 44.0859 83.153 44.0859C83.1453 44.0674 83.1453 44.0467 83.153 44.0282V42.2207L82.8163 42.8202C82.8062 42.8417 82.7889 42.8589 82.7675 42.8691C82.7608 42.873 82.7532 42.875 82.7454 42.875C82.7376 42.875 82.73 42.873 82.7232 42.8691L82.5815 42.7225Z" fill="#455A64"/>
<path d="M83.7822 42.0301C83.7777 42.0196 83.7754 42.0082 83.7754 41.9968C83.7754 41.9853 83.7777 41.974 83.7822 41.9635C83.7763 41.9372 83.7763 41.9098 83.7822 41.8835L84.2961 40.9598L84.336 40.8976C84.346 40.8787 84.3614 40.8632 84.3803 40.8532L84.5664 40.7422C84.5727 40.7371 84.5805 40.7344 84.5885 40.7344C84.5966 40.7344 84.6044 40.7371 84.6107 40.7422C84.6183 40.7607 84.6183 40.7814 84.6107 40.7999V43.1626C84.6169 43.1889 84.6169 43.2162 84.6107 43.2425C84.602 43.2646 84.5864 43.2832 84.5664 43.2958L84.3714 43.4068C84.3652 43.4119 84.3573 43.4146 84.3493 43.4146C84.3412 43.4146 84.3334 43.4119 84.3271 43.4068C84.323 43.397 84.3209 43.3864 84.3209 43.3757C84.3209 43.3651 84.323 43.3545 84.3271 43.3447V41.5416L83.9904 42.1411C83.9805 42.1612 83.9652 42.1782 83.9461 42.19C83.9394 42.1939 83.9318 42.1959 83.924 42.1959C83.9162 42.1959 83.9086 42.1939 83.9018 42.19L83.7822 42.0301Z" fill="#455A64"/>
<path d="M85.3498 41.02C85.3568 41.0146 85.3654 41.0117 85.3742 41.0117C85.383 41.0117 85.3916 41.0146 85.3986 41.02C85.405 41.0388 85.405 41.0591 85.3986 41.0778V41.4331C85.4031 41.4595 85.4031 41.4866 85.3986 41.513C85.3896 41.5374 85.3723 41.5578 85.3498 41.5707L85.1328 41.6995C85.1328 41.6995 85.0973 41.6995 85.0884 41.6995C85.0774 41.6907 85.0691 41.679 85.0644 41.6656C85.0597 41.6523 85.0588 41.6379 85.0619 41.624V41.2643C85.063 41.2363 85.0706 41.2089 85.084 41.1844C85.0875 41.173 85.0932 41.1624 85.1008 41.1532C85.1084 41.1441 85.1177 41.1365 85.1283 41.1311L85.3498 41.02ZM85.3498 42.2991C85.3572 42.2948 85.3656 42.2925 85.3742 42.2925C85.3827 42.2925 85.3911 42.2948 85.3986 42.2991C85.4042 42.3194 85.4042 42.3409 85.3986 42.3613V42.7166C85.4027 42.743 85.4027 42.77 85.3986 42.7965C85.3896 42.8209 85.3723 42.8413 85.3498 42.8542L85.1328 42.983C85.1328 42.983 85.0973 42.983 85.0884 42.983C85.0809 42.9755 85.075 42.9665 85.0712 42.9565C85.0674 42.9466 85.0657 42.9359 85.0663 42.9253V42.5656C85.0674 42.5376 85.075 42.5102 85.0884 42.4856C85.0919 42.4742 85.0976 42.4636 85.1052 42.4545C85.1128 42.4453 85.1222 42.4378 85.1328 42.4323L85.3498 42.2991Z" fill="#455A64"/>
<path d="M86.6192 42.1222C86.6129 42.1273 86.6051 42.13 86.5971 42.13C86.589 42.13 86.5812 42.1273 86.5749 42.1222C86.5709 42.1131 86.5688 42.1033 86.5688 42.0933C86.5688 42.0834 86.5709 42.0736 86.5749 42.0645V41.6204L85.8439 42.0423C85.8374 42.0467 85.8297 42.049 85.8218 42.049C85.8139 42.049 85.8062 42.0467 85.7996 42.0423C85.7846 42.0252 85.7766 42.0029 85.7775 41.9801V41.7225C85.7708 41.6903 85.7708 41.657 85.7775 41.6248C85.7775 41.5937 85.7996 41.5582 85.8129 41.5227L86.5395 39.7062C86.555 39.6491 86.5874 39.598 86.6325 39.5597L86.8141 39.4531C86.8204 39.4481 86.8282 39.4453 86.8363 39.4453C86.8443 39.4453 86.8522 39.4481 86.8584 39.4531C86.8661 39.4716 86.8661 39.4924 86.8584 39.5108V40.972L87.0667 40.8565C87.0729 40.8515 87.0808 40.8487 87.0888 40.8487C87.0969 40.8487 87.1047 40.8515 87.111 40.8565C87.1181 40.8751 87.1181 40.8957 87.111 40.9142V41.1807C87.1172 41.207 87.1172 41.2344 87.111 41.2606C87.1008 41.2818 87.0856 41.3001 87.0667 41.3139L86.8584 41.4338V41.878C86.8647 41.9042 86.8647 41.9316 86.8584 41.9579C86.8497 41.9799 86.8342 41.9986 86.8141 42.0112L86.6192 42.1222ZM86.5528 41.1629V40.3813L86.1496 41.3983L86.5528 41.1629Z" fill="#455A64"/>
<path d="M87.5669 39.1093C87.5607 39.083 87.5607 39.0557 87.5669 39.0294C87.5757 39.0073 87.5912 38.9887 87.6112 38.9761L88.4973 38.4609C88.5036 38.4559 88.5114 38.4531 88.5194 38.4531C88.5275 38.4531 88.5353 38.4559 88.5416 38.4609C88.5416 38.4609 88.5416 38.492 88.5416 38.5187V38.7762C88.5478 38.8025 88.5478 38.8299 88.5416 38.8562C88.5317 38.8788 88.5165 38.8986 88.4973 38.9139L87.8327 39.2958L87.8062 39.7799C87.8417 39.7344 87.8835 39.694 87.9302 39.66L88.0365 39.5934C88.1104 39.5465 88.1935 39.5162 88.2802 39.5046C88.3504 39.4953 88.4215 39.5128 88.4796 39.5534C88.5405 39.6027 88.5853 39.6693 88.608 39.7444C88.6434 39.8518 88.6599 39.9645 88.6568 40.0775C88.6582 40.2269 88.6418 40.376 88.608 40.5216C88.5759 40.6414 88.5314 40.7575 88.4751 40.868C88.4211 40.9682 88.3541 41.0608 88.2758 41.1434C88.2045 41.2157 88.124 41.2784 88.0365 41.3299C87.9498 41.3835 87.8535 41.4197 87.753 41.4365C87.6858 41.4427 87.6185 41.4255 87.5625 41.3876C87.5065 41.3467 87.4647 41.2892 87.4429 41.2233C87.415 41.145 87.4015 41.0622 87.403 40.979C87.3963 40.9513 87.3963 40.9224 87.403 40.8946C87.4158 40.874 87.4323 40.8559 87.4518 40.8414L87.6423 40.7303C87.6488 40.7259 87.6565 40.7236 87.6644 40.7236C87.6723 40.7236 87.68 40.7259 87.6866 40.7303C87.7013 40.7426 87.7108 40.7601 87.7131 40.7792C87.717 40.8197 87.7324 40.8582 87.7574 40.8902C87.7764 40.9114 87.801 40.9268 87.8283 40.9346C87.8573 40.943 87.888 40.943 87.9169 40.9346C87.9547 40.9239 87.9905 40.9074 88.0232 40.8858C88.1179 40.8294 88.1936 40.7459 88.2403 40.6459C88.2957 40.5357 88.3245 40.414 88.3245 40.2907C88.3289 40.2489 88.3236 40.2068 88.309 40.1675C88.2944 40.1282 88.2709 40.0928 88.2403 40.0642C88.2087 40.0414 88.1707 40.0291 88.1318 40.0291C88.0928 40.0291 88.0549 40.0414 88.0232 40.0642C87.9821 40.0866 87.9435 40.1134 87.9081 40.1441C87.8833 40.1685 87.8611 40.1953 87.8416 40.224C87.8265 40.2456 87.8102 40.2664 87.7929 40.2862C87.7797 40.3068 87.7613 40.3237 87.7397 40.3351L87.5226 40.4594C87.5164 40.4645 87.5085 40.4672 87.5005 40.4672C87.4924 40.4672 87.4846 40.4645 87.4783 40.4594C87.4707 40.4409 87.4707 40.4202 87.4783 40.4017L87.5669 39.1093Z" fill="#455A64"/>
<path d="M60.8501 57.013V56.2491L61.5102 55.8672V56.6311L60.8501 57.013Z" fill="#455A64"/>
<path d="M61.8394 56.4404V54.9171L62.495 54.5352V56.0585L61.8394 56.4404Z" fill="#455A64"/>
<path d="M62.8281 55.8639V53.5811L63.4838 53.1992V55.4864L62.8281 55.8639Z" fill="#455A64"/>
<path d="M63.811 55.2957V52.2491L64.4711 51.8672V54.9138L63.811 55.2957Z" fill="#455A64"/>
<path d="M110.022 26.0802C109.951 25.9781 109.867 25.9514 109.779 26.0003L107.32 27.4125C107.221 27.5092 107.144 27.6265 107.095 27.7562C107.046 27.8859 107.026 28.0248 107.036 28.1631V29.5443C107.03 29.6993 107.067 29.8531 107.143 29.9884C107.167 30.0272 107.203 30.058 107.245 30.0772C107.266 30.0901 107.291 30.097 107.316 30.097C107.34 30.097 107.365 30.0901 107.386 30.0772L109.845 28.6649C109.944 28.5683 110.021 28.451 110.07 28.3213C110.119 28.1916 110.139 28.0527 110.129 27.9144V26.5243C110.138 26.369 110.101 26.2144 110.022 26.0802ZM107.214 29.8152C107.182 29.752 107.168 29.6814 107.174 29.6109V28.2253C107.167 28.1209 107.183 28.0163 107.22 27.9184C107.256 27.8204 107.313 27.7313 107.386 27.6568L109.845 26.2401C109.858 26.2338 109.871 26.2306 109.885 26.2306C109.899 26.2306 109.913 26.2338 109.925 26.2401C109.937 26.2463 109.948 26.2554 109.956 26.2667C109.988 26.3298 110.002 26.4005 109.996 26.471V27.8567C110.002 27.9621 109.986 28.0676 109.948 28.1663C109.911 28.2651 109.853 28.3547 109.779 28.4296L107.32 29.8463C107.311 29.8524 107.301 29.8565 107.291 29.8582C107.28 29.86 107.27 29.8594 107.259 29.8564C107.249 29.8534 107.24 29.8481 107.232 29.841C107.224 29.8339 107.218 29.8251 107.214 29.8152Z" fill="#455A64"/>
<path d="M107.856 27.625V29.2638L107.47 29.4858C107.463 29.4906 107.455 29.4933 107.446 29.4937C107.437 29.4941 107.429 29.4921 107.421 29.4881C107.413 29.484 107.407 29.4779 107.402 29.4705C107.398 29.4631 107.395 29.4546 107.395 29.4459V28.2245C107.388 28.1434 107.399 28.0616 107.426 27.985C107.454 27.9083 107.498 27.8385 107.555 27.7804L107.856 27.625Z" fill="#455A64"/>
<path d="M108.029 27.5248L108.49 27.2539V28.8927L108.029 29.1591V27.5248Z" fill="#455A64"/>
<path d="M108.672 27.1571L109.133 26.8906V28.5294L108.672 28.7959V27.1571Z" fill="#455A64"/>
<path d="M109.775 26.628V27.8094C109.775 27.9167 109.747 28.022 109.693 28.1149C109.639 28.2077 109.562 28.2846 109.469 28.3379L109.314 28.4267V26.7879L109.682 26.5747C109.691 26.5693 109.702 26.5664 109.713 26.5664C109.723 26.5664 109.734 26.5692 109.743 26.5746C109.753 26.58 109.761 26.5878 109.766 26.5971C109.772 26.6065 109.775 26.6172 109.775 26.628Z" fill="#455A64"/>
<path d="M110.219 26.4738C110.285 26.4339 110.343 26.6337 110.343 26.918V27.1755C110.362 27.3833 110.319 27.592 110.219 27.7751L110.09 27.8595V26.5271L110.219 26.4738Z" fill="#455A64"/>
<path d="M103.305 30.6625L105.693 28.5352L104.957 31.6528L104.607 30.356L103.305 30.6625Z" fill="#455A64"/>
<path d="M110.229 33.9605C110.07 34.0658 109.937 34.207 109.842 34.3727C109.746 34.5385 109.691 34.7243 109.68 34.9153C109.68 35.2661 109.928 35.4083 110.229 35.2351C110.389 35.1305 110.522 34.9895 110.618 34.8236C110.713 34.6576 110.768 34.4715 110.778 34.2802C110.778 33.9294 110.535 33.7872 110.229 33.9605Z" fill="#FAFAFA"/>
<path d="M64.3379 95.909V102.945C64.3379 103.473 64.7095 103.686 65.1638 103.422L111.255 76.7999C111.495 76.6429 111.695 76.4317 111.838 76.1833C111.982 75.9349 112.065 75.6562 112.081 75.3698V68.3242C112.081 67.7967 111.709 67.5838 111.255 67.8475L65.1638 94.4694C64.9227 94.6275 64.7222 94.8402 64.5787 95.0904C64.4352 95.3405 64.3527 95.621 64.3379 95.909Z" fill="#E6E6E6"/>
<path d="M64.3379 107.46V114.496C64.3379 115.023 64.7095 115.236 65.1638 114.973L111.255 88.3507C111.495 88.1937 111.695 87.9825 111.838 87.7341C111.982 87.4857 112.065 87.207 112.081 86.9206V79.875C112.081 79.3475 111.709 79.1345 111.255 79.3983L65.1638 106.02C64.9227 106.178 64.7222 106.391 64.5787 106.641C64.4352 106.891 64.3527 107.172 64.3379 107.46Z" fill="#E6E6E6"/>
<path d="M64.3379 119.015V126.051C64.3379 126.578 64.7095 126.791 65.1638 126.527L111.255 99.9054C111.495 99.7484 111.695 99.5372 111.838 99.2888C111.982 99.0404 112.065 98.7617 112.081 98.4753V91.4297C112.081 90.9022 111.709 90.6892 111.255 90.953L65.1638 117.575C64.9227 117.733 64.7222 117.946 64.5787 118.196C64.4352 118.446 64.3527 118.726 64.3379 119.015Z" fill="#E6E6E6"/>
<path d="M64.3379 130.565V137.601C64.3379 138.129 64.7095 138.342 65.1638 138.078L111.255 111.456C111.495 111.299 111.695 111.088 111.838 110.84C111.982 110.591 112.065 110.312 112.081 110.026V102.98C112.081 102.453 111.709 102.24 111.255 102.504L65.1638 129.126C64.9227 129.284 64.7222 129.496 64.5787 129.747C64.4352 129.997 64.3527 130.277 64.3379 130.565Z" fill="#E6E6E6"/>
<path d="M64.3379 142.12V149.156C64.3379 149.684 64.7095 149.896 65.1638 149.633L111.255 123.011C111.495 122.854 111.695 122.643 111.838 122.394C111.982 122.146 112.065 121.867 112.081 121.581V114.535C112.081 114.008 111.709 113.795 111.255 114.058L65.1638 140.68C64.9227 140.838 64.7222 141.051 64.5787 141.301C64.4352 141.551 64.3527 141.832 64.3379 142.12Z" fill="#E6E6E6"/>
<path d="M108.923 52.6635C108.165 52.2282 107.179 52.2713 106.098 52.8902C103.707 54.2799 101.767 57.9934 101.767 61.19C101.767 62.9425 102.351 64.1735 103.269 64.7017L104.196 65.239C104.956 65.6743 105.942 65.6335 107.023 65.0123C109.416 63.6294 111.354 59.9136 111.354 56.717C111.354 54.9691 110.775 53.7403 109.859 53.2098L108.923 52.6635Z" fill="#EBEBEB"/>
<path d="M110.479 60.6942C111.916 57.307 111.532 53.9002 109.621 53.0849C107.71 52.2697 104.995 54.3547 103.557 57.7419C102.12 61.1291 102.503 64.5359 104.415 65.3512C106.326 66.1664 109.041 64.0814 110.479 60.6942Z" fill="#E0E0E0"/>
<path d="M109.732 60.3773C110.86 57.7205 110.558 55.0482 109.058 54.4084C107.558 53.7687 105.428 55.4038 104.301 58.0606C103.173 60.7173 103.475 63.3897 104.974 64.0295C106.474 64.6692 108.604 63.0341 109.732 60.3773Z" fill="#FAFAFA"/>
<path d="M108.159 56.2762C108.173 56.2668 108.189 56.2617 108.206 56.2617C108.222 56.2617 108.239 56.2668 108.252 56.2762C108.266 56.2889 108.277 56.3048 108.284 56.3225C108.291 56.3403 108.293 56.3594 108.291 56.3783V57.072C108.29 57.1237 108.278 57.1746 108.257 57.2216C108.234 57.2738 108.214 57.3191 108.193 57.3576L107.601 58.4912C107.704 58.4576 107.813 58.4476 107.921 58.4617C108.029 58.4758 108.132 58.5138 108.223 58.5728C108.383 58.6862 108.463 58.9151 108.463 59.2529C108.469 59.7246 108.336 60.1876 108.08 60.5837C107.811 60.9959 107.445 61.336 107.015 61.5744C106.823 61.6939 106.612 61.7783 106.391 61.8238C106.24 61.8572 106.084 61.847 105.939 61.7943C105.817 61.7464 105.716 61.6585 105.651 61.545C105.581 61.4189 105.546 61.2766 105.547 61.1324C105.548 61.0902 105.558 61.0488 105.579 61.0122C105.595 60.9765 105.621 60.9464 105.654 60.926L106.271 60.5701C106.339 60.5293 106.391 60.5202 106.427 60.5406L106.547 60.6064C106.601 60.6312 106.66 60.6428 106.719 60.6404C106.827 60.628 106.93 60.5899 107.02 60.5293C107.169 60.444 107.301 60.3318 107.409 60.1983C107.506 60.0793 107.56 59.9306 107.562 59.7766C107.562 59.6225 107.51 59.5499 107.409 59.5318C107.27 59.531 107.134 59.5729 107.02 59.6519L106.613 59.8786C106.599 59.8888 106.583 59.8942 106.566 59.8942C106.55 59.8942 106.533 59.8888 106.52 59.8786C106.506 59.8666 106.495 59.8512 106.488 59.8337C106.481 59.8163 106.479 59.7974 106.481 59.7789V59.2167C106.482 59.1642 106.494 59.1125 106.515 59.0648C106.538 59.0126 106.561 58.965 106.583 58.9197L107.103 57.9199L105.826 58.659C105.812 58.6694 105.796 58.6751 105.779 58.6751C105.762 58.6751 105.746 58.6694 105.733 58.659C105.718 58.6464 105.707 58.6306 105.7 58.6129C105.693 58.5951 105.69 58.576 105.692 58.5569V57.8632C105.693 57.8122 105.707 57.7622 105.733 57.7181C105.753 57.6742 105.785 57.6371 105.826 57.6116L108.159 56.2762Z" fill="#455A64"/>
<path d="M102.691 61.728C102.69 61.9642 102.702 62.2003 102.725 62.4353L90.5918 69.4633V68.0124L102.727 60.9844C102.702 61.2338 102.691 61.4809 102.691 61.728Z" fill="#E6E6E6"/>
<path d="M102.723 60.9826L90.5905 68.0038L89.6655 67.4688L101.799 60.4453L102.723 60.9826Z" fill="#F0F0F0"/>
<path d="M89.1032 64.1391C88.3456 63.7061 87.3573 63.7469 86.2785 64.3658C83.8881 65.751 81.9478 69.4645 81.9478 72.6611C81.9478 74.4113 82.5312 75.6446 83.4494 76.1728L84.3766 76.7101C85.1342 77.1454 86.1225 77.1046 87.2035 76.4834C89.5962 75.0982 91.5343 71.3847 91.5343 68.1881C91.5343 66.4402 90.9531 65.2114 90.0372 64.6787L89.1032 64.1391Z" fill="#003657"/>
<path opacity="0.3" d="M89.1032 64.1391C88.3456 63.7061 87.3573 63.7469 86.2785 64.3658C83.8881 65.751 81.9478 69.4645 81.9478 72.6611C81.9478 74.4113 82.5312 75.6446 83.4494 76.1728L84.3766 76.7101C85.1342 77.1454 86.1225 77.1046 87.2035 76.4834C89.5962 75.0982 91.5343 71.3847 91.5343 68.1881C91.5343 66.4402 90.9531 65.2114 90.0372 64.6787L89.1032 64.1391Z" fill="white"/>
<path d="M90.6539 72.1707C92.0916 68.7835 91.7078 65.3767 89.7965 64.5615C87.8853 63.7462 85.1704 65.8312 83.7326 69.2184C82.2949 72.6057 82.6788 76.0125 84.59 76.8277C86.5013 77.643 89.2162 75.558 90.6539 72.1707Z" fill="#003657"/>
<path d="M89.9131 71.8539C91.0408 69.1971 90.7391 66.5247 89.2393 65.885C87.7395 65.2452 85.6095 66.8803 84.4818 69.5371C83.3541 72.1939 83.6558 74.8663 85.1556 75.506C86.6554 76.1458 88.7854 74.5107 89.9131 71.8539Z" fill="#FAFAFA"/>
<path d="M88.5308 69.1083C88.5299 69.2365 88.5201 69.3646 88.5014 69.4914C88.4792 69.6279 88.4451 69.7622 88.3996 69.8927C88.3475 70.0432 88.2855 70.1902 88.2142 70.3325C88.1373 70.4844 88.0446 70.6477 87.9337 70.8222L87.2553 71.9104L88.4833 71.2008C88.4968 71.1911 88.513 71.1858 88.5296 71.1858C88.5463 71.1858 88.5625 71.1911 88.576 71.2008C88.5897 71.2138 88.6003 71.2297 88.6069 71.2474C88.6136 71.2651 88.6162 71.284 88.6145 71.3028V71.9966C88.6131 72.0473 88.6 72.097 88.576 72.1417C88.5556 72.1851 88.5235 72.222 88.4833 72.2482L85.9006 73.7445C85.8868 73.7545 85.8702 73.7598 85.8532 73.7598C85.8361 73.7598 85.8195 73.7545 85.8057 73.7445C85.7919 73.7321 85.7812 73.7166 85.7745 73.6992C85.7678 73.6819 85.7653 73.6632 85.7672 73.6448V73.078C85.7687 73.0014 85.7793 72.9253 85.7989 72.8513C85.823 72.7658 85.8604 72.6848 85.9097 72.611L87.3729 70.3643C87.4647 70.2301 87.5371 70.0836 87.5877 69.929C87.6151 69.8323 87.6296 69.7325 87.6307 69.632C87.6305 69.5917 87.6267 69.5515 87.6194 69.5118C87.6119 69.4646 87.5924 69.4201 87.5628 69.3826C87.5478 69.3632 87.529 69.3471 87.5077 69.335C87.4863 69.3229 87.4628 69.3152 87.4385 69.3123C87.3578 69.3102 87.2785 69.334 87.2123 69.3804C87.1245 69.4274 87.0475 69.4922 86.9862 69.5708C86.933 69.6404 86.8889 69.7166 86.855 69.7975C86.8257 69.8617 86.8022 69.9285 86.7849 69.997C86.7713 70.0605 86.76 70.1058 86.7532 70.1376C86.7423 70.1974 86.7166 70.2535 86.6786 70.3008C86.6447 70.3407 86.6041 70.3745 86.5587 70.4005L85.9617 70.7429C85.9505 70.751 85.9371 70.7554 85.9233 70.7554C85.9095 70.7554 85.896 70.751 85.8848 70.7429C85.8736 70.7327 85.8648 70.72 85.8593 70.7058C85.8538 70.6917 85.8517 70.6764 85.8532 70.6613C85.8578 70.4593 85.8851 70.2586 85.9346 70.0627C85.9943 69.8406 86.0793 69.6261 86.1879 69.4234C86.3019 69.2053 86.4433 69.0026 86.6085 68.8204C86.7788 68.6291 86.9789 68.4668 87.201 68.3398C87.3743 68.2301 87.5697 68.1604 87.7732 68.1357C87.9179 68.1219 88.0631 68.1578 88.1848 68.2377C88.302 68.3242 88.3904 68.4444 88.4381 68.5823C88.4999 68.7507 88.5313 68.9288 88.5308 69.1083Z" fill="#455A64"/>
<path d="M82.8652 73.2045C82.8646 73.4407 82.876 73.6768 82.8991 73.9119L70.7661 80.9399V79.4889L82.9014 72.4609C82.8765 72.7103 82.8652 72.9574 82.8652 73.2045Z" fill="#003657"/>
<path opacity="0.3" d="M82.8652 73.2045C82.8646 73.4407 82.876 73.6768 82.8991 73.9119L70.7661 80.9399V79.4889L82.9014 72.4609C82.8765 72.7103 82.8652 72.9574 82.8652 73.2045Z" fill="white"/>
<path d="M82.8988 72.4592L70.7658 79.4804L69.8408 78.9453L81.9738 71.9219L82.8988 72.4592Z" fill="#003657"/>
<path opacity="0.6" d="M82.8988 72.4592L70.7658 79.4804L69.8408 78.9453L81.9738 71.9219L82.8988 72.4592Z" fill="white"/>
<path d="M69.2662 75.6166C68.5086 75.1813 67.5204 75.2244 66.4416 75.8433C64.0489 77.2262 62.1108 80.9397 62.1108 84.1386C62.1108 85.8888 62.6943 87.1198 63.6125 87.6503C63.7663 87.7365 64.3814 88.1037 64.5397 88.1876C65.2973 88.6229 66.2856 88.5798 67.3666 87.9609C69.757 86.5757 71.6974 82.8622 71.6974 79.6656C71.6974 77.9177 71.1162 76.6867 70.2002 76.1562L69.2662 75.6166Z" fill="#003657"/>
<path opacity="0.3" d="M69.2662 75.6166C68.5086 75.1813 67.5204 75.2244 66.4416 75.8433C64.0489 77.2262 62.1108 80.9397 62.1108 84.1386C62.1108 85.8888 62.6943 87.1198 63.6125 87.6503C63.7663 87.7365 64.3814 88.1037 64.5397 88.1876C65.2973 88.6229 66.2856 88.5798 67.3666 87.9609C69.757 86.5757 71.6974 82.8622 71.6974 79.6656C71.6974 77.9177 71.1162 76.6867 70.2002 76.1562L69.2662 75.6166Z" fill="white"/>
<path d="M70.8282 83.6473C72.2659 80.2601 71.8821 76.8533 69.9708 76.038C68.0596 75.2228 65.3447 77.3078 63.907 80.695C62.4692 84.0822 62.8531 87.489 64.7643 88.3043C66.6756 89.1195 69.3905 87.0345 70.8282 83.6473Z" fill="#003657"/>
<path d="M70.0816 83.3304C71.2092 80.6737 70.9076 78.0013 69.4078 77.3615C67.908 76.7218 65.778 78.3569 64.6503 81.0137C63.5226 83.6705 63.8242 86.3428 65.324 86.9826C66.8239 87.6223 68.9539 85.9872 70.0816 83.3304Z" fill="#FAFAFA"/>
<path d="M65.9288 82.1892C65.917 82.1723 65.9089 82.153 65.905 82.1327C65.9011 82.1124 65.9015 82.0915 65.9062 82.0713C65.9129 82.0191 65.9307 81.9689 65.9582 81.924L67.0121 80.235C67.037 80.1942 67.0686 80.1466 67.1071 80.0899C67.1392 80.0372 67.1834 79.9929 67.236 79.9607L67.833 79.6161C67.8466 79.6066 67.8628 79.6016 67.8794 79.6016C67.8959 79.6016 67.9121 79.6066 67.9257 79.6161C67.9399 79.6287 67.9507 79.6446 67.9574 79.6624C67.9641 79.6801 67.9664 79.6993 67.9642 79.7181V83.944C67.964 83.9948 67.9507 84.0448 67.9257 84.0891C67.9061 84.133 67.8738 84.1701 67.833 84.1956L67.193 84.5697C67.1796 84.5798 67.1634 84.5853 67.1466 84.5853C67.1299 84.5853 67.1136 84.5798 67.1003 84.5697C67.0856 84.5579 67.0742 84.5425 67.067 84.5251C67.0599 84.5076 67.0574 84.4886 67.0596 84.4699V81.6066L66.4874 82.5293C66.4651 82.5694 66.4312 82.6019 66.3902 82.6222C66.3758 82.6306 66.3589 82.6333 66.3426 82.63C66.3264 82.6266 66.3119 82.6174 66.302 82.6041L65.9288 82.1892Z" fill="#455A64"/>
<path d="M113.542 40.1082L57.5576 72.4453L57.7681 72.8115L113.752 40.4744L113.542 40.1082Z" fill="#E0E0E0"/>
<path d="M63.8601 66.5258C63.7725 66.526 63.6869 66.4999 63.6142 66.451L62.0774 65.3505C61.9962 65.2885 61.9391 65.2002 61.9158 65.1006C61.8926 65.0009 61.9047 64.8963 61.95 64.8047L63.4869 61.9259C63.5531 61.8561 63.6404 61.81 63.7353 61.7947C63.8302 61.7793 63.9275 61.7957 64.0123 61.8412C64.0971 61.8867 64.1646 61.9588 64.2045 62.0464C64.2445 62.1341 64.2546 62.2325 64.2333 62.3265L62.8677 64.8751L64.106 65.7555C64.1932 65.8236 64.2516 65.9221 64.2695 66.0314C64.2874 66.1408 64.2635 66.2529 64.2026 66.3453C64.163 66.3996 64.1116 66.4441 64.0522 66.4754C63.9929 66.5067 63.9271 66.5239 63.8601 66.5258Z" fill="#E0E0E0"/>
<path d="M106.772 38.2865C106.686 38.2757 106.604 38.2392 106.538 38.1817C106.472 38.1242 106.425 38.0483 106.402 37.9637C106.38 37.8791 106.383 37.7896 106.411 37.7067C106.439 37.6239 106.492 37.5514 106.561 37.4986L110 35.509C110.094 35.4789 110.195 35.4817 110.288 35.5168C110.38 35.5519 110.458 35.6172 110.509 35.7023C110.56 35.7874 110.581 35.8872 110.568 35.9855C110.555 36.0838 110.51 36.1749 110.439 36.2441L107.005 38.2293C106.935 38.271 106.854 38.2909 106.772 38.2865Z" fill="#E0E0E0"/>
<path d="M106.772 40.1141C106.686 40.1033 106.604 40.0668 106.538 40.0093C106.472 39.9518 106.425 39.8759 106.402 39.7913C106.38 39.7067 106.383 39.6172 106.411 39.5344C106.439 39.4515 106.492 39.379 106.561 39.3262L110 37.341C110.094 37.311 110.195 37.3137 110.288 37.3488C110.38 37.3839 110.458 37.4493 110.509 37.5344C110.56 37.6194 110.581 37.7192 110.568 37.8175C110.555 37.9159 110.51 38.007 110.439 38.0761L107.005 40.0613C106.934 40.1015 106.853 40.1199 106.772 40.1141Z" fill="#E0E0E0"/>
<path d="M106.771 41.9525C106.684 41.9426 106.601 41.9064 106.534 41.8486C106.467 41.7907 106.419 41.714 106.396 41.6284C106.373 41.5429 106.377 41.4524 106.406 41.3688C106.436 41.2853 106.489 41.2125 106.561 41.1601L109.999 39.1749C110.092 39.1467 110.192 39.1505 110.283 39.1857C110.374 39.2209 110.451 39.2855 110.501 39.3693C110.552 39.4531 110.573 39.5513 110.561 39.6484C110.55 39.7455 110.506 39.836 110.438 39.9056L107.004 41.8952C106.933 41.9356 106.853 41.9554 106.771 41.9525Z" fill="#E0E0E0"/>
<path d="M76.3938 56.1082L95.1606 45.2447C95.67 44.9542 96.0783 45.161 96.0783 45.7113C96.0551 46.0195 95.96 46.3179 95.8006 46.5824C95.6412 46.847 95.422 47.0703 95.1606 47.2343L76.3938 58.0978C75.8888 58.3884 75.4805 58.1815 75.4805 57.6313C75.5035 57.3235 75.5982 57.0255 75.7568 56.761C75.9153 56.4966 76.1335 56.273 76.3938 56.1082Z" fill="#E0E0E0"/>
<path d="M173.226 152.41C172.868 147.468 173.421 143.683 173.011 135.966C172.974 133.991 172.902 131.872 172.771 129.987C172.327 123.658 171.353 121.494 171.266 120.269C171.266 120.269 171.101 110.418 170.687 96.5636C170.492 90.0455 168.608 88.0701 167.103 84.6094H149.207C147.206 93.1481 146.638 111.752 146.695 120.563C146.728 125.049 147.071 148.109 147.101 149.681C147.146 151.641 147.044 153.451 146.277 154.28C144.675 156.003 142.114 158.284 139.644 159.652C139.937 160.406 143.63 160.516 144.826 159.928C146.736 158.993 149.797 156.606 150.467 156.158C153.727 153.983 152.866 151.095 152.866 151.095V150.884C152.896 149.794 156.589 133.784 156.799 130.059C156.98 126.858 156.592 121.422 156.592 121.422L158.653 107.851C158.653 107.851 159.924 115.869 161.21 121.347C162.256 125.803 163.982 133.41 165.159 138.892C166.287 145.21 167.953 149.707 168.239 152.87C168.326 153.624 169.179 161.04 169.533 162.736C169.886 164.433 173.575 164.478 173.812 161.56C173.974 159.615 173.297 153.342 173.226 152.41Z" fill="#B16668"/>
<path d="M158.659 107.852L157.155 98.069C157.155 98.069 151.33 97.3753 149.212 95.332C149.212 95.332 151.882 99.1019 155.835 99.7277L157.504 107.84L156.625 121.303L158.659 107.852Z" fill="#9A4A4D"/>
<path d="M137.124 161.871C137.014 161.871 136.917 163.093 137.53 163.575C138.237 164.13 140.267 164.989 142.858 164.499C145.449 164.009 146.822 163.104 147.819 162.15C148.815 161.197 150.214 159.858 151.38 159.512C152.463 159.202 153.636 158.626 153.96 158.26C154.283 157.894 154.163 156.375 154.163 156.375L137.124 161.871Z" fill="#263238"/>
<path d="M152.868 150.879C152.965 150.879 153.059 150.912 153.134 150.973C153.209 151.034 153.261 151.119 153.281 151.214C153.383 151.633 153.466 152.496 153.676 153.182C154.012 154.394 154.166 155.65 154.135 156.907C154.033 157.702 152.274 158.351 151.157 158.86C149.841 159.54 148.635 160.415 147.58 161.457C146.411 162.558 143.884 163.742 142.184 163.862C139.585 164.047 137.863 163.425 137.295 162.501C136.588 161.37 137.054 160.647 139.965 159.067C140.514 158.765 142.436 157.454 143.09 156.982C143.783 156.483 144.435 155.929 145.038 155.324C145.343 155.016 145.63 154.691 145.899 154.351C146.18 154.045 146.415 153.7 146.595 153.326C146.625 153.243 146.644 153.145 146.667 153.062C146.74 152.825 146.792 152.583 146.824 152.338C146.858 152.081 146.87 151.708 147.095 151.542C147.425 151.384 147.792 151.318 148.156 151.354C148.545 151.36 148.933 151.394 149.318 151.456C149.761 151.531 150.273 151.542 150.559 151.95C150.748 152.282 150.853 152.656 150.863 153.039C150.882 153.216 150.886 153.397 150.897 153.574C150.897 153.65 150.878 153.789 150.98 153.752C151.081 153.714 151.175 153.442 151.209 153.352C151.281 153.148 151.322 152.93 151.401 152.73C151.486 152.495 151.6 152.27 151.74 152.063C151.867 151.874 152.016 151.7 152.183 151.546C152.337 151.407 152.589 151.29 152.868 151.09V150.879Z" fill="#37474F"/>
<path d="M139.494 159.324C143.273 159.377 144.586 161.68 144.826 163.139C143.992 163.515 143.104 163.76 142.194 163.863C139.595 164.048 137.764 163.43 137.192 162.506C136.519 161.432 136.88 160.508 139.494 159.324Z" fill="#FAFAFA"/>
<path d="M145.141 159.045C145.183 159.044 145.223 159.026 145.253 158.996C145.288 158.961 145.307 158.914 145.307 158.865C145.307 158.815 145.288 158.768 145.253 158.733C144.793 158.296 144.243 157.965 143.643 157.762C143.042 157.559 142.405 157.489 141.775 157.556C141.727 157.566 141.684 157.593 141.656 157.633C141.628 157.673 141.617 157.723 141.624 157.771C141.628 157.795 141.636 157.819 141.648 157.84C141.661 157.861 141.677 157.879 141.697 157.894C141.716 157.908 141.739 157.918 141.763 157.924C141.786 157.929 141.811 157.93 141.835 157.926C142.404 157.871 142.979 157.936 143.522 158.119C144.064 158.302 144.562 158.597 144.983 158.985C145.001 159.008 145.026 159.026 145.054 159.036C145.081 159.047 145.111 159.05 145.141 159.045Z" fill="#F0F0F0"/>
<path d="M146.708 157.995C146.75 157.991 146.79 157.974 146.821 157.946C146.855 157.91 146.875 157.862 146.875 157.812C146.875 157.762 146.855 157.714 146.821 157.678C146.36 157.241 145.811 156.91 145.21 156.707C144.61 156.504 143.972 156.434 143.342 156.502C143.294 156.511 143.252 156.538 143.224 156.579C143.195 156.619 143.184 156.668 143.192 156.717C143.195 156.741 143.203 156.764 143.215 156.785C143.228 156.806 143.244 156.825 143.264 156.839C143.284 156.853 143.306 156.864 143.33 156.869C143.354 156.875 143.378 156.875 143.402 156.871C143.972 156.816 144.547 156.882 145.089 157.064C145.631 157.247 146.129 157.542 146.55 157.93C146.569 157.953 146.594 157.97 146.621 157.981C146.649 157.993 146.678 157.997 146.708 157.995Z" fill="#F0F0F0"/>
<path d="M148.149 156.807C148.191 156.806 148.232 156.789 148.262 156.758C148.279 156.741 148.293 156.72 148.302 156.698C148.312 156.675 148.317 156.651 148.317 156.626C148.317 156.601 148.312 156.577 148.302 156.554C148.293 156.532 148.279 156.511 148.262 156.494C147.802 156.058 147.253 155.727 146.653 155.524C146.053 155.321 145.416 155.25 144.787 155.318C144.762 155.322 144.738 155.331 144.717 155.344C144.696 155.357 144.677 155.374 144.663 155.394C144.648 155.415 144.637 155.438 144.632 155.462C144.626 155.486 144.625 155.512 144.629 155.537C144.633 155.561 144.642 155.585 144.655 155.606C144.668 155.628 144.685 155.646 144.705 155.661C144.725 155.676 144.748 155.686 144.773 155.692C144.797 155.698 144.822 155.699 144.847 155.695C145.416 155.64 145.99 155.706 146.532 155.889C147.073 156.071 147.571 156.366 147.991 156.754C148.011 156.776 148.035 156.792 148.063 156.801C148.091 156.81 148.12 156.812 148.149 156.807Z" fill="#F0F0F0"/>
<path d="M149.56 155.622C149.581 155.622 149.602 155.618 149.621 155.61C149.64 155.602 149.658 155.591 149.673 155.576C149.707 155.541 149.727 155.494 149.727 155.444C149.727 155.395 149.707 155.348 149.673 155.312C148.921 154.423 147.24 153.902 145.882 154.132C145.858 154.137 145.835 154.145 145.815 154.158C145.794 154.171 145.776 154.188 145.762 154.208C145.748 154.228 145.739 154.251 145.733 154.275C145.728 154.299 145.728 154.323 145.732 154.347C145.735 154.372 145.743 154.395 145.756 154.416C145.768 154.437 145.785 154.455 145.804 154.47C145.824 154.484 145.846 154.494 145.87 154.5C145.894 154.506 145.919 154.506 145.943 154.502C147.165 154.298 148.714 154.773 149.398 155.561C149.418 155.585 149.443 155.602 149.471 155.613C149.5 155.624 149.53 155.627 149.56 155.622Z" fill="#F0F0F0"/>
<path d="M168.376 164.058C168.474 165.751 168.753 166.871 169.335 167.866C169.918 168.861 171.065 169.166 172.209 168.876C173.352 168.586 174.818 167.809 175.149 166.35C175.48 164.891 175.668 163.892 175.409 162.32L168.376 164.058Z" fill="#263238"/>
<path d="M173.184 151.809C173.658 151.843 173.797 154.116 174.068 156.393C174.361 158.828 175.087 159.838 175.346 161.836C175.643 164.121 175.267 165.143 174.466 166.522C173.665 167.902 170.845 169.259 169.45 167.276C168.322 165.663 168.269 163.883 168.37 161.595C168.432 159.667 168.381 157.738 168.22 155.816C168.13 154.104 167.75 152.382 168.16 152.189C168.19 152.442 168.224 152.762 168.254 153.007C168.271 153.316 168.323 153.622 168.408 153.92C168.457 154.048 168.562 154.18 168.604 153.972C168.626 153.831 168.626 153.688 168.604 153.546C168.536 152.917 168.852 152.868 169.021 152.819C169.744 152.675 170.475 152.571 171.21 152.506C171.586 152.483 172.812 152.427 172.973 152.634C173.078 152.838 173.133 153.064 173.131 153.294C173.173 153.637 173.252 153.89 173.263 153.78C173.285 153.535 173.237 152.894 173.229 152.74C173.222 152.585 173.203 152.389 173.199 152.242C173.195 152.095 173.195 151.952 173.184 151.809Z" fill="#37474F"/>
<path d="M175.48 163.157C175.564 164.379 175.254 165.596 174.596 166.629C173.799 168.009 170.746 169.37 169.354 167.383C168.659 166.399 168.474 165.234 168.376 164.05C169.211 162.531 174.164 161.86 175.48 163.157Z" fill="#FAFAFA"/>
<path d="M169.402 161.574H169.458C169.477 161.574 171.662 160.658 173.783 161.152C173.828 161.161 173.875 161.152 173.915 161.128C173.954 161.103 173.982 161.064 173.994 161.02C174.004 160.974 173.996 160.926 173.971 160.887C173.946 160.847 173.907 160.819 173.862 160.808C172.332 160.521 170.753 160.677 169.308 161.257C169.287 161.267 169.268 161.281 169.253 161.298C169.237 161.315 169.225 161.335 169.217 161.356C169.21 161.378 169.206 161.401 169.208 161.424C169.209 161.448 169.215 161.47 169.225 161.491C169.243 161.52 169.27 161.544 169.301 161.559C169.333 161.574 169.368 161.579 169.402 161.574Z" fill="#F0F0F0"/>
<path d="M173.671 159.432C173.704 159.43 173.737 159.418 173.764 159.397C173.791 159.376 173.81 159.348 173.821 159.316C173.835 159.272 173.832 159.224 173.812 159.182C173.791 159.14 173.755 159.109 173.712 159.093C171.595 158.377 169.252 159.451 169.162 159.5C169.141 159.511 169.123 159.525 169.109 159.542C169.094 159.56 169.083 159.58 169.076 159.602C169.07 159.624 169.067 159.647 169.07 159.669C169.072 159.692 169.079 159.714 169.09 159.734C169.112 159.774 169.148 159.805 169.192 159.819C169.235 159.833 169.282 159.829 169.323 159.809C169.346 159.809 171.632 158.754 173.599 159.432C173.623 159.438 173.647 159.438 173.671 159.432Z" fill="#F0F0F0"/>
<path d="M173.606 157.831C173.639 157.827 173.67 157.814 173.696 157.793C173.722 157.773 173.742 157.745 173.753 157.714C173.761 157.692 173.765 157.669 173.764 157.646C173.763 157.623 173.758 157.601 173.748 157.58C173.738 157.559 173.724 157.54 173.707 157.525C173.69 157.51 173.669 157.498 173.648 157.491C171.324 156.654 169.097 157.831 169.015 157.868C168.995 157.88 168.978 157.896 168.964 157.915C168.951 157.933 168.941 157.955 168.936 157.977C168.93 158 168.93 158.023 168.934 158.046C168.937 158.068 168.946 158.09 168.958 158.11C168.97 158.129 168.985 158.146 169.003 158.16C169.022 158.173 169.042 158.183 169.065 158.188C169.087 158.194 169.11 158.194 169.132 158.191C169.154 158.187 169.176 158.178 169.195 158.166C169.214 158.166 171.369 157.035 173.531 157.789L173.606 157.831Z" fill="#F0F0F0"/>
<path d="M173.495 156.265C173.534 156.261 173.57 156.244 173.598 156.217C173.626 156.189 173.644 156.153 173.649 156.114C173.654 156.075 173.645 156.036 173.625 156.002C173.604 155.969 173.573 155.943 173.536 155.93C171.359 155.112 168.963 156.307 168.873 156.371C168.853 156.382 168.836 156.397 168.822 156.416C168.808 156.434 168.798 156.454 168.792 156.476C168.786 156.498 168.785 156.521 168.788 156.544C168.791 156.567 168.798 156.589 168.809 156.608C168.821 156.628 168.836 156.646 168.854 156.659C168.872 156.673 168.892 156.684 168.914 156.69C168.936 156.696 168.959 156.697 168.982 156.694C169.005 156.691 169.026 156.684 169.046 156.672C169.069 156.672 171.393 155.496 173.416 156.258C173.441 156.266 173.468 156.268 173.495 156.265Z" fill="#EBEBEB"/>
<path d="M167.576 84.668C169.697 88.5434 171.269 91.7101 171.484 103.231C171.698 114.752 171.664 117.982 171.709 119.373C171.754 120.764 172.563 123.245 173.27 130.091C173.977 136.937 173.138 145.091 173.138 145.091C173.138 145.091 172.653 146.192 170.04 146.426C167.633 146.641 166.441 145.736 166.441 145.736C166.441 145.736 163.135 132.41 162.225 128.285C161.315 124.161 158.656 110.608 158.656 110.608L157.528 121.711C157.528 121.711 157.81 125.379 157.077 131.38C156.343 137.382 153.986 145.638 153.986 145.638C152.836 145.955 151.646 146.103 150.454 146.075C149.241 146.063 148.047 145.766 146.968 145.208C146.968 145.208 146.592 125.401 146.592 118.601C146.592 111.8 147.311 95.1369 147.935 84.7735L167.576 84.668Z" fill="#37474F"/>
<path d="M158.656 110.611L156.505 97.5293C156.505 97.5293 151.97 97.2013 149.446 94.5586C150.469 97.3671 154.192 99.335 155.839 99.7271L157.761 110.464L157.543 121.713L158.656 110.611Z" fill="#263238"/>
<path d="M163.218 86.5898C163.819 87.5747 164.313 88.6212 164.692 89.7113C165.079 90.7959 165.406 91.9009 165.673 93.0212C165.933 94.1522 166.147 95.2832 166.294 96.4141C166.458 97.5539 166.533 98.7046 166.52 99.856C166.245 98.7251 165.993 97.6243 165.737 96.5121C165.482 95.4 165.237 94.2917 164.985 93.1871C164.733 92.0825 164.451 90.9817 164.169 89.8809C163.887 88.7801 163.56 87.6869 163.218 86.5898Z" fill="#263238"/>
<path d="M164.724 87.0039C165.295 87.5355 165.815 88.1199 166.277 88.7494C166.74 89.3753 167.161 90.0315 167.537 90.7135C167.912 91.3996 168.232 92.1143 168.495 92.851C168.766 93.5885 168.943 94.3574 169.022 95.1393L167.977 93.0772C167.623 92.4024 167.273 91.7275 166.905 91.0641C166.536 90.4006 166.153 89.7295 165.803 89.0547C165.453 88.3799 165.062 87.7126 164.724 87.0039Z" fill="#263238"/>
<path d="M162.229 100.77C162.721 104.336 163.169 107.906 163.616 111.472C164.064 115.038 164.541 118.601 165.196 122.126C165.85 125.651 166.538 129.194 167.162 132.738C167.787 136.282 168.388 139.833 168.934 143.392C168.114 139.873 167.339 136.355 166.61 132.836C165.857 129.311 165.177 125.794 164.485 122.246C163.793 118.699 163.402 115.11 163.056 111.525C162.71 107.94 162.443 104.362 162.229 100.77Z" fill="#263238"/>
<path d="M150.298 101.062L149.715 110.446C149.629 112.01 149.527 113.571 149.456 115.135C149.385 116.7 149.294 118.264 149.317 119.806C149.339 121.348 149.208 132.812 148.941 139.263C148.719 134.083 148.689 122.973 148.583 119.818C148.583 116.647 148.862 113.529 149.14 110.393C149.418 107.256 149.817 104.161 150.298 101.062Z" fill="#263238"/>
<path d="M152.732 64.918C150.273 65.4231 148.641 66.245 147.197 68.6878C145.753 71.1307 140.642 81.9992 140.642 81.9992L147.317 84.9774L152.153 75.8921L152.732 64.918Z" fill="#9A4A4D"/>
<path d="M170.384 91.0085C169.609 87.4611 168.635 83.4688 168.53 82.7148C167.924 78.191 168.725 75.9291 169.019 73.9386C169.662 69.6372 168.432 66.0219 167.435 65.1887C167.435 65.1887 166.397 64.9512 165.157 64.6534C164.451 64.4861 163.737 64.3603 163.017 64.2764C161.119 64.0104 159.198 63.9572 157.289 64.1181C156.823 64.1671 154.619 64.5478 154.619 64.5478C153.954 64.7024 152.739 64.9248 152.739 64.9248C151.546 66.0122 150.548 67.2977 149.791 68.7248C148.704 70.6739 148.087 72.3025 147.91 76.4757C147.662 81.7912 147.339 87.3065 147.339 91.0161C151.705 93.7153 164.717 94.3185 170.384 91.0085Z" fill="#263238"/>
<path d="M138.548 76.6789L138.973 76.302C139.037 76.255 139.111 76.2243 139.19 76.2125C139.269 76.2007 139.349 76.2081 139.424 76.2341L144.651 77.4518C144.897 77.5207 145.126 77.6423 145.321 77.8083C145.515 77.9743 145.672 78.1806 145.779 78.4131L149.608 88.2148C149.654 88.2936 149.674 88.3847 149.667 88.4758C149.66 88.5668 149.624 88.6534 149.566 88.7237L149.126 89.1346C149.062 89.1834 148.987 89.2155 148.908 89.228C148.828 89.2405 148.747 89.233 148.671 89.2062L143.444 87.9886C143.197 87.921 142.968 87.7999 142.773 87.6338C142.578 87.4677 142.422 87.2606 142.316 87.0272L138.484 77.2256C138.386 76.9655 138.42 76.7807 138.548 76.6789Z" fill="#455A64"/>
<path d="M144.74 78.0926C144.995 78.2705 145.198 78.5141 145.327 78.7976L149.159 88.5993C149.201 88.6766 149.221 88.7644 149.216 88.8524C149.21 88.9405 149.18 89.0253 149.129 89.0969L149.542 88.7199C149.6 88.6495 149.636 88.5633 149.644 88.4724C149.652 88.3816 149.632 88.2905 149.588 88.211L145.756 78.4093C145.636 78.1438 145.451 77.913 145.218 77.7383L144.74 78.0926Z" fill="#455A64"/>
<path d="M149.158 88.5937L145.326 78.7921C145.22 78.5592 145.063 78.3525 144.868 78.1864C144.674 78.0204 144.445 77.899 144.198 77.8308L138.971 76.6131C138.524 76.5075 138.298 76.7714 138.463 77.2012L142.295 87.0029C142.402 87.2358 142.559 87.4425 142.754 87.6085C142.948 87.7746 143.177 87.896 143.424 87.9642L148.651 89.1818C149.098 89.2874 149.328 89.0235 149.158 88.5937Z" fill="#263238"/>
<path d="M145.403 80.8651L144.685 79.0292C144.666 78.9864 144.637 78.9483 144.601 78.9177C144.566 78.8871 144.524 78.8647 144.478 78.852L143.576 78.6447C143.489 78.6258 143.448 78.6748 143.478 78.754C143.621 79.1121 144.057 80.228 144.196 80.5861C144.215 80.6298 144.244 80.6687 144.279 80.7C144.315 80.7313 144.357 80.7542 144.403 80.7671L145.309 80.9744C145.392 81.0084 145.434 80.9594 145.403 80.8651Z" fill="#455A64"/>
<path d="M144.66 79.4951C144.609 79.3867 144.535 79.2907 144.443 79.2139C144.352 79.137 144.245 79.0812 144.129 79.0502C143.915 79.0012 143.798 79.1181 143.877 79.3141C143.928 79.4225 144.002 79.5185 144.093 79.5953C144.185 79.6722 144.292 79.728 144.408 79.759C144.622 79.808 144.735 79.6911 144.66 79.4951Z" fill="#263238"/>
<path d="M145.01 80.4171C144.959 80.3095 144.885 80.2144 144.793 80.1383C144.702 80.0621 144.595 80.0068 144.48 79.976C144.266 79.927 144.153 80.0439 144.228 80.2399C144.279 80.3474 144.353 80.4425 144.445 80.5187C144.536 80.5948 144.643 80.6502 144.758 80.681C144.972 80.73 145.085 80.6131 145.01 80.4171Z" fill="#263238"/>
<path d="M139.721 82.8255C139.172 82.211 139.21 82.1168 139.428 81.7473C139.593 81.4552 139.825 81.2067 140.105 81.0225C140.385 80.8382 140.705 80.7236 141.038 80.688C141.535 80.5988 142.044 80.5988 142.542 80.688C142.858 80.8086 142.67 81.4721 141.929 81.7285C140.756 82.1318 140.801 82.4561 140.801 82.4561C141.294 82.2826 141.796 82.1353 142.305 82.015C142.903 81.9912 143.501 82.0152 144.095 82.0866C144.61 82.113 144.783 82.7576 143.948 83.0743L144.892 83.1233C145.554 83.1572 145.814 83.4777 145.347 83.9376C145.196 84.0934 144.998 84.1942 144.783 84.2241C144.783 84.2241 145.475 84.145 145.513 84.3749C145.626 85.0309 145.219 85.2533 143.866 85.8112C142.572 86.3466 142.361 87.0968 142.696 87.5642C142.696 87.5642 142.124 87.3079 141.609 87.0327C141.233 86.8253 140.906 86.5878 141.004 86.0224C141.004 86.0224 140.252 86.1204 140.146 85.6454C140.097 85.2996 140.123 84.9474 140.222 84.6124C140.074 84.5488 139.947 84.4439 139.857 84.3102C139.767 84.1765 139.717 84.0197 139.714 83.8584C139.68 83.559 139.746 83.2565 139.902 82.9989L139.721 82.8255Z" fill="#B16668"/>
<path d="M143.956 83.072C143.672 83.0437 143.386 83.0437 143.102 83.072C142.823 83.145 142.558 83.2621 142.316 83.4188C141.834 83.6985 141.377 84.0175 140.947 84.3726C141.469 84.165 141.973 83.9128 142.451 83.6186C142.677 83.4719 142.915 83.3457 143.162 83.2416C143.395 83.1926 143.689 83.1549 143.956 83.072Z" fill="#9A4A4D"/>
<path d="M144.79 84.2231C144.485 84.1693 144.17 84.1939 143.877 84.2947C143.585 84.3923 143.304 84.5186 143.038 84.6717C142.502 84.9596 141.998 85.3033 141.534 85.6971C142.085 85.4555 142.623 85.1863 143.147 84.8904C143.649 84.5675 144.206 84.3413 144.79 84.2231Z" fill="#9A4A4D"/>
<path d="M162.842 60.3758C162.714 60.7189 162.387 60.3457 162.09 60.5605C161.818 60.6787 161.512 60.6855 161.236 60.5794C161.082 60.5455 160.931 60.5002 160.781 60.4512C159.981 60.1617 159.239 59.7329 158.588 59.1845C157.592 58.3891 156.708 57.4617 155.794 56.5758C154.879 55.7426 154.008 54.8618 153.185 53.9369C152.808 53.4732 151.255 52.0519 150.714 51.0567C150.247 50.1821 150.439 49.3678 150.849 49.0587C149.721 49.3414 149.037 48.6515 149.01 48.0408C149.018 47.7351 149.121 47.4394 149.305 47.1949C149.488 46.9504 149.742 46.7691 150.033 46.6761C149.979 46.7996 149.976 46.9397 150.024 47.0655C150.073 47.1913 150.169 47.2927 150.293 47.3472C150.42 47.3973 150.56 47.4083 150.694 47.3788C150.828 47.3493 150.95 47.2805 151.045 47.1813C151.229 46.9812 151.337 46.7221 151.349 46.4499C151.367 46.1127 151.295 45.7767 151.139 45.4773C151.028 45.2225 151.001 44.939 151.062 44.6679C151.123 44.3967 151.268 44.1521 151.477 43.9693C151.759 43.762 152.229 43.4529 154.219 43.6941C154.34 43.712 154.463 43.6974 154.577 43.6517C154.691 43.606 154.79 43.5309 154.865 43.434C154.94 43.295 154.996 43.1467 155.031 42.993C155.131 42.753 155.293 42.5442 155.501 42.3884C155.708 42.2326 155.954 42.1355 156.212 42.107C156.725 42.0589 157.243 42.1419 157.716 42.3483C158.063 42.5203 158.439 42.6252 158.825 42.6574C159.359 42.6574 159.848 42.3144 160.382 42.3219C161.371 42.3219 161.601 43.3662 162.545 43.664C163.007 43.811 163.575 43.4642 164.259 44.2559C164.553 44.5951 164.421 45.138 164.635 45.5301C164.806 45.7957 165.025 46.0261 165.282 46.2086C165.433 46.3516 165.55 46.5257 165.627 46.7189C165.703 46.912 165.737 47.1196 165.725 47.327C165.713 47.5345 165.656 47.7368 165.558 47.92C165.46 48.1032 165.324 48.2628 165.158 48.3876C166.012 48.6666 166.858 49.6656 166.941 51.3734C166.938 52.5374 166.71 53.6899 166.268 54.7663C165.816 55.7351 163.173 59.4786 162.842 60.3758Z" fill="#263238"/>
<path d="M162.796 62.9525C162.796 62.2475 162.882 58.7151 162.882 58.7151C162.912 58.9753 164.195 59.6915 165.334 58.3382C166.474 56.9848 166.553 55.5258 165.861 54.606C165.109 53.5881 163.416 53.6484 162.747 55.3147C161.762 55.277 161.468 54.8699 161.859 53.2451C161.754 52.1141 160.472 51.7748 160.502 49.298C157.264 47.153 153.985 47.3075 152.018 49.0115C151.42 51.028 151.158 53.1297 151.243 55.2318C151.386 58.9828 152.39 60.7923 153.59 61.4181C154.391 61.8404 155.12 61.9384 156.519 61.8215L156.455 62.9977C156.433 63.5896 156.486 64.0269 155.914 64.2191C155.538 64.3473 154.617 64.5245 154.617 64.5245C154.617 64.5245 153.289 66.8317 156.959 67.0352C162.811 67.367 165.154 64.6376 165.154 64.6376C165.154 64.6376 164.759 64.5207 163.856 64.238C162.954 63.9553 162.803 63.6574 162.796 62.9525Z" fill="#B16668"/>
<path d="M157.672 57.3906L155.46 58.1031C155.499 58.2528 155.567 58.3929 155.661 58.5151C155.756 58.6372 155.874 58.7386 156.009 58.8132C156.144 58.8877 156.293 58.9337 156.446 58.9484C156.599 58.9631 156.754 58.9461 156.901 58.8986C157.199 58.796 157.446 58.5816 157.589 58.3004C157.733 58.0192 157.763 57.6931 157.672 57.3906Z" fill="#9A4A4D"/>
<path d="M157.537 57.9067C157.241 57.8989 156.953 57.9943 156.72 58.1766C156.487 58.3589 156.325 58.6167 156.262 58.9057C156.471 58.9698 156.695 58.9698 156.905 58.9057C157.116 58.8344 157.303 58.7057 157.445 58.5339C157.587 58.3621 157.679 58.1541 157.71 57.9331C157.653 57.9204 157.595 57.9115 157.537 57.9067Z" fill="#F28F8F"/>
<path d="M152.31 52.1896L153.735 51.4922C153.695 51.3965 153.635 51.3101 153.56 51.2385C153.485 51.167 153.396 51.1117 153.299 51.0763C153.201 51.0409 153.097 51.0261 152.994 51.0328C152.89 51.0395 152.789 51.0676 152.697 51.1152C152.509 51.2118 152.364 51.3764 152.292 51.5759C152.22 51.7753 152.227 51.9947 152.31 52.1896Z" fill="#263238"/>
<path d="M159.281 52.3781L157.893 51.5676C157.941 51.4741 158.008 51.3915 158.088 51.3247C158.169 51.2579 158.263 51.2083 158.364 51.1791C158.464 51.1498 158.57 51.1414 158.674 51.1544C158.778 51.1674 158.878 51.2015 158.969 51.2547C159.154 51.3664 159.29 51.5451 159.348 51.7541C159.406 51.963 159.382 52.1863 159.281 52.3781Z" fill="#263238"/>
<path d="M153.938 53.3503C153.95 53.5262 153.894 53.7001 153.781 53.8352C153.668 53.9703 153.507 54.056 153.332 54.0741C153.247 54.0846 153.16 54.0776 153.078 54.0535C152.995 54.0295 152.919 53.989 152.852 53.9343C152.786 53.8797 152.731 53.8122 152.691 53.7358C152.652 53.6594 152.628 53.5757 152.621 53.4898C152.611 53.3144 152.667 53.1415 152.78 53.0068C152.893 52.8721 153.053 52.7859 153.227 52.766C153.312 52.7561 153.398 52.7635 153.481 52.7877C153.563 52.8119 153.64 52.8525 153.706 52.9071C153.772 52.9616 153.827 53.0289 153.867 53.1051C153.906 53.1812 153.931 53.2646 153.938 53.3503Z" fill="#263238"/>
<path d="M158.727 53.4562C158.738 53.6319 158.682 53.8052 158.569 53.9401C158.456 54.075 158.296 54.161 158.121 54.18C158.036 54.1899 157.95 54.1825 157.867 54.1583C157.785 54.1341 157.709 54.0935 157.642 54.039C157.576 53.9844 157.521 53.9171 157.481 53.8409C157.442 53.7648 157.417 53.6814 157.41 53.5957C157.398 53.4198 157.454 53.2459 157.567 53.1108C157.68 52.9757 157.841 52.89 158.016 52.8719C158.101 52.8614 158.188 52.8685 158.27 52.8925C158.353 52.9165 158.43 52.957 158.496 53.0117C158.562 53.0663 158.617 53.1338 158.657 53.2102C158.696 53.2867 158.72 53.3703 158.727 53.4562Z" fill="#263238"/>
<path d="M153.496 55.8313L155.587 56.8266L156.004 52.7891L153.496 55.8313Z" fill="#9A4A4D"/>
<path d="M156.519 61.8368C159.035 61.5767 161.438 60.7473 161.998 59.5938C161.994 59.9621 161.901 60.3239 161.726 60.6478C161.551 60.9717 161.3 61.2479 160.994 61.4523C159.565 62.2967 156.481 62.7265 156.481 62.7265L156.519 61.8368Z" fill="#9A4A4D"/>
<path d="M163.369 83.7843L165.039 73.402C165.039 73.402 165.121 67.2119 167.438 65.1875C170.119 65.9415 170.905 67.5022 171.593 69.176C172.485 71.3399 172.413 73.3945 171.627 78.9174C170.962 83.6033 170.142 86.5702 169.465 88.2817C168.622 90.4004 166.761 90.5776 163.531 90.4117C160.3 90.2458 158.266 89.948 153.794 89.3486C151.636 89.0583 150.508 88.5946 148.721 88.0254C148.039 87.8375 147.391 87.5437 146.8 87.1545C146.249 86.8073 145.791 86.3312 145.465 85.7672C145.419 85.658 145.357 85.5563 145.281 85.4656C145.195 85.3842 145.105 85.3086 145.01 85.2394C144.824 85.1175 144.655 84.9703 144.51 84.8021C144.385 84.6003 144.281 84.3869 144.197 84.165C144.159 84.0627 144.114 83.9632 144.062 83.8672C143.999 83.7735 143.929 83.6852 143.852 83.6033C143.632 83.4057 143.449 83.1709 143.31 82.9097C143.279 82.8376 143.267 82.7587 143.276 82.6807C143.284 82.6028 143.313 82.5283 143.359 82.4648C143.359 82.4648 143.058 82.2273 142.96 82.1406C142.821 82.0217 142.694 81.8877 142.584 81.741C142.56 81.7149 142.542 81.6839 142.531 81.65C142.52 81.6162 142.516 81.5803 142.52 81.545C142.532 81.5038 142.555 81.4671 142.588 81.4394C143.073 80.9719 143.716 81.1642 144.284 81.3791C145.724 81.9333 146.51 82.5854 148.011 82.9813C148.827 83.1962 149.034 83.2376 149.319 83.1472C149.695 82.9021 148.225 81.5148 148.108 80.3499C148.052 79.7694 148.575 79.0644 149.034 79.7241C149.996 81.1114 150.831 81.4696 151.549 82.2612C152.268 83.0529 152.945 83.5317 154.471 84.0444C156.096 84.591 163.369 83.7843 163.369 83.7843Z" fill="#B16668"/>
<path d="M163.372 83.7842C165.041 83.3657 167.102 83.9463 167.102 83.9463C165.979 83.3737 164.717 83.1294 163.462 83.2413L163.372 83.7842Z" fill="#9A4A4D"/>
<path d="M143.395 82.543C143.688 82.7918 144.008 83.0142 144.323 83.2329C144.639 83.4515 144.959 83.6626 145.275 83.8775C145.437 83.9831 145.591 84.0999 145.756 84.2017C145.922 84.3035 146.091 84.3977 146.264 84.4844C146.607 84.6616 146.958 84.8213 147.317 84.9632L146.817 84.6729L146.317 84.3864C146.155 84.2846 145.989 84.1904 145.831 84.0848C145.673 83.9793 145.519 83.87 145.358 83.7606C145.038 83.5458 144.711 83.3384 144.38 83.1424L143.395 82.543Z" fill="#9A4A4D"/>
<path d="M144.038 83.832C144.226 84.0671 144.435 84.2842 144.662 84.4804C144.888 84.6727 145.125 84.8574 145.366 85.0271C145.606 85.1967 145.854 85.3664 146.118 85.5209C146.369 85.6786 146.63 85.8197 146.9 85.9432C146.655 85.7735 146.419 85.5963 146.178 85.4267L145.467 84.9102L144.753 84.3937C144.497 84.2166 144.26 84.0243 144.038 83.832Z" fill="#9A4A4D"/>
</svg>
