<svg width="32" height="32" viewBox="0 0 32 32" fill="none" xmlns="http://www.w3.org/2000/svg">
<g id="Technology"> <path id="Vector" d="M16 28L20.8 21.6C19.4667 20.6 17.8 20 16 20C14.2 20 12.5333 20.6 11.2 21.6L16 28ZM16 4C10.6 4 5.61334 5.78667 1.60001 8.8L4.00001 12C7.33334 9.49333 11.4933 8 16 8C20.5067 8 24.6667 9.49333 28 12L30.4 8.8C26.3867 5.78667 21.4 4 16 4ZM16 12C12.4 12 9.08001 13.1867 6.40001 15.2L8.80001 18.4C10.8 16.8933 13.2933 16 16 16C18.7067 16 21.2 16.8933 23.2 18.4L25.6 15.2C22.92 13.1867 19.6 12 16 12Z" fill="#003657"/> </g> </svg>