<svg width="32" height="32" viewBox="0 0 32 32" fill="none" xmlns="http://www.w3.org/2000/svg">
<g id="Transportation"> <path id="Vector" d="M24 14.6667H8.00001V8.00002H24M22 22.6667C21.4696 22.6667 20.9609 22.456 20.5858 22.0809C20.2107 21.7058 20 21.1971 20 20.6667C20 20.1363 20.2107 19.6275 20.5858 19.2525C20.9609 18.8774 21.4696 18.6667 22 18.6667C22.5304 18.6667 23.0391 18.8774 23.4142 19.2525C23.7893 19.6275 24 20.1363 24 20.6667C24 21.1971 23.7893 21.7058 23.4142 22.0809C23.0391 22.456 22.5304 22.6667 22 22.6667ZM10 22.6667C9.46958 22.6667 8.96087 22.456 8.5858 22.0809C8.21072 21.7058 8.00001 21.1971 8.00001 20.6667C8.00001 20.1363 8.21072 19.6275 8.5858 19.2525C8.96087 18.8774 9.46958 18.6667 10 18.6667C10.5304 18.6667 11.0392 18.8774 11.4142 19.2525C11.7893 19.6275 12 20.1363 12 20.6667C12 21.1971 11.7893 21.7058 11.4142 22.0809C11.0392 22.456 10.5304 22.6667 10 22.6667ZM5.33334 21.3334C5.33334 22.5067 5.85334 23.56 6.66668 24.2934V26.6667C6.66668 27.0203 6.80715 27.3594 7.0572 27.6095C7.30725 27.8595 7.64639 28 8.00001 28H9.33334C9.68697 28 10.0261 27.8595 10.2762 27.6095C10.5262 27.3594 10.6667 27.0203 10.6667 26.6667V25.3334H21.3333V26.6667C21.3333 27.0203 21.4738 27.3594 21.7239 27.6095C21.9739 27.8595 22.3131 28 22.6667 28H24C24.3536 28 24.6928 27.8595 24.9428 27.6095C25.1929 27.3594 25.3333 27.0203 25.3333 26.6667V24.2934C26.1467 23.56 26.6667 22.5067 26.6667 21.3334V8.00002C26.6667 3.33335 21.8933 2.66669 16 2.66669C10.1067 2.66669 5.33334 3.33335 5.33334 8.00002V21.3334Z" fill="#003657"/> </g> </svg>