<svg width="32" height="32" viewBox="0 0 32 32" fill="none" xmlns="http://www.w3.org/2000/svg">
<g id="Wellness"> <path id="Vector" d="M16.9471 3C11.533 3 7.16714 7.23656 6.89428 12.5646L4.13692 16.198C3.79225 16.6432 4.13692 17.3612 4.74009 17.3612H6.89428V21.6696C6.89428 23.2637 8.17243 24.5418 9.76652 24.5418H11.2026V28.8502H21.2555V22.1148C24.6591 20.5063 27 17.074 27 13.0529C27 7.50943 22.5193 3 16.9471 3ZM22.6916 11.3726C22.6916 13.5842 20.7385 15.3507 17.7801 18.0362L16.9471 18.7974L16.1142 18.0362C13.1558 15.3507 11.2026 13.5842 11.2026 11.3726C11.2026 9.64925 12.5813 8.22749 14.3047 8.21313H14.3621C15.353 8.21313 16.3009 8.65832 16.9471 9.40511C17.5934 8.65832 18.5412 8.21313 19.5322 8.21313C21.2555 8.19877 22.6916 9.5918 22.6916 11.3152V11.3726Z" fill="#003657"/> </g> </svg>