<svg width="32" height="32" viewBox="0 0 32 32" fill="none" xmlns="http://www.w3.org/2000/svg">
<g id="Work"> <path id="Vector" d="M13.3333 2.66669H18.6667C19.3739 2.66669 20.0522 2.94764 20.5523 3.44774C21.0524 3.94783 21.3333 4.62611 21.3333 5.33335V8.00002H26.6667C27.3739 8.00002 28.0522 8.28097 28.5523 8.78107C29.0524 9.28117 29.3333 9.95944 29.3333 10.6667V25.3334C29.3333 26.0406 29.0524 26.7189 28.5523 27.219C28.0522 27.7191 27.3739 28 26.6667 28H5.33332C3.85332 28 2.66666 26.8 2.66666 25.3334V10.6667C2.66666 9.18669 3.85332 8.00002 5.33332 8.00002H10.6667V5.33335C10.6667 3.85335 11.8533 2.66669 13.3333 2.66669ZM18.6667 8.00002V5.33335H13.3333V8.00002H18.6667Z" fill="#003657"/> </g> </svg>