<svg width="159" height="25" viewBox="0 0 159 25" fill="none" xmlns="http://www.w3.org/2000/svg">
<g clip-path="url(#clip0_247_374487)">
<path d="M39.6261 1V7.23808H40.6786V17.8715H37.8308V7.23808H38.7697V1H29.4784V7.23808H30.9694V19.5785L35.143 24H43.3303L47.4781 19.5785V7.23808H49V1H39.6261ZM48.3087 6.48638H46.7868V19.1922L42.9434 23.2483H35.5867L31.7432 19.1922V6.48638H30.2213V1.7256H37.9649V6.48638H37.0776V18.1534L37.5213 18.6285H40.9778L41.4215 18.1534V6.48638H40.5341V1.7256H48.2777L48.3035 6.48116L48.3087 6.48638ZM18.8561 7.2433H20.4038V17.8768H18.8561V24.0052H28.7304V17.8507H27.2394V7.21198H28.7613V1H18.8612V7.23808L18.8561 7.2433ZM19.6041 1.73082H28.0081V6.48638H26.4862V18.6024H28.0081V23.2483H19.6299V18.6024H21.1518V6.48638H19.6041V1.7256V1.73082ZM0 7.23808H1.57865V17.8454H0V24H9.87429V17.8454H8.40914V15.8305H13.4701V9.84294H8.40914V7.2433H11.2569V8.66841H18.0616V1H0V7.23808ZM0.748052 1.75692H17.3393V7.93758H12.0875V6.51248H7.66109V10.626H12.6963V15.0735H7.66109V18.6285H9.15203V23.2744H0.748052V18.6024H2.3267V6.48638H0.748052V1.75692Z" fill="#B4862D"/>
<path d="M40.4567 6.48633H41.4266V18.1534L40.9829 18.6284H37.5264L37.0827 18.1534V6.48633H37.9701V1.72555H30.2265V6.48633H31.7484V19.1922L35.566 23.2482H42.9227L46.7919 19.1922V6.48633H48.3139V1.72555H40.4619V6.48633H40.4567ZM28.0133 1.75687H19.6093V6.51243H21.157V18.6284H19.6351V23.2743H28.0133V18.6023H26.4914V6.48633H28.0133V1.75687ZM0.748047 6.48633H2.32669V18.6023H0.748047V23.2482H9.15203V18.6023H7.66108V15.0474H12.6962V10.5998H7.66108V6.48633H12.0565V7.91143H17.3084V1.75687H0.748047V6.48633Z" fill="#0A1F3F"/>
</g>
<rect x="56" y="3" width="1" height="19" fill="#B6862C"/>
<g clip-path="url(#clip1_247_374487)">
<path d="M64.6019 0.995426H82.037L82.6389 6.85368C82.658 7.00133 82.5529 7.13469 82.4048 7.14898C82.2567 7.16327 82.1277 7.05849 82.1134 6.91084L81.8937 4.90093C81.5928 2.69099 80.4893 1.5241 78.3111 1.5241H75.8129V18.4511C75.8129 20.5087 76.2953 21.3993 77.6567 21.5993C77.7905 21.6136 77.929 21.6994 77.929 21.8661C77.929 21.9851 77.8287 22.1328 77.6663 22.1328H69.0729C68.8866 22.1328 68.7767 22.0566 68.7767 21.8661C68.7767 21.7041 68.8675 21.6279 69.0681 21.5946C70.5489 21.4041 70.8928 20.523 70.8928 18.4464V1.5241H68.3277C66.1543 1.5241 65.0509 2.69099 64.7452 4.90093L64.5254 6.91084C64.5111 7.05849 64.3821 7.16327 64.234 7.14898C64.086 7.13469 63.9809 7.00133 64 6.85368L64.6019 0.995426Z" fill="#081E3F"/>
<path d="M90.8787 1.01924C90.96 1.05734 91.0364 1.14784 91.0364 1.27643V9.83044C91.9917 9.03982 93.1429 8.60164 94.3467 8.52067C98.4212 8.24919 100.189 10.2734 100.58 13.4549L101.197 18.4464C101.45 20.4944 102.042 21.3898 103.408 21.5946C103.566 21.6184 103.723 21.6898 103.733 21.8661C103.733 21.9994 103.628 22.1328 103.442 22.1328H94.9008C94.7384 22.1328 94.5807 22.0804 94.5807 21.8661C94.5807 21.6946 94.7193 21.6089 94.8912 21.5898C96.3051 21.385 96.5105 20.5039 96.2765 18.4464L95.7463 13.836C95.3737 10.5877 94.0505 9.10649 92.627 9.48752C91.8341 9.70661 91.0412 10.3448 91.0412 13.5073V18.4416C91.0412 20.4896 91.5188 21.3803 92.8611 21.5898C93.0092 21.6136 93.1525 21.6803 93.1525 21.8613C93.1525 22.0232 93.0283 22.128 92.8515 22.128H84.3012C84.1196 22.128 84.005 22.0518 84.005 21.8613C84.005 21.6946 84.1531 21.6089 84.3346 21.5851C85.782 21.385 86.1211 20.4991 86.1211 18.4416V7.53953C86.1211 5.33911 85.6625 4.17698 84.3633 3.94361C84.2152 3.94361 84.0958 3.82454 84.0958 3.68165C84.0958 3.55782 84.2009 3.41494 84.3633 3.41494C87.8025 3.31015 90.3342 1.2812 90.5969 1.06211C90.6781 0.995427 90.7832 0.971613 90.8883 1.01448L90.8787 1.01924Z" fill="#081E3F"/>
<path d="M118.622 12.75C118.03 13.7121 116.879 14.0217 115.942 13.7502C115.235 13.5454 114.71 13.1596 114.71 12.3166C114.71 11.1926 115.942 11.3593 115.928 10.4734C115.914 9.69708 115.35 9.01124 114.409 9.16841C112.799 9.64945 112.465 11.2926 112.465 14.3027V18.4464C112.465 20.5039 112.947 21.3945 114.309 21.5946C114.442 21.6089 114.581 21.6946 114.581 21.8613C114.581 21.9804 114.481 22.128 114.318 22.128H105.725C105.539 22.128 105.429 22.0518 105.429 21.8613C105.429 21.6994 105.519 21.6232 105.72 21.5898C107.201 21.3993 107.545 20.5182 107.545 18.4416V15.0314C107.545 12.8501 107.096 11.6879 105.82 11.445C105.677 11.4165 105.519 11.3831 105.519 11.1736C105.519 11.0116 105.644 10.9116 105.816 10.9068C109.241 10.7973 111.763 8.7731 112.025 8.55877C112.197 8.41589 112.47 8.50162 112.47 8.76357V9.82092C112.919 9.3875 113.535 8.8112 114.657 8.48256C115.121 8.37302 115.56 8.32063 115.971 8.32063C118.46 8.32063 119.936 10.583 118.622 12.7405V12.75Z" fill="#081E3F"/>
<path d="M137.657 8.49686C137.844 8.49686 138.054 8.53496 138.054 8.76357C138.054 8.95409 137.92 9.00171 137.739 9.03505C136.473 9.42084 137.06 10.9688 137.528 12.1595L140.036 17.5938L142.224 11.8785C142.616 10.8592 143.156 9.03029 141.651 9.03029C141.517 9.016 141.379 8.93027 141.379 8.76357C141.379 8.6445 141.479 8.49686 141.641 8.49686H146.022C146.208 8.49686 146.318 8.57306 146.318 8.76357C146.318 8.92551 146.227 9.00171 146.026 9.03505C144.464 9.06363 143.576 9.83521 142.668 12.2118L138.866 22.1375H136.516L132.107 12.1499C131.701 11.3355 130.669 9.03505 129.871 9.03505C129.728 9.02077 129.57 8.97314 129.57 8.76834C129.57 8.61116 129.714 8.50162 129.876 8.50162H137.662L137.657 8.49686Z" fill="#081E3F"/>
<path d="M157.342 10.6496C158.58 12.2261 158.436 14.9028 155.566 15.2315C153.851 15.4315 152.141 15.6363 150.426 15.8411C151.41 20.4801 156.602 21.1564 158.336 18.1511C158.441 17.9606 158.594 17.5748 158.866 17.7034C158.971 17.7558 159.024 17.8844 158.995 18.0034C158.121 21.2469 155.456 22.3614 152.399 22.3614C149.341 22.3614 146.466 20.6087 145.534 17.4986C145.396 17.0604 145.315 16.627 145.262 16.1364C144.909 12.0737 146.848 8.50162 152.317 8.50162C154.132 8.50162 156.201 9.19223 157.352 10.6544L157.342 10.6496ZM150.325 15.322C152.656 15.0457 154.567 14.217 154.338 11.9594C154.156 10.1877 153.717 9.02076 152.289 9.02076C150.335 9.02076 149.69 12.9453 150.33 15.3172L150.325 15.322Z" fill="#081E3F"/>
<path d="M132.088 21.5565L131.753 22.0756C131.753 22.0756 130.574 22.009 129.838 22.0994C129.824 22.0994 129.809 22.0994 129.795 22.1042C129.795 22.1042 129.752 22.109 129.733 22.1137H129.757C129.757 22.1137 129.79 22.1137 129.809 22.109C130.039 22.2185 130.354 22.3995 130.645 22.6757C130.741 22.7662 130.817 22.8472 130.879 22.9234L130.311 23.333C130.311 23.333 130.01 22.6281 128.701 22.409C128.305 22.3423 127.793 22.3042 127.54 22.2947C127.54 22.2947 129.012 23.1044 129.389 23.6474C129.437 23.714 129.475 23.7807 129.504 23.8426L128.897 24.157C128.897 24.157 128.457 23.5426 127.383 22.9377C126.475 22.4281 126.332 22.209 126.313 22.1518C126.332 22.2566 126.47 22.8853 126.862 23.5235C127.292 24.2189 127.636 24.6571 127.636 24.6571L126.958 24.8571C126.958 24.8571 126.193 24.0141 125.859 22.9615C125.735 22.571 125.677 22.3042 125.658 22.1185H125.615V25H124.927V22.0661C124.927 22.0661 124.927 22.1042 124.923 22.1233C124.899 22.309 124.846 22.5757 124.722 22.9663C124.388 24.0189 123.623 24.8619 123.623 24.8619L122.945 24.6618C122.945 24.6618 123.289 24.2237 123.719 23.5283C124.111 22.8901 124.249 22.2614 124.268 22.1566C124.244 22.2138 124.106 22.4328 123.198 22.9425C122.123 23.5473 121.684 24.1617 121.684 24.1617L121.077 23.8474C121.106 23.7855 121.144 23.7188 121.192 23.6521C121.569 23.1092 123.041 22.2995 123.041 22.2995C122.787 22.309 122.281 22.3471 121.88 22.4138C120.576 22.6329 120.27 23.3378 120.27 23.3378L119.702 22.9282C119.764 22.852 119.84 22.771 119.936 22.6805C120.227 22.3995 120.552 22.2185 120.781 22.109C120.05 22.009 118.818 22.0756 118.818 22.0756L118.484 21.5565C119.277 21.4231 120.652 21.485 121.254 21.5279C122.491 21.2517 122.792 20.3467 122.792 18.4321V15.0171C122.792 12.831 122.329 11.6689 121.02 11.426C120.872 11.3974 120.71 11.3641 120.71 11.1545C120.71 10.9926 120.839 10.8925 121.01 10.8878C121.541 10.8687 122.047 10.8116 122.534 10.7211C125.262 10.2115 127.163 8.72071 127.392 8.53496C127.569 8.39207 127.851 8.4778 127.851 8.74452V18.4368C127.851 20.3229 128.271 21.2326 129.408 21.5279C130.053 21.4898 131.333 21.4326 132.083 21.566L132.088 21.5565Z" fill="#081E3F"/>
<path d="M120.413 8.57782V9.04458L122.525 8.46828C122.525 8.46828 122.768 8.38255 123.322 8.38255C123.877 8.38255 126.48 8.09678 128.185 5.05334C129.699 2.35283 128.844 -0.00476456 128.844 -0.00476456C128.844 -0.00476456 122.276 0.676318 122.596 7.58716C122.596 7.58716 123.385 7.32997 124.493 6.29167L124.431 3.37683L124.88 5.94875C124.88 5.94875 125.496 5.50105 126.499 4.18651L126.327 1.89083L126.752 3.8674C126.752 3.8674 127.774 2.59097 128.606 0.719183C128.606 0.719183 128.137 2.41951 126.962 4.01505L128.328 3.95313L126.685 4.37702C126.685 4.37702 126.026 5.37721 125.195 6.20594L126.962 6.07735L124.679 6.65365C124.679 6.65365 123.38 8.12059 120.404 8.57782H120.413Z" fill="url(#paint0_linear_247_374487)"/>
</g>
<defs>
<linearGradient id="paint0_linear_247_374487" x1="126.609" y1="3.4578" x2="120.685" y2="9.77628" gradientUnits="userSpaceOnUse">
<stop stop-color="#10AEB9"/>
<stop offset="1" stop-color="#FCDD56"/>
</linearGradient>
<clipPath id="clip0_247_374487">
<rect width="49" height="23" fill="white" transform="translate(0 1)"/>
</clipPath>
<clipPath id="clip1_247_374487">
<rect width="95" height="25" fill="white" transform="translate(64)"/>
</clipPath>
</defs>
</svg>
